SplineFontDB: 3.2
FontName: FirstBunny-Normal
FullName: First Bunny Normal
FamilyName: First Bunny
Weight: Regular
Copyright: Copyright 2025 | Namara Creative, All Rights Reserved.
Version: Version 1.000
ItalicAngle: 0
UnderlinePosition: 0
UnderlineWidth: 0
Ascent: 800
Descent: 200
InvalidEm: 0
sfntRevision: 0x00010000
LayerCount: 2
Layer: 0 0 "Atr+AOEA-s" 1
Layer: 1 0 "Anterior" 0
XUID: [1021 580 361253606 20743]
StyleMap: 0x0040
FSType: 0
OS2Version: 4
OS2_WeightWidthSlopeOnly: 0
OS2_UseTypoMetrics: 0
CreationTime: 1767236486
ModificationTime: 1773038660
PfmFamily: 81
TTFWeight: 400
TTFWidth: 5
LineGap: 0
VLineGap: 0
Panose: 0 0 0 0 0 0 0 0 0 0
OS2TypoAscent: 710
OS2TypoAOffset: 0
OS2TypoDescent: -167
OS2TypoDOffset: 0
OS2TypoLinegap: 0
OS2WinAscent: 838
OS2WinAOffset: 0
OS2WinDescent: 247
OS2WinDOffset: 0
HheadAscent: 710
HheadAOffset: 0
HheadDescent: -167
HheadDOffset: 0
OS2SubXSize: 650
OS2SubYSize: 699
OS2SubXOff: 0
OS2SubYOff: 140
OS2SupXSize: 650
OS2SupYSize: 699
OS2SupXOff: 0
OS2SupYOff: 479
OS2StrikeYSize: 49
OS2StrikeYPos: 258
OS2CapHeight: 709
OS2XHeight: 604
OS2Vendor: 'NCST'
OS2CodePages: 00000001.00000000
OS2UnicodeRanges: a000002f.0000000a.00000000.00000000
Lookup: 1 0 0 "'aalt' Acceder a todas las alternativas en Latino b+APoA-squeda 0" { "'aalt' Acceder a todas las alternativas en Latino b+APoA-squeda 0 subtabla"  } ['aalt' ('DFLT' <'dflt' > 'latn' <'dflt' > ) ]
Lookup: 1 0 0 "'sups' Super+AO0A-ndice en Latino b+APoA-squeda 1" { "'sups' Super+AO0A-ndice en Latino b+APoA-squeda 1 subtabla" ("superior") } ['sups' ('DFLT' <'dflt' > 'latn' <'dflt' > ) ]
Lookup: 4 0 0 "'frac' Fracciones en Latino b+APoA-squeda 2" { "'frac' Fracciones en Latino b+APoA-squeda 2 subtabla"  } ['frac' ('DFLT' <'dflt' > 'latn' <'dflt' > ) ]
Lookup: 6 0 0 "'ordn' Ordinales en Latino b+APoA-squeda 3" { "'ordn' Ordinales en Latino b+APoA-squeda 3 contextual 0"  "'ordn' Ordinales en Latino b+APoA-squeda 3 contextual 1"  } ['ordn' ('DFLT' <'dflt' > 'latn' <'dflt' > ) ]

StartChar: exclam
Encoding: 33 33 5
Width: 375
GlyphClass: 2
Flags: MW
HStem: -11 21G<178.5 206> -11 235<178.5 193 159.5 206> 689 20G<190 228.5>
VStem: 25 325<679 686> 70 233
LayerCount: 2
Fore
SplineSet
195 243 m 0x30
 176 243 157 243 138 243 c 0
 124 243 110 243 96 245 c 0
 91 245 87 246 82 248 c 0
 80 249 78 251 77 253 c 0
 73 259 73 266 72 273 c 0
 55 413 42 536 25 684 c 0
 25 688 26 693 29 696 c 0
 34 700 41 702 47 703 c 0
 57 705 66 705 76 706 c 0
 122 708 167 709 213 709 c 0
 244 709 275 708 305 706 c 0
 315 706 349 703 349 690 c 0
 350 687 350 683 350 679 c 0
 333 545 319 412 304 277 c 0
 303 269 302 261 299 254 c 0
 297 252 295 250 293 249 c 0
 288 247 284 246 279 245 c 0
 267 244 255 244 243 243 c 0
 227 243 211 243 195 243 c 0x30
283 38 m 0
 260 8 225 -11 187 -11 c 0xa8
 170 -11 153 -5 137 0 c 0
 115 11 96 30 84 52 c 0
 74 70 69 91 70 112 c 0
 75 178 126 224 193 224 c 1
 248 220 294 182 303 126 c 0
 305 114 305 101 303 88 c 0x68
 301 70 293 53 283 38 c 0
EndSplineSet
Validated: 8388641
EndChar

StartChar: quotedbl
Encoding: 34 34 6
Width: 452
GlyphClass: 2
Flags: MW
HStem: 688 20G<291 299> 690 20G<62 109 101 109>
VStem: 31 168 260 168
LayerCount: 2
Fore
SplineSet
87 399 m 0x70
 75 399 62 398 51 404 c 0
 45 407 41 414 39 421 c 0
 35 432 35 444 34 456 c 0
 32 509 30 561 28 614 c 2
 28 615 l 2
 27 634 25 654 24 674 c 0
 24 682 24 691 29 698 c 0
 31 702 36 705 41 707 c 0
 48 709 55 710 62 710 c 0
 78 711 93 710 109 710 c 0
 127 709 144 709 162 709 c 0
 191 709 199 697 199 668 c 0
 199 635 196 603 194 570 c 0
 191 539 190 509 189 478 c 0
 189 461 189 443 187 426 c 0
 185 414 179 405 167 403 c 0
 159 400 150 400 141 400 c 0
 123 399 105 400 87 399 c 0x70
316 397 m 0
 304 397 290 396 280 402 c 0
 274 405 270 412 268 419 c 0
 264 430 264 442 263 454 c 0
 261 507 259 559 257 612 c 0
 256 632 254 652 253 672 c 0
 253 680 253 689 258 695 c 0
 260 700 265 703 270 704 c 0
 277 707 284 707 291 708 c 0xb0
 307 708 322 708 338 707 c 2
 391 707 l 2
 419 707 428 694 428 666 c 0
 428 633 425 600 422 568 c 0
 420 537 419 506 418 476 c 0
 418 458 418 441 416 424 c 0
 415 418 413 412 409 407 c 0
 405 404 400 402 396 400 c 0
 387 398 379 398 370 398 c 0
 352 397 334 397 316 397 c 0
EndSplineSet
Validated: 8388641
EndChar

StartChar: numbersign
Encoding: 35 35 7
Width: 714
GlyphClass: 2
Flags: MW
HStem: -2 21G<158 175 365 370 370 377> -1 21G<102.5 107 107 115> 163 140<564 589 589 594 564 602 537 589> 166 140<51 107 54 107> 413 140<614 633 586 641> 416 140<104 159.5 107 159.5> 689 20G<534.5 556.5> 690 20G<270.5 294.5>
VStem: 16 681
LayerCount: 2
Fore
SplineSet
479 0 m 0x6980
 463 -3 446 -4 429 -3 c 0
 412 -3 395 -4 377 -2 c 2
 370 -2 l 2
 360 -2 350 -3 341 0 c 0
 336 1 331 5 329 10 c 0
 327 16 328 24 329 30 c 0
 330 42 334 53 336 65 c 0
 344 98 352 131 359 164 c 1
 274 165 l 1
 269 138 263 110 257 83 c 0
 253 63 249 41 241 21 c 0
 239 16 236 11 232 7 c 0
 228 4 222 2 217 1 c 0
 200 -2 183 -2 167 -2 c 0x8080
 149 -2 132 -2 115 -1 c 2
 107 -1 l 2
 98 -1 88 -1 79 1 c 0
 74 3 69 6 67 11 c 0
 65 18 65 25 66 32 c 0
 68 43 71 55 74 66 c 0
 82 99 89 132 96 165 c 0
 94 166 92 166 90 166 c 2
 54 166 l 2
 48 166 41 165 35 165 c 0
 29 165 23 164 19 167 c 0
 15 170 16 179 17 183 c 0
 19 197 24 210 27 223 c 0
 31 242 33 261 37 279 c 0
 38 284 40 290 42 295 c 0
 44 299 49 303 54 304 c 0
 60 305 66 305 72 305 c 0
 84 306 95 306 106 306 c 0
 108 306 109 306 110 305 c 2
 125 305 l 1
 132 342 139 379 146 415 c 1
 145 415 144 416 142 416 c 2
 107 416 l 2
 101 416 94 415 88 415 c 0
 82 415 76 414 71 417 c 0
 67 420 69 429 70 433 c 0
 72 447 77 460 80 473 c 0
 84 492 86 510 90 529 c 0
 91 534 92 540 95 545 c 0
 97 549 102 553 107 554 c 0
 113 555 119 555 125 555 c 0
 136 556 148 556 159 556 c 0
 160 556 162 555 163 555 c 2
 174 555 l 1
 179 578 183 601 188 625 c 0
 193 645 196 667 205 687 c 0
 207 692 210 697 214 701 c 0
 218 704 224 706 229 707 c 0
 245 710 262 710 279 710 c 0x5580
 310 710 354 709 369 705 c 0
 372 705 374 703 376 701 c 0
 378 698 379 694 380 691 c 0
 380 686 380 681 379 676 c 0
 377 661 373 647 369 632 c 0
 363 606 358 580 352 554 c 1
 436 554 l 1
 451 623 l 2
 455 644 459 666 467 685 c 0
 469 690 472 696 476 699 c 0
 486 709 528 709 541 709 c 0x0280
 572 709 617 707 632 704 c 0
 634 703 636 701 638 699 c 0
 641 697 642 693 642 690 c 0
 643 684 642 679 642 674 c 0
 639 659 635 646 632 631 c 2
 614 553 l 1
 641 553 l 2
 652 553 683 554 692 549 c 0
 693 548 696 545 696 544 c 0
 697 541 698 538 697 534 c 0
 697 519 693 503 690 487 c 0
 687 470 684 453 681 437 c 0
 680 432 679 427 677 422 c 0
 676 419 673 416 670 415 c 0
 666 412 660 412 655 412 c 0
 648 413 640 413 633 413 c 2
 586 413 l 1
 579 377 571 340 564 303 c 1
 589 303 l 2
 599 303 630 304 639 299 c 0
 640 298 643 296 643 294 c 0
 645 291 645 288 645 284 c 0
 644 269 641 253 638 237 c 0
 634 220 631 204 628 187 c 0
 627 182 626 177 624 172 c 0
 623 169 621 166 618 165 c 0
 613 163 608 162 602 163 c 2
 537 163 l 1
 531 136 525 109 520 82 c 0
 515 61 512 40 503 20 c 0
 501 15 498 10 494 6 c 0
 490 3 484 1 479 0 c 0x6980
302 304 m 1
 387 304 l 1
 394 341 401 377 408 414 c 1
 323 415 l 1
 302 304 l 1
EndSplineSet
Validated: 8388641
EndChar

StartChar: dollar
Encoding: 36 36 8
Width: 628
GlyphClass: 2
Flags: MW
HStem: -68 851<307.5 313.5 303.5 317.5>
VStem: 261 96<696 728 696 728 696 733>
LayerCount: 2
Fore
SplineSet
341 -65 m 0
 332 -67 322 -68 313 -68 c 0
 302 -68 292 -67 281 -65 c 0
 278 -65 274 -63 271 -61 c 0
 270 -60 270 -59 269 -58 c 0
 268 -57 268 -56 267 -55 c 0
 266 -53 265 -49 264 -45 c 0
 263 -39 263 -33 262 -26 c 2
 262 16 l 1
 211 22 161 31 112 46 c 0
 95 51 78 56 62 64 c 0
 55 68 47 73 42 81 c 0
 37 87 35 96 33 104 c 0
 30 120 30 136 30 152 c 2
 33 206 l 2
 35 237 34 252 37 290 c 0
 37 302 38 324 52 329 c 0
 60 333 70 333 80 332 c 2
 81 332 l 2
 85 331 89 329 93 328 c 0
 96 328 98 327 100 326 c 0
 118 322 144 315 161 309 c 0
 188 302 217 294 245 292 c 0
 257 290 270 290 282 293 c 0
 291 296 299 305 297 314 c 0
 295 323 288 330 280 335 c 0
 265 346 247 353 229 359 c 0
 209 366 188 372 167 380 c 0
 108 396 56 422 41 487 c 0
 37 501 37 516 38 530 c 0
 39 544 43 558 49 570 c 0
 79 651 183 684 261 692 c 1
 261 728 l 2
 261 738 261 750 263 760 c 0
 264 764 265 767 266 769 c 0
 267 771 268 772 268 773 c 2
 270 775 l 2
 273 778 277 779 280 780 c 0
 289 782 299 783 308 783 c 0
 319 783 330 782 341 779 c 0
 343 779 345 777 348 775 c 0
 349 775 350 773 350 772 c 0
 351 771 351 770 352 769 c 0
 353 768 353 766 354 763 c 0
 355 757 356 749 356 741 c 0
 357 737 357 732 357 728 c 2
 357 696 l 1
 381 696 l 2
 414 695 571 675 578 632 c 0
 580 625 581 617 582 609 c 0
 583 583 584 563 584 539 c 0
 584 528 585 516 584 505 c 0
 584 498 582 489 578 483 c 0
 575 479 568 477 563 476 c 0
 552 475 542 478 531 480 c 0
 489 488 434 504 402 497 c 0
 394 496 385 492 379 487 c 0
 370 479 374 464 383 456 c 0
 391 449 402 445 413 441 c 0
 432 433 451 426 469 417 c 0
 513 396 560 361 580 315 c 0
 585 306 589 297 591 288 c 0
 598 267 601 245 601 223 c 0
 601 205 597 186 592 168 c 0
 559 72 463 15 363 15 c 2
 358 15 l 1
 358 -14 l 2
 358 -25 357 -38 355 -49 c 0
 354 -51 354 -53 353 -55 c 0
 352 -56 352 -57 351 -57 c 0
 350 -59 350 -60 349 -61 c 0
 346 -63 344 -64 341 -65 c 0
134 323 m 1
 134 323 134 323 133 324 c 1
 134 323 l 1
EndSplineSet
Validated: 33
EndChar

StartChar: percent
Encoding: 37 37 9
Width: 914
GlyphClass: 2
Flags: MW
HStem: -4 21G<664 738.5> -4 168 1 21G<181.5 184 243 251> 273 101<714 743> 333 169 688 20G<154 159 159 159> 690 20G<623 642> 691 20G<188 211.5>
VStem: 17 120 241 129 544 125 773 128
LayerCount: 2
Fore
SplineSet
205 0 m 0x22f0
 198 0 191 0 184 1 c 0
 179 1 175 5 175 9 c 0
 175 13 176 17 179 20 c 0
 324 256 454 465 592 686 c 0
 597 694 602 700 609 705 c 0
 614 709 620 710 626 710 c 0
 658 710 708 711 723 709 c 0
 729 708 731 701 728 694 c 0
 717 673 706 654 693 634 c 0
 567 433 447 234 317 30 c 0
 312 21 306 12 297 6 c 0
 293 4 289 3 284 2 c 0
 273 1 262 0 251 1 c 0
 235 1 220 1 205 0 c 0x22f0
824 24 m 0
 792 5 757 -4 720 -4 c 0
 608 -4 552 70 544 175 c 0
 543 194 544 213 548 231 c 0
 565 300 612 360 686 371 c 0
 687 371 689 371 690 372 c 0
 702 373 713 374 724 374 c 0x90f0
 762 374 799 364 829 342 c 0
 852 323 873 298 884 269 c 0
 885 267 886 265 886 263 c 0
 894 251 900 214 902 200 c 0
 903 188 902 175 901 162 c 0
 897 136 892 114 881 90 c 0
 875 73 850 43 835 32 c 0
 831 29 827 27 824 24 c 0
292 361 m 0
 262 342 224 333 188 333 c 0
 76 333 20 407 12 512 c 0
 11 530 13 549 17 568 c 0
 20 584 26 600 33 615 c 0
 61 663 95 699 154 708 c 1
 159 708 l 2x0cf0
 170 710 182 711 194 711 c 0x01f0
 229 711 270 701 297 678 c 0
 315 665 329 648 341 630 c 0
 345 622 349 614 352 606 c 2
 358 591 l 2
 364 573 369 555 370 537 c 0
 371 524 370 511 369 499 c 0
 361 450 346 400 304 369 c 1
 303 369 l 2
 300 366 296 363 292 361 c 0
705 166 m 0
 712 163 721 163 729 164 c 0
 743 166 756 174 763 187 c 0
 776 205 776 231 763 249 c 0
 757 260 743 268 732 272 c 0
 726 273 720 273 714 273 c 0x50f0
 707 272 701 269 695 266 c 0
 679 256 669 238 669 219 c 0
 669 214 669 208 671 203 c 0
 675 186 688 172 705 166 c 0
173 503 m 0
 181 500 189 499 197 501 c 0
 211 503 223 511 231 523 c 0
 244 542 244 567 232 586 c 0
 228 591 224 596 219 600 c 0
 213 604 207 607 200 609 c 0
 194 610 188 610 182 609 c 0
 166 606 152 598 145 583 c 0
 140 575 137 565 137 556 c 0
 137 532 150 511 173 503 c 0
EndSplineSet
Validated: 8388641
EndChar

StartChar: ampersand
Encoding: 38 38 10
Width: 750
GlyphClass: 2
Flags: MW
HStem: -9 21G<596 606 606 681> -9 117 -3 21G 548 171<311 327> 699 20G<277.5 357>
VStem: 96 164
LayerCount: 2
Fore
SplineSet
330 -17 m 2x84
 290 -20 250 -19 212 -12 c 0
 148 -1 84 27 46 82 c 1
 46 83 l 1
 31 98 20 137 18 158 c 0
 15 192 20 228 34 259 c 0
 63 316 105 350 159 383 c 0
 163 385 168 387 172 389 c 1
 132 432 103 465 96 526 c 0
 94 553 101 581 113 605 c 0
 150 683 236 719 319 719 c 0
 395 719 459 698 507 634 c 0
 523 609 533 589 537 559 c 0
 538 542 537 526 534 510 c 0
 521 438 464 386 401 354 c 1
 483 270 l 1
 501 284 518 299 535 313 c 0
 543 320 552 329 562 333 c 0
 566 335 571 335 576 333 c 0
 583 331 589 325 594 320 c 0
 606 309 617 297 629 286 c 0
 644 271 659 257 675 242 c 0
 684 233 693 224 700 214 c 0
 706 207 711 199 712 190 c 0
 714 184 713 177 710 171 c 0
 707 164 702 158 697 152 c 0
 680 136 662 122 644 108 c 1x54
 652 99 660 90 669 80 c 0
 682 66 696 52 709 37 c 0
 717 29 724 21 728 11 c 0
 730 6 727 0 722 -3 c 0x24
 719 -5 716 -6 712 -7 c 0
 702 -9 691 -9 681 -9 c 0
 656 -9 631 -8 606 -9 c 0
 586 -9 567 -10 547 -8 c 0
 536 -6 525 0 517 8 c 0
 513 12 509 17 505 21 c 1
 475 7 442 -3 409 -7 c 0
 397 -10 385 -12 373 -14 c 0
 361 -15 348 -16 335 -17 c 2
 330 -17 l 2x84
235 196 m 0
 248 178 273 177 293 177 c 0
 313 177 332 182 351 188 c 1
 275 270 l 1
 269 266 262 262 257 257 c 0
 249 250 242 241 236 232 c 0
 232 227 228 220 228 213 c 0
 228 207 231 201 235 196 c 0
299 459 m 0
 305 458 310 457 316 457 c 0
 329 457 347 462 356 471 c 0
 363 476 367 482 370 489 c 0
 373 497 373 507 370 515 c 0
 361 537 338 548 316 548 c 0
 306 548 296 546 288 542 c 0
 245 522 253 471 299 459 c 0
EndSplineSet
Validated: 8388641
EndChar

StartChar: quotesingle
Encoding: 39 39 11
Width: 413
GlyphClass: 2
Flags: MW
HStem: 401 310<277 286 277 299 299 331> 691 20G<252 299 299 352 343 352>
VStem: 218 171
LayerCount: 2
Fore
SplineSet
277 401 m 0xa0
 265 400 251 400 241 406 c 0
 235 409 231 416 229 422 c 0
 225 433 225 445 224 457 c 0
 222 510 220 562 218 615 c 0
 217 636 215 656 214 675 c 0
 213 683 214 692 218 699 c 0
 221 703 226 706 231 708 c 0
 238 710 245 711 252 711 c 0x60
 267 712 283 711 299 711 c 0xa0
 317 710 334 711 352 711 c 0
 360 710 368 710 375 706 c 0
 380 703 384 697 386 691 c 0x60
 388 684 388 677 389 670 c 0
 389 637 386 604 383 571 c 0
 381 541 380 510 379 479 c 0
 378 462 379 445 377 428 c 0
 376 422 374 415 369 411 c 0
 362 402 341 401 331 401 c 0
 313 401 295 401 277 401 c 0xa0
62 322 m 1
 61 322 61 322 61 322 c 1
 62 322 l 1
10 223 m 1
 10 223 11 222 11 220 c 1
 10 221 10 222 10 223 c 1
EndSplineSet
Validated: 8388641
EndChar

StartChar: parenleft
Encoding: 40 40 12
Width: 377
GlyphClass: 2
Flags: MW
HStem: -173 21G<297 300.5> 701 20G<283 306.5>
VStem: 28 339
LayerCount: 2
Fore
SplineSet
297 -173 m 0
 272 -174 246 -175 221 -174 c 0
 213 -173 206 -172 199 -171 c 0
 191 -170 183 -166 177 -161 c 0
 168 -154 161 -144 154 -135 c 0
 80 -18 35 82 29 224 c 0
 28 254 28 283 29 313 c 0
 30 319 30 326 31 332 c 0
 33 366 37 399 45 432 c 0
 66 510 108 626 161 682 c 0
 169 692 179 700 191 705 c 0
 221 721 266 721 300 721 c 0
 313 721 326 721 338 719 c 0
 345 719 352 717 358 714 c 0
 361 713 364 710 365 707 c 0
 367 703 367 698 365 694 c 0
 362 684 357 675 352 666 c 0
 345 654 337 641 330 629 c 0
 279 533 246 422 236 314 c 0
 234 286 234 258 236 230 c 0
 243 117 288 -16 339 -114 c 0
 345 -125 353 -137 354 -149 c 0
 356 -166 335 -171 318 -172 c 0
 311 -173 304 -173 297 -173 c 0
EndSplineSet
Validated: 33
EndChar

StartChar: parenright
Encoding: 41 41 13
Width: 353
GlyphClass: 2
Flags: MW
HStem: -173 21G<51.5 55> 701 20G<46.5 76>
VStem: 116 207<314 314>
LayerCount: 2
Fore
SplineSet
132 -174 m 0
 106 -175 81 -174 55 -173 c 0
 48 -173 41 -173 34 -172 c 0
 17 -171 -4 -166 -2 -149 c 0
 0 -137 8 -125 14 -114 c 0
 67 -13 110 118 117 230 c 0
 119 258 118 286 116 314 c 0
 107 419 75 536 22 629 c 0
 16 641 8 654 1 666 c 0
 -5 675 -10 684 -13 694 c 0
 -14 698 -14 703 -13 707 c 0
 -11 710 -9 713 -6 714 c 0
 0 717 7 719 14 719 c 0
 27 721 40 721 53 721 c 0
 99 721 161 721 192 682 c 0
 267 597 312 441 322 332 c 0
 322 326 323 319 323 313 c 0
 325 283 325 254 324 224 c 0
 318 87 272 -20 199 -135 c 0
 192 -144 185 -154 175 -161 c 0
 169 -166 161 -170 154 -171 c 0
 147 -172 139 -173 132 -174 c 0
EndSplineSet
Validated: 33
EndChar

StartChar: asterisk
Encoding: 42 42 14
Width: 442
GlyphClass: 2
Flags: MW
HStem: 690 20G<244.5 253>
VStem: 161 128<678 683.5>
LayerCount: 2
Fore
SplineSet
242 299 m 0
 221 296 200 294 179 296 c 0
 173 296 165 299 162 304 c 0
 154 310 158 362 159 389 c 0
 159 390 159 391 159 391 c 1
 149 384 139 376 130 368 c 0
 122 362 114 356 105 353 c 0
 100 351 94 351 89 352 c 0
 67 361 37 402 25 422 c 0
 22 428 20 435 22 441 c 0
 23 451 67 477 91 492 c 0
 97 496 104 500 110 504 c 1
 106 506 102 509 98 511 c 0
 79 523 59 533 39 544 c 0
 35 546 31 548 28 552 c 0
 19 561 30 581 36 592 c 0
 44 607 52 623 60 638 c 0
 65 645 69 653 75 659 c 0
 79 662 85 662 89 661 c 0
 96 659 101 655 107 652 c 0
 121 642 134 631 148 621 c 0
 153 618 158 614 164 611 c 1
 164 611 164 612 164 613 c 0
 163 636 162 658 161 681 c 0
 161 686 161 690 162 695 c 0
 166 706 189 707 201 708 c 0
 219 709 236 710 253 710 c 0
 262 711 271 711 279 708 c 0
 283 707 287 702 288 698 c 0
 289 691 289 684 289 678 c 0
 287 661 285 644 284 627 c 0
 284 624 283 622 283 619 c 1
 300 631 316 643 332 656 c 0
 336 659 340 661 344 662 c 0
 356 666 370 647 377 638 c 0
 388 624 398 610 409 597 c 0
 414 590 419 583 421 574 c 0
 423 570 421 564 418 561 c 0
 413 556 408 552 402 548 c 0
 387 540 372 532 357 524 c 0
 348 519 339 513 330 508 c 1
 334 506 337 504 341 502 c 0
 355 494 370 487 385 480 c 0
 393 476 402 471 409 464 c 0
 412 460 415 454 416 449 c 0
 417 438 413 427 408 417 c 0
 400 398 391 379 379 362 c 0
 375 357 369 352 363 351 c 0
 350 351 311 378 288 393 c 0
 286 395 283 396 280 398 c 1
 281 382 282 367 283 351 c 0
 284 341 284 332 282 322 c 0
 280 317 277 312 272 309 c 0
 264 302 252 300 242 299 c 0
EndSplineSet
Validated: 33
EndChar

StartChar: plus
Encoding: 43 43 15
Width: 600
GlyphClass: 2
Flags: MW
HStem: 215 171<38 40 40 213 28 385 387 485>
VStem: 213 170<69.5 215> 216 173<386 538>
LayerCount: 2
Fore
SplineSet
294 35 m 0xc0
 275 35 256 34 236 34 c 0
 230 34 211 35 211 45 c 0
 210 53 210 60 210 68 c 0
 211 85 211 103 212 120 c 0
 212 151 213 183 213 215 c 1xc0
 40 215 l 2
 36 215 33 215 29 216 c 0
 24 216 21 223 21 227 c 0
 19 235 18 244 18 252 c 0
 18 267 19 281 19 296 c 0
 19 310 18 324 19 338 c 0
 19 350 20 363 19 375 c 0
 19 378 19 381 21 382 c 0
 23 384 26 385 28 386 c 2
 216 386 l 1
 216 426 217 466 218 505 c 0
 217 513 217 521 218 529 c 0
 218 532 218 536 219 539 c 0
 219 540 222 544 223 544 c 0
 225 546 228 546 230 547 c 0
 238 548 247 548 255 548 c 0
 270 549 285 548 299 547 c 2
 341 547 l 2
 353 546 366 546 378 546 c 0
 381 546 384 546 386 544 c 2
 389 538 l 1
 389 518 l 2xa0
 388 474 388 430 387 386 c 1
 485 386 l 2
 503 387 521 387 538 387 c 0
 546 387 553 387 561 386 c 0
 566 385 571 381 574 377 c 0
 577 371 578 364 579 357 c 0
 581 338 581 318 581 298 c 0
 582 279 584 260 583 241 c 0
 583 237 582 225 580 222 c 0
 579 218 575 216 572 215 c 0
 563 214 555 214 546 214 c 0
 527 215 508 214 490 215 c 2
 385 215 l 1
 384 184 384 153 383 121 c 0
 384 105 383 89 383 73 c 0
 383 66 383 59 382 53 c 0
 381 48 377 43 373 41 c 0
 367 38 360 37 353 36 c 0
 334 35 314 35 294 35 c 0xc0
EndSplineSet
Validated: 8388641
EndChar

StartChar: comma
Encoding: 44 44 16
Width: 255
GlyphClass: 2
Flags: MW
HStem: -158 317
VStem: 8 231
LayerCount: 2
Fore
SplineSet
138 -157 m 0
 114 -158 90 -158 65 -158 c 0
 54 -158 42 -158 30 -155 c 0
 26 -154 21 -152 17 -149 c 0
 15 -147 13 -144 12 -141 c 0
 9 -135 8 -128 8 -122 c 0
 7 -98 10 -75 13 -52 c 0
 18 11 24 90 31 136 c 0
 32 142 36 148 41 150 c 0
 46 153 52 154 58 155 c 0
 105 159 152 160 199 158 c 0
 206 158 213 158 220 157 c 0
 224 157 229 157 233 155 c 0
 236 154 239 151 239 147 c 0
 240 143 239 138 238 133 c 0
 221 40 188 -49 156 -138 c 0
 154 -142 153 -146 151 -150 c 0
 150 -152 148 -154 146 -155 c 0
 144 -157 141 -157 138 -157 c 0
EndSplineSet
Validated: 33
EndChar

StartChar: hyphen
Encoding: 45 45 17
Width: 379
GlyphClass: 2
Flags: MW
HStem: 196 184<49.5 177 92 96>
VStem: 19 341<239.5 326.5>
LayerCount: 2
Fore
SplineSet
300 194 m 0
 232 192 164 196 96 196 c 0
 81 195 66 195 52 196 c 0
 47 196 42 197 38 199 c 0
 34 200 31 204 29 207 c 0
 27 213 25 219 24 225 c 0
 20 256 19 289 19 320 c 0
 19 333 19 346 25 358 c 0
 30 366 38 371 47 374 c 0
 62 379 77 379 92 380 c 0
 121 381 149 381 177 380 c 0
 219 380 260 380 302 380 c 0
 311 379 320 379 329 377 c 0
 334 376 339 373 342 369 c 0
 356 355 358 314 359 296 c 0
 360 278 361 261 360 244 c 0
 360 235 358 226 355 217 c 0
 353 213 351 210 348 207 c 0
 339 195 313 194 300 194 c 0
EndSplineSet
Validated: 33
EndChar

StartChar: period
Encoding: 46 46 18
Width: 271
GlyphClass: 2
Flags: MW
HStem: -11 21G<126.5 162.5> -11 235<126.5 141 107.5 162.5>
VStem: 18 233
LayerCount: 2
Fore
SplineSet
251 88 m 0x60
 245 32 190 -11 135 -11 c 0xa0
 118 -11 101 -5 85 0 c 0
 63 11 43 30 32 52 c 0
 22 70 17 91 18 112 c 0
 23 178 74 224 141 224 c 1
 196 220 242 182 251 126 c 0
 253 114 253 101 251 88 c 0x60
EndSplineSet
Validated: 8388641
EndChar

StartChar: slash
Encoding: 47 47 19
Width: 360
GlyphClass: 2
Flags: MW
HStem: -166 21G<21 23>
VStem: 10 335
LayerCount: 2
Fore
SplineSet
189 -162 m 0
 185 -168 169 -168 161 -167 c 0
 142 -167 123 -165 104 -165 c 0
 77 -165 50 -167 23 -166 c 0
 19 -166 14 -163 12 -159 c 0
 10 -156 10 -152 10 -148 c 0
 11 -144 12 -140 13 -136 c 0
 60 121 114 410 160 666 c 0
 161 669 161 672 161 674 c 0
 162 681 164 688 165 695 c 0
 165 696 166 699 167 699 c 1
 167 701 169 702 170 703 c 0
 175 707 192 706 199 705 c 0
 217 705 236 703 254 703 c 0
 281 703 308 705 334 704 c 0
 338 704 342 703 344 700 c 0
 347 695 343 680 342 674 c 0
 340 665 338 656 336 646 c 0
 335 643 335 641 334 638 c 0
 291 391 240 113 197 -134 c 0
 197 -137 197 -141 196 -144 c 0
 195 -150 193 -156 189 -162 c 0
EndSplineSet
Validated: 33
EndChar

StartChar: zero
Encoding: 48 48 20
Width: 702
GlyphClass: 2
Flags: MW
HStem: -9 21G<301 384> 524 196 700 20G<339.5 418.5>
VStem: 28 223 441 236
LayerCount: 2
Fore
SplineSet
556 61 m 0xb8
 490 14 424 -9 344 -9 c 0
 258 -9 173 22 111 89 c 0
 52 156 28 249 25 336 c 0
 23 372 25 408 32 444 c 0
 60 569 148 694 283 713 c 0
 286 714 289 714 292 715 c 0
 310 718 330 720 349 720 c 0
 488 720 592 648 644 518 c 0
 646 514 647 510 648 505 c 0
 663 480 675 413 677 385 c 0
 679 360 677 335 674 311 c 0
 667 222 628 115 556 61 c 0xb8
317 319 m 0
 326 315 336 313 345 313 c 0
 361 313 379 318 392 327 c 0
 405 334 416 346 424 358 c 0
 447 394 447 443 424 479 c 0
 412 500 391 516 367 522 c 0
 356 525 345 525 334 524 c 0xd8
 322 522 311 518 301 511 c 0
 270 492 252 457 252 421 c 0
 252 411 253 400 256 390 c 0
 263 357 287 330 317 319 c 0
EndSplineSet
Validated: 8388641
EndChar

StartChar: one
Encoding: 49 49 21
Width: 443
GlyphClass: 2
Flags: MW
HStem: -1 21G<266.5 294> 690 20G<301 308 308 316> 693 20G<225 255>
VStem: 140 263<45 48 89 108 43 114 114 169.5>
LayerCount: 2
Fore
SplineSet
359 2 m 0xd0
 333 0 307 -1 281 -1 c 0
 252 -1 222 0 192 2 c 0
 183 2 174 3 165 6 c 0
 163 6 161 7 160 8 c 0
 158 8 155 9 153 11 c 0
 150 12 147 15 146 19 c 0
 143 24 142 29 141 34 c 0
 141 38 141 41 140 45 c 2
 140 114 l 2
 140 225 140 335 139 445 c 1
 115 424 90 406 62 391 c 0
 56 388 51 385 45 384 c 0
 38 382 32 385 28 390 c 0
 23 396 21 405 20 413 c 0
 17 442 17 472 17 502 c 0
 17 522 15 543 16 563 c 0
 17 574 20 586 28 594 c 0
 36 603 47 610 58 617 c 0
 76 629 94 640 112 651 c 0
 126 662 141 672 156 682 c 0
 190 705 204 713 246 713 c 0xb0
 264 713 283 712 301 710 c 2
 308 710 l 2
 324 710 340 709 356 707 c 0
 363 707 370 706 376 704 c 0
 379 704 381 703 383 701 c 0
 386 701 392 697 393 694 c 0
 397 689 399 682 400 676 c 0
 400 672 400 668 401 665 c 2
 401 646 l 2
 403 466 403 292 403 114 c 1
 404 114 404 113 404 112 c 0
 404 111 404 109 403 108 c 2
 403 89 l 2
 404 80 404 72 404 64 c 0
 404 58 404 53 403 48 c 2
 403 45 l 2
 403 41 403 38 402 34 c 0
 402 28 400 21 396 16 c 0
 394 13 392 12 390 11 c 0
 389 10 387 9 386 8 c 0
 384 7 381 6 379 6 c 0
 372 4 365 3 359 2 c 0xd0
EndSplineSet
Validated: 8388641
Substitution2: "'sups' Super+AO0A-ndice en Latino b+APoA-squeda 1 subtabla" onesuperior
Substitution2: "'aalt' Acceder a todas las alternativas en Latino b+APoA-squeda 0 subtabla" onesuperior
EndChar

StartChar: two
Encoding: 50 50 22
Width: 649
GlyphClass: 2
Flags: MW
HStem: -5 246<429 564.5> -5 254<556.5 564.5> -1 21G<65.5 153> 468 252 700 20G<301 307.5>
VStem: 23 597
LayerCount: 2
Fore
SplineSet
591 -1 m 0x24
 580 -4 570 -5 559 -5 c 0x84
 380 -5 238 -1 68 -1 c 0
 63 -1 59 1 55 4 c 0
 53 6 51 8 49 11 c 0
 46 16 45 23 44 29 c 0
 43 50 44 70 44 91 c 0
 45 109 45 128 47 147 c 0
 49 161 53 174 60 185 c 2
 69 197 l 2
 88 216 108 233 129 248 c 0
 147 261 166 273 184 285 c 0
 228 315 296 361 323 405 c 0
 327 413 332 421 334 430 c 0
 336 435 336 441 335 446 c 0
 330 465 304 469 287 468 c 0x34
 260 466 234 456 207 447 c 0
 193 443 179 438 165 435 c 0
 156 431 146 427 137 424 c 0
 130 422 123 421 116 421 c 0
 111 421 106 421 102 423 c 0
 86 428 74 458 69 472 c 0
 54 504 41 541 32 575 c 0
 27 590 23 607 23 623 c 0
 23 636 30 652 42 658 c 0
 53 666 65 671 77 675 c 0
 149 701 224 716 301 720 c 0
 314 720 327 720 340 719 c 0
 363 719 389 715 411 709 c 0
 425 707 439 703 452 699 c 0
 550 675 597 601 605 502 c 0
 607 469 602 434 591 402 c 0
 561 313 494 270 409 239 c 1
 417 240 425 241 433 241 c 2x8c
 463 244 l 2
 500 247 538 249 575 249 c 0x44
 581 249 588 248 594 246 c 0
 599 245 603 243 606 239 c 0
 609 236 611 231 612 226 c 0
 626 170 618 111 616 53 c 0
 616 42 615 32 612 22 c 0
 610 9 601 4 591 -1 c 0x24
EndSplineSet
Validated: 8388641
Substitution2: "'sups' Super+AO0A-ndice en Latino b+APoA-squeda 1 subtabla" twosuperior
Substitution2: "'aalt' Acceder a todas las alternativas en Latino b+APoA-squeda 0 subtabla" twosuperior
EndChar

StartChar: three
Encoding: 51 51 23
Width: 660
GlyphClass: 2
Flags: MW
HStem: -9 21G<356 414.5> -9 257<283.5 414.5> -1 21G<249 251> 326 92<196 262.5> 491 229<271 311.5> 700 20G<305 311.5>
VStem: 27 609
LayerCount: 2
Fore
SplineSet
627 149 m 0x5a
 587 30 473 -9 356 -9 c 0x9a
 332 -8 308 -8 284 -5 c 0
 273 -4 262 -3 251 -1 c 0x32
 247 -1 243 0 239 1 c 0
 184 6 133 22 81 39 c 0
 69 44 57 49 46 56 c 0
 34 65 27 77 27 92 c 0
 27 108 31 124 36 140 c 0
 41 159 48 177 55 196 c 0
 61 212 67 228 73 243 c 0
 77 254 82 266 89 276 c 0
 93 283 99 289 106 292 c 0
 118 295 130 294 141 290 c 0
 149 288 156 285 164 282 c 0
 168 281 172 279 176 278 c 0
 203 271 218 263 242 257 c 0
 258 252 275 248 292 248 c 0
 307 248 321 251 333 260 c 0
 343 268 349 283 347 295 c 0
 345 304 340 314 332 317 c 0
 323 321 313 323 304 324 c 0
 287 326 271 326 254 326 c 0
 239 326 224 326 210 328 c 0
 205 329 200 331 196 333 c 0
 186 339 185 365 184 377 c 0
 184 394 184 418 208 418 c 0
 227 417 247 418 266 420 c 0
 281 422 297 425 311 430 c 0
 318 433 324 437 329 443 c 0
 337 453 336 469 327 478 c 0
 322 484 314 487 307 489 c 0
 296 491 285 492 274 491 c 0
 268 491 262 491 256 490 c 0
 226 485 196 476 166 470 c 0
 151 467 135 464 119 464 c 0
 109 463 99 464 91 467 c 0
 83 471 76 478 71 486 c 0
 42 528 26 582 27 632 c 0
 27 640 30 649 35 655 c 0
 38 658 42 662 46 664 c 0
 88 691 190 708 239 715 c 0
 261 717 283 719 305 720 c 0
 318 720 331 720 344 719 c 0
 350 719 356 719 362 718 c 0
 412 714 461 709 505 684 c 1
 553 662 591 618 603 566 c 0
 606 554 607 542 606 530 c 0
 605 509 599 488 590 469 c 0
 577 437 557 411 531 388 c 1
 547 378 560 365 573 353 c 0
 598 326 615 298 627 263 c 0
 635 239 637 213 635 188 c 0
 634 175 631 162 627 149 c 0x5a
93 322 m 1
 92 322 92 322 92 322 c 1
 93 322 l 1
41 223 m 1
 41 223 42 222 42 220 c 1
 41 221 41 222 41 223 c 1
EndSplineSet
Validated: 8388641
Substitution2: "'sups' Super+AO0A-ndice en Latino b+APoA-squeda 1 subtabla" threesuperior
Substitution2: "'aalt' Acceder a todas las alternativas en Latino b+APoA-squeda 0 subtabla" threesuperior
EndChar

StartChar: four
Encoding: 52 52 24
Width: 672
GlyphClass: 2
Flags: MW
HStem: -1 21G<423 451> 105 164<92 306> 110 166<570 606 570 608> 692 20G
VStem: 306 264<276 337>
LayerCount: 2
Fore
SplineSet
525 2 m 0xb8
 496 0 466 -1 436 -1 c 0
 410 -1 385 0 359 1 c 0
 350 2 340 3 332 5 c 0
 330 6 328 6 326 7 c 2
 320 10 l 2
 317 12 314 15 312 18 c 0
 310 23 309 29 308 34 c 0
 308 37 307 41 307 45 c 2
 307 46 l 2
 307 53 306 60 307 67 c 2
 307 106 l 1
 284 106 262 105 240 105 c 0
 191 104 142 104 92 105 c 0xd8
 81 106 69 106 57 108 c 0
 40 110 21 114 19 136 c 0
 19 139 18 142 18 145 c 2
 18 153 l 2
 16 178 16 204 16 229 c 2
 16 231 l 2
 16 247 18 263 23 279 c 0
 25 287 29 296 33 304 c 0
 45 331 68 368 84 393 c 0
 100 421 118 448 135 476 c 0
 159 516 183 557 206 599 c 0
 221 625 236 652 253 677 c 0
 258 684 264 691 270 696 c 0
 273 699 277 701 281 702 c 0
 289 705 298 706 306 706 c 0
 331 708 357 711 382 712 c 0
 423 715 464 713 505 711 c 0
 518 710 530 709 542 707 c 0
 547 706 552 705 555 701 c 0
 558 699 560 696 561 693 c 0
 564 688 566 681 566 675 c 0
 567 672 567 668 567 665 c 2
 567 662 l 2
 568 656 568 651 568 646 c 0
 569 520 570 398 570 276 c 1
 608 276 l 2
 617 276 626 276 635 274 c 0
 638 274 641 272 643 271 c 0
 646 268 649 264 650 259 c 0
 653 249 654 239 654 229 c 0
 654 213 653 198 653 183 c 0
 652 169 653 155 652 141 c 0
 651 135 650 129 647 124 c 0
 644 120 640 116 635 114 c 0
 626 111 616 110 606 110 c 2
 570 110 l 1
 570 45 l 2
 570 41 569 37 569 34 c 0
 568 27 567 20 563 15 c 0
 561 13 559 12 557 10 c 0
 553 8 549 6 545 5 c 0
 539 4 532 3 525 2 c 0xb8
252 269 m 0
 270 268 288 268 306 269 c 1
 306 436 l 1
 298 425 291 415 283 404 c 0
 272 387 262 369 252 352 c 0
 239 331 225 309 215 287 c 2
 212 281 l 2
 212 279 211 276 211 275 c 0
 212 274 215 273 216 273 c 0
 228 270 240 269 252 269 c 0
EndSplineSet
Validated: 8388641
EndChar

StartChar: five
Encoding: 53 53 25
Width: 666
GlyphClass: 2
Flags: MW
HStem: -9 21G<352 372.5> -9 262 -1 21G<245 247> 481 227<375 421.5>
VStem: 23 619
LayerCount: 2
Fore
SplineSet
472 6 m 0x58
 432 -5 393 -9 352 -9 c 0x98
 328 -8 304 -8 280 -5 c 0
 269 -4 258 -3 247 -1 c 0x38
 243 -1 239 0 235 1 c 0
 180 6 129 22 77 39 c 0
 65 44 53 49 42 56 c 0
 30 65 23 77 23 92 c 0
 23 129 54 211 69 243 c 0
 73 254 78 266 85 276 c 0
 89 283 95 289 102 292 c 0
 113 295 126 294 137 290 c 0
 145 288 152 285 160 282 c 0
 164 281 168 279 172 278 c 0
 198 271 212 264 233 258 c 0
 237 257 240 256 243 256 c 0
 263 253 283 251 303 253 c 0
 309 254 315 256 321 259 c 0
 335 266 345 287 341 302 c 0
 332 341 264 349 233 351 c 0
 217 352 201 351 184 351 c 0
 161 349 137 347 113 347 c 0
 104 347 95 347 86 348 c 0
 84 348 82 348 80 349 c 0
 75 351 72 356 71 361 c 0
 69 374 70 387 70 401 c 0
 70 429 71 458 72 487 c 0
 73 503 73 519 75 536 c 0
 75 555 75 593 79 611 c 1
 79 614 l 2
 80 632 81 650 83 667 c 0
 84 676 89 697 99 701 c 0
 104 705 110 706 116 706 c 0
 132 707 148 706 163 706 c 2
 212 706 l 2
 235 706 257 705 280 705 c 0
 299 705 317 706 335 707 c 0
 355 708 375 709 394 708 c 0
 449 708 505 707 560 706 c 2
 573 706 l 2
 576 705 579 704 582 702 c 0
 584 700 585 697 585 694 c 0
 588 685 588 676 588 667 c 0
 589 636 589 604 589 572 c 0
 589 554 590 535 588 517 c 0
 588 511 587 505 584 499 c 0
 583 494 580 490 576 487 c 0
 573 485 569 484 564 483 c 0
 556 482 547 481 538 482 c 0
 486 484 434 482 382 481 c 0
 368 481 354 480 340 478 c 0
 332 476 323 474 316 471 c 0
 311 469 306 466 304 461 c 0
 301 456 299 450 298 444 c 0
 297 441 297 439 297 436 c 1
 323 441 349 448 376 449 c 0
 407 451 438 449 469 443 c 0
 553 424 610 376 633 292 c 0
 640 267 644 241 642 214 c 0
 641 198 637 181 632 165 c 0
 611 87 555 30 477 7 c 0
 475 7 473 7 472 6 c 0x58
88 322 m 1
 89 322 l 1
 88 322 88 322 88 322 c 1
37 223 m 1
 37 223 38 222 38 220 c 1
 37 221 37 222 37 223 c 1
EndSplineSet
Validated: 8388641
EndChar

StartChar: six
Encoding: 54 54 26
Width: 676
GlyphClass: 2
Flags: MW
HStem: -14 21G 355 95<335 460.5> 502 212<281.5 469.5> 694 20G<281.5 379.5>
VStem: 25 249
LayerCount: 2
Fore
SplineSet
605 93 m 0xe8
 556 14 462 -21 372 -21 c 0
 339 -21 305 -19 272 -14 c 0
 155 8 62 118 38 231 c 0
 23 303 20 379 35 451 c 0
 38 467 43 484 49 500 c 0
 48 501 47 503 48 505 c 0
 56 521 64 537 72 553 c 0
 124 658 223 714 340 714 c 0
 419 714 595 698 628 623 c 0
 632 611 633 598 631 586 c 0
 627 552 615 519 596 491 c 0
 593 486 589 481 585 477 c 0
 582 475 578 473 574 473 c 0
 567 474 560 476 553 478 c 0
 519 491 488 502 451 502 c 0
 432 503 413 501 394 498 c 0
 360 493 342 480 319 457 c 0
 314 451 309 445 306 438 c 2
 306 437 l 1
 339 444 372 450 406 450 c 0
 515 450 609 406 640 292 c 0
 647 267 651 241 649 214 c 0
 646 173 628 126 605 93 c 0xe8
327 221 m 0
 375 210 419 253 408 301 c 0
 401 334 372 355 342 355 c 0
 328 355 314 351 302 342 c 0
 255 308 270 234 327 221 c 0
EndSplineSet
Validated: 8388641
EndChar

StartChar: seven
Encoding: 55 55 27
Width: 572
GlyphClass: 2
Flags: MW
HStem: 0 175<121 121 121 132> 1 21G<276 313 313 321> 492 214 691 20G<63.5 69>
VStem: 15 547
LayerCount: 2
Fore
SplineSet
313 1 m 2x68
 239 1 170 0 94 0 c 0
 88 0 81 2 77 7 c 0
 74 9 73 12 73 15 c 0
 72 19 73 23 74 26 c 0
 78 44 84 62 90 79 c 2
 99 109 l 2
 100 110 100 111 100 112 c 0
 100 113 100 113 101 114 c 0
 103 121 105 127 107 133 c 0
 108 137 109 140 111 143 c 2
 111 146 l 2
 114 154 117 163 121 172 c 1
 121 175 l 2
 122 176 122 176 122 177 c 0
 138 222 159 281 180 341 c 0
 197 394 214 447 232 499 c 1
 187 495 143 492 100 492 c 0xa8
 82 492 64 492 46 495 c 0
 40 497 33 499 30 504 c 0
 26 508 25 515 24 521 c 0
 22 538 22 554 20 571 c 0
 19 592 17 612 16 633 c 0
 15 644 15 655 15 667 c 0
 16 677 17 688 22 697 c 0
 25 702 31 706 37 708 c 0
 48 711 58 711 69 711 c 0x18
 186 708 302 706 419 706 c 2
 477 706 l 2
 482 705 487 705 491 705 c 0
 492 705 493 706 493 706 c 1
 522 706 l 2
 532 706 542 706 551 703 c 0
 555 702 560 698 561 693 c 0
 563 684 561 674 560 665 c 0
 559 657 557 649 555 641 c 0
 553 634 551 628 549 621 c 0
 549 619 549 618 548 616 c 0
 547 613 547 609 545 605 c 2
 545 603 l 2
 543 598 542 593 540 588 c 0
 484 420 429 259 372 94 c 1
 372 94 372 93 371 92 c 0
 371 91 370 89 370 88 c 2
 364 70 l 2
 361 63 359 55 356 47 c 2
 350 32 l 1
 350 31 l 2
 348 27 347 23 345 20 c 0
 342 14 338 9 333 5 c 0
 331 3 328 3 326 2 c 0
 324 2 323 2 321 1 c 2
 313 1 l 2x68
EndSplineSet
Validated: 8388609
EndChar

StartChar: eight
Encoding: 56 56 28
Width: 684
GlyphClass: 2
Flags: MW
HStem: -12 249<324 346> 555 166<306.5 345> 698 20G<386 391 390 391> 700 20G<359 360.5> 701 20G<306.5 322.5>
VStem: 24 636 54 232
LayerCount: 2
Fore
SplineSet
346 -12 m 0xa2
 271 -12 219 -10 149 20 c 0
 145 22 140 25 135 27 c 0
 77 61 30 120 25 189 c 0
 23 214 25 240 33 263 c 0
 39 281 46 299 57 314 c 0
 77 344 99 368 128 389 c 1
 89 425 57 476 54 531 c 0
 53 543 54 555 57 567 c 0
 77 658 168 705 255 715 c 0
 256 715 258 716 259 716 c 0
 261 716 262 716 264 716 c 0
 281 719 298 721 315 721 c 0xc2
 330 721 345 721 359 720 c 0x92
 362 720 365 720 368 719 c 0
 371 719 375 719 378 719 c 0
 381 719 383 718 386 718 c 0
 387 718 389 718 391 718 c 0
 439 714 487 708 529 684 c 1
 577 662 615 618 627 566 c 0
 630 554 631 542 630 530 c 0
 629 509 623 488 614 469 c 0
 601 437 581 411 555 388 c 1
 571 378 584 365 597 353 c 0
 622 326 639 298 651 263 c 0
 659 239 661 213 659 188 c 0
 658 175 655 162 651 149 c 0
 617 47 523 -2 420 -8 c 0
 396 -11 371 -13 346 -12 c 0xa2
293 479 m 0
 303 463 320 453 339 453 c 0
 344 453 349 453 354 455 c 0
 375 460 390 477 393 498 c 0
 394 507 392 517 388 526 c 0
 384 534 377 541 370 547 c 0
 361 552 350 555 340 555 c 0
 334 555 329 555 324 553 c 0
 292 544 276 508 293 479 c 0
278 296 m 0
 278 263 308 237 340 237 c 0
 376 237 409 271 400 312 c 0
 393 342 367 361 339 361 c 0
 322 361 307 354 295 342 c 0
 289 337 285 329 281 321 c 0
 278 313 277 304 278 296 c 0
EndSplineSet
Validated: 8388641
EndChar

StartChar: nine
Encoding: 57 57 29
Width: 675
GlyphClass: 2
Flags: MW
HStem: -21 212<214 393.5> 244 94 474 240<311.5 319 264.5 335> 694 20G<264.5 319>
VStem: 401 249
LayerCount: 2
Fore
SplineSet
604 140 m 0xe8
 552 36 452 -21 335 -21 c 0
 262 -21 70 -2 48 71 c 0
 44 82 43 95 45 108 c 0
 48 133 68 202 91 216 c 0
 94 219 98 220 101 220 c 0
 109 220 116 217 122 215 c 0
 159 201 194 191 234 191 c 0
 267 191 307 197 335 216 c 0
 347 226 363 241 369 255 c 0
 369 256 370 256 370 257 c 1
 344 252 318 246 292 244 c 0
 261 243 230 245 200 251 c 0
 163 258 128 274 99 298 c 0
 64 325 48 360 35 401 c 0
 28 426 24 453 27 479 c 0
 28 496 31 512 37 528 c 0
 46 561 63 598 88 623 c 0
 91 629 96 634 100 638 c 0
 154 692 227 714 302 714 c 0
 336 714 370 713 403 707 c 0
 523 684 611 578 638 462 c 0
 653 391 655 314 641 243 c 0
 638 226 633 210 627 194 c 0
 628 192 628 190 627 188 c 0
 619 172 612 156 604 140 c 0xe8
267 392 m 0
 274 359 303 338 333 338 c 0
 347 338 361 343 373 352 c 0
 420 386 405 459 349 472 c 0
 343 473 338 474 332 474 c 0
 291 474 258 435 267 392 c 0
EndSplineSet
Validated: 8388641
EndChar

StartChar: colon
Encoding: 58 58 30
Width: 289
GlyphClass: 2
Flags: MW
HStem: -11 21G<136.5 172.5> -11 235<136.5 151 117.5 172.5> 308 235<134.5 149 115.5 170.5>
VStem: 26 237 28 233
LayerCount: 2
Fore
SplineSet
259 407 m 0x30
 253 351 198 308 143 308 c 0
 126 308 109 314 93 319 c 0
 71 330 51 349 40 371 c 0
 30 389 25 410 26 431 c 0
 31 497 82 543 149 543 c 1
 203 539 250 499 259 445 c 0
 261 433 261 420 259 407 c 0x30
261 88 m 0x68
 255 32 200 -11 145 -11 c 0xa8
 128 -11 111 -5 95 0 c 0
 73 11 54 30 42 52 c 0
 32 70 27 91 28 112 c 0
 33 178 84 224 151 224 c 1
 206 220 252 182 261 126 c 0
 263 114 263 101 261 88 c 0x68
EndSplineSet
Validated: 8388641
EndChar

StartChar: semicolon
Encoding: 59 59 31
Width: 284
GlyphClass: 2
Flags: MW
HStem: -158 701<67.5 149> 308 235<134.5 149 115.5 172>
VStem: 16 245 26 233
LayerCount: 2
Fore
SplineSet
259 407 m 0x90
 250 350 201 308 143 308 c 0x50
 126 308 109 314 93 319 c 0
 71 330 51 349 40 371 c 0
 30 389 25 410 26 431 c 0
 31 497 82 543 149 543 c 1
 203 539 250 499 259 445 c 0
 261 433 261 420 259 407 c 0x90
146 -157 m 0
 122 -158 98 -158 73 -158 c 0
 62 -158 50 -158 38 -155 c 0
 34 -154 29 -152 25 -149 c 0
 23 -147 21 -144 20 -141 c 0
 17 -135 16 -128 16 -122 c 0xa0
 15 -98 18 -75 21 -52 c 0
 26 11 32 90 39 136 c 0
 40 142 44 148 49 150 c 0
 54 153 60 154 66 155 c 0
 113 159 160 160 207 158 c 0
 214 158 221 158 228 157 c 0
 232 157 237 157 241 155 c 0
 244 154 247 151 247 147 c 0
 248 143 247 138 246 133 c 0
 229 40 196 -49 164 -138 c 0
 162 -142 161 -146 159 -150 c 0
 158 -152 156 -154 154 -155 c 0
 152 -157 149 -157 146 -157 c 0
EndSplineSet
Validated: 8388641
EndChar

StartChar: less
Encoding: 60 60 32
Width: 610
GlyphClass: 2
Flags: MW
HStem: 18 542
VStem: 20 561
LayerCount: 2
Fore
SplineSet
569 19 m 0
 565 18 562 18 558 20 c 0
 549 22 539 26 530 29 c 2
 524 30 l 2
 517 33 509 35 502 37 c 0
 362 82 222 127 82 172 c 0
 69 175 57 178 45 182 c 0
 39 184 34 185 29 188 c 0
 26 190 24 193 24 197 c 0
 21 211 22 226 22 241 c 0
 22 255 21 269 21 283 c 0
 21 297 21 311 21 325 c 0
 20 342 19 359 21 376 c 0
 22 379 23 382 25 385 c 0
 27 387 36 391 39 392 c 0
 42 393 45 394 48 396 c 0
 49 396 49 396 50 396 c 0
 51 397 52 397 54 398 c 0
 61 401 69 403 76 406 c 0
 78 406 83 408 86 408 c 0
 229 454 372 500 515 546 c 0
 527 550 539 554 550 558 c 0
 555 560 561 561 566 560 c 0
 571 560 575 558 577 553 c 0
 578 552 579 547 579 546 c 0
 580 538 580 529 580 521 c 0
 581 482 582 443 580 404 c 0
 579 398 578 392 575 387 c 0
 574 383 570 381 566 379 c 0
 558 375 549 373 540 370 c 0
 536 369 533 368 529 368 c 0
 433 341 336 314 240 286 c 1
 322 264 403 241 485 219 c 0
 488 218 490 218 493 217 c 0
 506 214 519 210 532 207 c 0
 540 205 548 203 557 202 c 0
 561 201 566 200 570 197 c 0
 572 196 574 192 574 189 c 0
 575 186 575 182 575 179 c 0
 576 160 575 141 576 121 c 0
 576 98 577 75 578 52 c 0
 578 40 580 21 569 19 c 0
EndSplineSet
Validated: 33
EndChar

StartChar: equal
Encoding: 61 61 33
Width: 619
GlyphClass: 2
Flags: MW
HStem: 77 171<47 494 58 75 75 494 58 499 58 582.5> 333 171<39 496 76 496 496 500 76 76 59 584>
VStem: 27 566<109.5 358>
LayerCount: 2
Fore
SplineSet
581 77 m 0
 572 76 564 76 555 76 c 0
 536 77 517 76 499 77 c 2
 75 77 l 2
 66 76 58 76 49 77 c 0
 45 77 42 77 38 78 c 0
 33 78 30 85 30 89 c 0
 28 97 27 105 27 114 c 0
 27 129 28 143 28 158 c 0
 28 172 27 186 28 200 c 0
 28 212 29 225 28 237 c 0
 28 240 28 243 30 244 c 0
 32 246 35 247 37 247 c 0
 44 248 51 248 58 248 c 2
 494 248 l 2
 512 249 530 249 547 249 c 0
 555 249 562 249 570 247 c 0
 575 247 580 243 583 239 c 0
 586 233 587 226 588 219 c 0
 590 200 590 180 590 160 c 0
 591 141 593 122 592 103 c 0
 592 99 591 86 589 83 c 0
 588 80 584 77 581 77 c 0
582 333 m 0
 574 331 565 332 556 332 c 0
 537 332 519 332 500 333 c 2
 76 333 l 2
 68 332 59 332 50 332 c 0
 47 332 43 333 39 333 c 0
 38 334 34 336 33 338 c 0
 32 340 31 342 31 345 c 0
 29 353 29 361 28 370 c 0
 28 384 29 399 29 414 c 2
 29 455 l 2
 30 468 30 480 29 493 c 0
 29 495 30 498 32 500 c 0
 33 502 36 503 38 503 c 0
 45 504 52 504 59 504 c 2
 496 504 l 2
 513 505 531 505 548 504 c 0
 556 504 564 505 571 503 c 0
 576 502 581 499 584 495 c 0
 588 489 589 482 589 475 c 0
 591 455 591 436 592 416 c 0
 592 397 594 377 593 358 c 0
 593 355 592 342 591 339 c 0
 589 336 586 333 582 333 c 0
EndSplineSet
Validated: 33
EndChar

StartChar: greater
Encoding: 62 62 34
Width: 610
GlyphClass: 2
Flags: MW
HStem: 18 542
VStem: 29 561
LayerCount: 2
Fore
SplineSet
52 20 m 0
 49 18 45 18 41 19 c 0
 30 21 32 40 32 52 c 0
 33 75 34 98 34 121 c 0
 35 141 34 160 35 179 c 0
 35 184 36 195 41 197 c 0
 44 200 49 201 53 202 c 0
 62 203 70 205 78 207 c 0
 91 210 104 214 117 217 c 0
 120 218 122 218 125 219 c 0
 207 241 288 264 370 286 c 1
 274 314 177 341 81 368 c 0
 77 368 74 369 70 370 c 0
 61 373 52 375 44 379 c 0
 40 381 36 383 35 387 c 0
 32 392 31 398 30 404 c 0
 28 443 29 482 30 521 c 0
 30 529 30 538 31 546 c 0
 31 547 32 552 33 553 c 0
 35 558 39 560 44 560 c 0
 49 561 55 560 60 558 c 0
 71 554 83 550 95 546 c 0
 238 500 381 454 525 408 c 0
 527 408 532 406 534 406 c 0
 541 403 549 401 556 398 c 0
 558 397 559 397 560 396 c 0
 561 396 562 396 562 396 c 2
 565 394 568 393 571 392 c 0
 574 391 583 387 585 385 c 0
 587 382 588 379 589 376 c 0
 591 359 590 342 589 325 c 0
 589 311 590 297 589 283 c 0
 589 269 588 255 588 241 c 0
 588 226 589 211 586 197 c 0
 586 193 584 190 581 188 c 0
 576 185 571 184 565 182 c 0
 553 178 541 175 528 172 c 0
 388 127 248 82 108 37 c 0
 101 35 93 33 86 30 c 2
 80 29 l 2
 71 26 61 22 52 20 c 0
EndSplineSet
Validated: 33
EndChar

StartChar: question
Encoding: 63 63 35
Width: 547
GlyphClass: 2
Flags: MW
HStem: -11 235<284 285 285 286 286 287 287 287.5 284 308.5> 461 263 704 20G<224.5 298>
VStem: 5 533 163 233<112 119>
LayerCount: 2
Fore
SplineSet
396 88 m 0x88
 387 32 337 -11 280 -11 c 0
 263 -11 246 -5 230 0 c 0
 208 11 188 30 176 52 c 0
 166 70 162 91 163 112 c 0
 163 126 167 140 172 153 c 0
 192 198 236 224 284 224 c 2
 285 224 l 1
 285 224 l 1
 286 224 l 1
 344 220 383 182 396 126 c 0
 398 114 398 101 396 88 c 0x88
278 245 m 0
 261 244 243 242 226 243 c 0
 219 244 211 245 205 249 c 0
 200 251 195 255 192 260 c 0
 187 266 185 275 183 284 c 0
 180 292 180 302 179 311 c 0
 178 325 179 341 185 355 c 0
 188 364 194 372 201 379 c 0
 215 392 231 403 247 415 c 1
 247 416 l 1
 254 423 270 440 267 451 c 0
 265 457 255 460 248 461 c 0xc0
 223 462 197 456 173 448 c 0
 157 442 143 435 127 429 c 0
 116 424 104 419 92 419 c 0
 86 419 79 421 74 425 c 0
 67 431 62 440 57 448 c 0
 34 494 13 553 6 604 c 0
 5 616 5 628 7 639 c 0
 21 700 199 724 250 724 c 0xa0
 346 724 488 704 525 603 c 0
 536 575 541 542 537 512 c 0
 529 456 503 426 458 394 c 0
 439 380 418 367 401 351 c 0
 396 346 393 341 389 336 c 0
 385 328 383 319 382 310 c 2
 382 278 l 2
 382 273 382 267 380 262 c 0
 379 258 374 255 370 254 c 0
 362 252 353 251 344 250 c 0
 322 248 300 247 278 245 c 0
290 225 m 1
 290 225 289 225 287 224 c 1
 288 224 288 225 289 225 c 2
 290 225 l 1
287 224 m 1
 286 224 l 1
 287 224 l 1
EndSplineSet
Validated: 8388645
EndChar

StartChar: at
Encoding: 64 64 36
Width: 878
GlyphClass: 2
Flags: MW
HStem: -123 103<463.5 492> 85 188<669.5 687 669.5 742> 394 111<392 450.5> 616 104<380 457 363 499.5>
VStem: 25 115 227 151 499 146 733 122<341 354>
LayerCount: 2
Fore
SplineSet
650 -89 m 0
 624 -120 511 -123 473 -123 c 0
 454 -123 434 -122 416 -120 c 0
 414 -120 413 -121 411 -120 c 0
 405 -119 400 -118 394 -117 c 0
 390 -116 387 -115 383 -115 c 0
 308 -99 251 -87 185 -41 c 0
 175 -33 165 -25 156 -16 c 0
 63 55 25 187 25 299 c 0
 26 337 31 374 36 412 c 0
 39 430 44 448 51 464 c 0
 126 635 269 720 457 720 c 0
 498 719 541 715 581 704 c 0
 582 704 583 704 583 704 c 2
 585 703 586 703 588 702 c 0
 590 702 592 701 594 700 c 0
 611 695 627 689 642 682 c 0
 647 680 652 678 657 676 c 0
 792 613 855 485 855 339 c 0
 855 226 810 85 674 85 c 0
 611 85 574 104 536 157 c 1
 533 154 531 151 528 147 c 0
 514 130 498 114 480 101 c 0
 449 84 434 78 397 78 c 0
 313 78 251 139 235 220 c 0
 229 245 226 271 227 296 c 0
 227 361 254 445 312 479 c 0
 313 480 315 481 316 481 c 0
 327 488 340 494 352 498 c 0
 354 498 356 499 358 499 c 0
 371 503 385 505 399 505 c 0
 432 505 483 492 513 476 c 1
 513 478 514 479 514 481 c 0
 517 490 528 494 537 495 c 0
 562 499 586 499 610 498 c 0
 618 498 625 498 632 495 c 0
 640 491 644 482 644 473 c 0
 646 463 645 454 645 444 c 0
 645 400 644 355 648 311 c 0
 650 286 656 273 683 273 c 0
 691 273 698 274 704 276 c 0
 733 287 733 328 733 354 c 0
 734 382 731 411 723 438 c 0
 717 459 706 478 693 495 c 0
 634 580 551 616 448 616 c 0
 312 616 214 553 162 425 c 0
 142 375 135 318 140 264 c 0
 150 139 224 43 343 -1 c 0
 386 -14 432 -20 478 -20 c 0
 516 -20 555 -16 592 -9 c 0
 603 -7 614 -4 626 -3 c 0
 630 -3 635 -3 639 -4 c 0
 658 -9 658 -41 658 -60 c 0
 657 -70 655 -80 650 -89 c 0
384 361 m 0
 362 314 397 260 448 266 c 0
 459 268 469 273 478 280 c 0
 486 288 492 298 496 309 c 0
 500 321 500 335 496 348 c 0
 489 374 464 394 437 394 c 0
 415 394 394 382 384 361 c 0
EndSplineSet
Validated: 33
EndChar

StartChar: A
Encoding: 65 65 37
Width: 728
GlyphClass: 2
Flags: MW
HStem: -3 21G<529.5 554.5> -2 21G<153 190.5> 1 21G<463.5 465> 91 151 690 20G<248.5 308.5>
VStem: 10 708
LayerCount: 2
Fore
SplineSet
713 4 m 0x5c
 705 -2 564 -3 545 -3 c 0x9c
 514 -3 485 -2 465 1 c 0
 462 1 460 2 457 3 c 0
 453 4 450 7 448 11 c 0
 445 17 443 24 441 31 c 0
 440 38 439 45 438 52 c 0
 435 65 432 78 429 92 c 1
 308 91 l 1
 305 75 302 60 299 47 c 0
 298 39 297 30 294 23 c 0
 292 17 290 10 285 6 c 0
 282 3 276 2 272 1 c 0x3c
 237 -1 206 -2 175 -2 c 0
 131 -2 87 0 34 2 c 0
 29 2 24 2 19 3 c 0
 16 4 13 6 11 9 c 0
 9 14 10 20 12 26 c 0
 14 32 16 38 18 43 c 0
 82 257 143 459 206 672 c 1
 207 672 l 1
 215 702 229 710 268 710 c 0
 349 710 374 708 470 709 c 0
 502 709 519 696 526 665 c 0
 573 506 669 181 710 41 c 0
 711 39 711 38 712 37 c 0
 714 30 717 24 718 17 c 0
 718 12 717 6 713 4 c 0x5c
325 243 m 1
 409 243 l 1
 389 327 370 408 366 427 c 1
 363 426 l 1
 359 404 342 325 325 243 c 1
EndSplineSet
Validated: 8388641
Substitution2: "Sustituci+APMA-n +APoA-nica b+APoA-squeda 7 subtabla" ordfeminine
EndChar

StartChar: B
Encoding: 66 66 38
Width: 715
GlyphClass: 2
Flags: MW
HStem: -8 255<226.5 319> -5 21G -1 21G<66 66> 362 105<343 348> 559 149
VStem: 39 280<247 247 247 361 470 558>
LayerCount: 2
Fore
SplineSet
472 -4 m 0x3c
 399 -8 326 -8 253 -8 c 0x9c
 200 -8 148 -8 95 -5 c 0x5c
 85 -4 75 -3 66 -1 c 2
 60 2 l 2
 54 2 47 9 45 14 c 0
 43 19 41 25 41 31 c 0
 40 35 40 38 39 42 c 2
 39 651 l 2
 40 655 40 659 41 663 c 0
 41 669 43 675 45 680 c 0
 47 684 50 687 53 689 c 0
 56 690 58 691 60 692 c 0
 62 693 64 694 66 694 c 0
 75 697 85 698 95 699 c 0
 124 700 153 701 183 701 c 0
 241 706 299 708 356 708 c 0
 464 708 602 703 652 590 c 0
 660 575 664 557 664 539 c 0
 664 495 648 460 621 426 c 1
 620 425 l 2
 614 418 608 411 602 406 c 1
 602 405 l 1
 661 369 696 302 700 234 c 0
 702 198 697 161 683 127 c 0
 662 68 612 33 556 10 c 0
 529 1 501 -3 472 -4 c 0x3c
319 247 m 1
 334 246 350 246 365 248 c 0
 382 249 400 254 414 263 c 0
 425 272 428 278 431 292 c 0
 432 300 432 308 431 316 c 0
 430 322 428 327 425 332 c 0
 421 341 412 347 403 352 c 0
 386 359 367 361 348 362 c 0
 338 362 329 362 319 361 c 1
 319 247 l 1
319 470 m 1
 328 468 338 467 348 467 c 0
 379 467 413 477 416 514 c 1
 414 543 393 553 369 559 c 0
 352 561 335 561 319 558 c 1
 319 470 l 1
EndSplineSet
Validated: 8388641
EndChar

StartChar: C
Encoding: 67 67 39
Width: 715
GlyphClass: 2
Flags: MW
HStem: -9 21G<324 409> 511 209<367.5 481> 700 20G<367.5 432>
VStem: 14 680
LayerCount: 2
Fore
SplineSet
680 61 m 0xd0
 645 15 437 -9 381 -9 c 0
 267 -9 157 27 86 122 c 0
 85 123 81 128 81 129 c 2
 78 132 l 1
 49 173 30 222 22 271 c 0
 15 307 13 343 14 380 c 0
 19 484 62 591 150 652 c 0
 152 653 153 654 154 655 c 0
 230 708 322 720 413 720 c 0
 451 720 490 716 527 709 c 0
 530 708 532 708 535 707 c 0
 560 703 642 687 654 663 c 1
 654 662 l 2
 656 659 658 656 659 652 c 0
 661 644 662 636 663 627 c 0
 664 599 665 578 665 553 c 0
 666 541 666 528 665 516 c 0
 665 498 660 488 642 485 c 0
 631 484 620 487 609 489 c 0
 591 492 574 497 556 500 c 0
 527 506 496 511 466 511 c 0
 441 511 416 507 392 500 c 0
 360 488 340 463 336 428 c 0
 335 419 336 409 338 399 c 0
 345 364 368 338 402 327 c 0
 434 315 471 313 505 314 c 0
 542 315 578 322 614 327 c 0
 621 328 629 329 637 330 c 0
 647 331 659 331 669 327 c 0
 674 325 679 320 681 314 c 0
 685 305 686 295 687 286 c 0
 690 245 689 228 691 195 c 0
 693 176 694 157 694 137 c 0
 695 120 694 103 691 86 c 0
 689 77 686 68 680 61 c 0xd0
EndSplineSet
Validated: 8388641
EndChar

StartChar: D
Encoding: 68 68 40
Width: 700
GlyphClass: 2
Flags: MW
HStem: 0 21G<260 265.5> 514 197<320 342 248.5 353.5>
VStem: 39 258<280 511 280 658 280 658> 437 251
LayerCount: 2
Fore
SplineSet
197 -1 m 0
 180 -1 164 -2 148 -1 c 0
 130 0 112 0 95 2 c 0
 85 2 75 3 66 6 c 0
 64 6 62 7 60 8 c 0
 58 9 56 10 53 11 c 0
 50 13 47 16 45 20 c 0
 43 25 41 31 41 37 c 0
 40 41 40 45 39 49 c 2
 39 658 l 2
 40 662 40 665 41 669 c 0
 41 675 43 681 45 686 c 0
 48 692 54 696 60 699 c 0
 62 699 64 700 66 701 c 0
 90 706 117 707 142 707 c 0
 184 710 227 711 270 711 c 0
 414 711 560 688 635 548 c 0
 666 498 686 422 688 364 c 2
 688 351 l 2
 689 298 676 245 656 197 c 0
 642 164 622 133 597 106 c 2
 595 104 l 2
 532 41 466 17 377 6 c 0
 349 3 320 2 292 1 c 2
 291 1 l 2
 281 0 271 0 260 0 c 0
 239 -1 218 -1 197 -1 c 0
297 511 m 1
 297 280 l 1
 316 280 l 2
 329 281 342 283 355 287 c 0
 372 291 388 301 401 312 c 0
 416 327 426 346 432 365 c 0
 438 383 438 403 434 422 c 0
 425 478 382 514 325 514 c 0
 315 514 306 513 297 511 c 1
EndSplineSet
Validated: 33
EndChar

StartChar: E
Encoding: 69 69 41
Width: 593
GlyphClass: 2
Flags: MW
HStem: 1 280<296.5 513 437 513 437 513> 323 122<274 415 415 416 274 297.5 422.5 423 423 444 489 490 490 492 274 502 489 489> 490 216<409.5 433 433 434 434 485 485 507 507 509>
VStem: 40 234<52.5 323>
LayerCount: 2
Fore
SplineSet
331 1 m 2
 262 1 232 2 163 2 c 2
 87 2 l 2
 83 3 79 3 75 3 c 0
 69 4 63 6 58 8 c 0
 54 10 51 13 49 16 c 0
 48 17 44 27 44 28 c 0
 41 38 40 48 40 57 c 2
 39 658 l 2
 39 667 41 673 43 680 c 0
 43 682 44 685 46 687 c 0
 46 691 51 696 54 698 c 0
 59 702 67 704 74 705 c 0
 78 705 82 705 86 706 c 2
 162 706 l 2
 314 705 282 706 434 706 c 2
 510 706 l 2
 514 705 518 705 522 705 c 0
 529 704 536 702 542 698 c 2
 548 692 l 2
 548 690 549 688 550 687 c 0
 553 677 556 668 557 658 c 0
 562 611 560 597 556 545 c 0
 556 535 555 525 552 516 c 0
 552 514 551 512 550 511 c 0
 548 505 545 498 538 496 c 0
 533 493 527 492 521 491 c 0
 517 491 513 490 509 490 c 2
 507 490 l 2
 500 490 492 489 485 490 c 2
 433 490 l 2
 386 490 330 488 274 488 c 1
 274 445 l 1
 415 445 l 2
 416 445 417 446 418 445 c 2
 490 445 l 2
 494 445 497 445 501 444 c 0
 508 444 516 443 521 440 c 0
 524 440 525 438 527 437 c 0
 528 436 528 435 529 434 c 0
 530 433 531 431 532 430 c 0
 534 426 535 422 535 417 c 0
 539 396 539 378 537 355 c 0
 536 349 535 343 533 338 c 0
 532 337 532 336 531 335 c 0
 529 330 524 328 519 326 c 0
 514 325 508 324 502 323 c 2
 489 323 l 2
 481 322 474 322 467 322 c 0
 459 322 452 323 444 323 c 2
 423 323 l 2
 422 323 420 323 419 322 c 0
 418 322 417 323 416 323 c 0
 369 323 321 323 274 323 c 1
 274 282 l 1
 325 282 343 281 437 281 c 2
 513 281 l 2
 517 280 521 280 525 280 c 0
 532 279 540 277 545 273 c 0
 548 271 549 269 551 267 c 0
 552 265 553 263 553 262 c 0
 555 260 556 257 556 254 c 0
 558 247 559 240 560 233 c 0
 562 202 563 172 563 141 c 0
 563 115 562 90 560 56 c 0
 559 47 558 37 556 27 c 0
 555 25 555 24 554 22 c 0
 553 19 552 17 550 15 c 0
 548 12 545 9 541 7 c 0
 536 4 530 3 524 2 c 0
 520 2 517 2 513 1 c 2
 331 1 l 2
EndSplineSet
Validated: 33
EndChar

StartChar: F
Encoding: 70 70 42
Width: 581
GlyphClass: 2
Flags: MW
HStem: -1 21G<190.5 223> 188 186<406.5 407 407 478> 476 231<399.5 518 441 517>
VStem: 40 301<52.5 57> 478 47<188 221>
LayerCount: 2
Fore
SplineSet
293 2 m 0
 267 0 238 -1 208 -1 c 0
 173 -1 138 0 107 2 c 2
 87 2 l 2
 83 3 79 3 75 3 c 0
 69 4 63 6 58 8 c 0
 54 10 51 13 49 16 c 0
 49 17 48 18 48 19 c 1
 47 19 47 20 47 21 c 0
 46 22 45 24 45 26 c 0
 44 27 44 28 44 28 c 2
 41 38 40 48 40 57 c 2
 39 658 l 2
 39 667 41 673 43 680 c 0
 43 682 44 685 46 687 c 0
 46 691 51 696 54 698 c 0
 59 702 67 704 74 705 c 0
 78 705 82 705 86 706 c 2
 99 706 l 2
 125 708 155 708 185 708 c 0
 216 708 247 708 274 706 c 0
 319 706 344 707 441 707 c 2
 518 707 l 2
 521 706 525 706 529 705 c 0
 536 705 544 703 550 699 c 0
 552 697 554 695 555 693 c 0
 556 691 557 689 558 688 c 0
 559 685 560 683 561 680 c 0
 562 673 564 666 564 659 c 0
 569 600 568 590 565 531 c 0
 564 521 563 512 560 502 c 0
 560 500 559 498 558 497 c 0
 557 494 556 492 555 490 c 0
 553 487 550 484 546 482 c 0
 541 479 535 478 529 477 c 0
 525 477 521 476 517 476 c 2
 441 476 l 2
 358 476 452 474 369 475 c 0
 363 475 353 474 341 474 c 1
 341 374 l 1
 482 374 l 2
 485 374 489 374 493 373 c 0
 500 373 513 371 518 366 c 2
 521 363 l 2
 522 362 523 360 524 359 c 0
 525 355 527 350 527 346 c 0
 530 325 528 244 525 221 c 0
 525 215 524 209 521 204 c 0
 521 203 520 202 519 200 c 2
 516 197 l 2
 514 195 511 193 507 192 c 0
 502 190 496 190 491 189 c 2
 479 189 l 1
 479 188 478 188 478 188 c 1
 407 188 l 2
 406 188 405 188 405 189 c 1
 325 189 411 187 341 187 c 1
 341 49 l 2
 340 45 340 41 340 37 c 0
 339 30 337 23 333 17 c 2
 327 11 l 2
 325 10 324 10 322 9 c 0
 320 8 317 7 315 6 c 0
 308 4 300 3 293 2 c 0
EndSplineSet
Validated: 33
EndChar

StartChar: G
Encoding: 71 71 43
Width: 723
GlyphClass: 2
Flags: MW
HStem: -9 21G<324 409> -9 251<405.5 409> 281 124 700 20G<367.5 432>
VStem: 503 191<137 278 137 278>
LayerCount: 2
Fore
SplineSet
680 61 m 0x78
 645 15 437 -9 381 -9 c 0xb8
 267 -9 157 27 86 122 c 0
 85 123 81 128 81 129 c 2
 78 132 l 1
 49 173 30 222 22 271 c 0
 15 307 13 343 14 380 c 0
 19 484 62 591 150 652 c 0
 152 653 153 654 154 655 c 0
 230 708 322 720 413 720 c 0
 451 720 490 716 527 709 c 0
 530 708 532 708 535 707 c 0
 560 703 642 687 654 663 c 1
 654 662 l 2
 656 659 658 656 659 652 c 0
 661 644 662 636 663 627 c 0
 663 614 664 602 664 591 c 1
 665 591 l 1
 665 557 l 2
 666 541 666 525 665 509 c 0
 665 494 661 469 642 469 c 0
 631 467 620 470 609 473 c 0
 591 478 574 483 556 488 c 0
 537 493 517 497 498 500 c 2
 487 500 l 2
 468 501 449 499 430 495 c 0
 410 492 390 485 374 473 c 0
 351 457 337 425 334 398 c 0
 331 378 329 358 331 338 c 0
 337 282 376 242 435 242 c 0
 452 242 468 244 484 247 c 0
 491 248 497 249 503 250 c 1
 503 278 l 1
 488 279 472 280 456 281 c 0
 446 282 434 283 425 289 c 0
 421 291 419 294 417 298 c 0
 414 302 414 308 413 314 c 0
 411 333 413 352 416 372 c 0
 416 378 418 383 420 389 c 0
 422 393 425 396 428 398 c 0
 433 402 440 403 446 404 c 0
 458 406 470 405 482 405 c 0
 500 405 518 405 537 404 c 2
 600 404 l 2
 614 404 628 404 642 403 c 0
 650 403 659 402 668 401 c 0
 674 399 681 396 686 391 c 0
 690 386 693 380 695 374 c 0
 697 365 698 356 698 347 c 0
 698 319 697 292 695 265 c 0
 695 243 694 220 694 197 c 0
 694 185 693 174 693 162 c 0
 694 154 694 146 694 137 c 0
 695 120 694 103 691 86 c 0
 689 77 686 68 680 61 c 0x78
EndSplineSet
Validated: 8388641
EndChar

StartChar: H
Encoding: 72 72 44
Width: 753
GlyphClass: 2
Flags: MW
HStem: -3 21G<171.5 202.5> -2 21G<550.5 581.5> 0 21G<92.5 98> 1 21G<472 477> 176 264<334 381 381 387 334 419 334 381>
VStem: 39 295<48 176 440 655 655 655> 419 295<48 656 50 73 73 96 96 117 117 118 124 176 176 176 441 581 581 581 588 609 609 633 633 655 655 656 50 657 50 659>
LayerCount: 2
Fore
SplineSet
284 1 m 0x1e
 251 -2 219 -3 186 -3 c 0x8e
 157 -3 127 -2 98 0 c 0x2e
 87 0 77 2 67 4 c 0
 65 5 63 5 61 6 c 0
 59 7 56 8 54 9 c 0
 51 12 47 15 45 18 c 0x8e
 43 24 41 30 41 35 c 0
 40 39 40 43 40 47 c 2
 39 48 l 1
 39 655 l 2
 40 660 40 664 41 668 c 0
 41 674 43 679 45 685 c 0
 47 688 51 692 54 694 c 0
 56 695 65 699 67 699 c 0
 77 702 87 703 98 703 c 0
 131 705 163 706 196 706 c 0
 225 706 255 705 284 703 c 0
 294 703 305 701 314 697 c 0
 316 696 318 695 319 694 c 0
 322 693 324 691 326 689 c 0
 330 683 332 676 333 668 c 0
 333 665 334 661 334 657 c 2
 334 440 l 1
 381 440 l 2
 393 440 406 440 419 441 c 1
 419 581 l 1
 419 581 418 582 418 583 c 0
 419 585 419 586 419 588 c 2
 419 609 l 2
 419 617 418 625 419 633 c 0
 418 640 418 647 419 655 c 2
 419 657 l 2
 419 661 420 665 420 669 c 0
 421 674 422 680 425 686 c 0
 429 693 434 696 441 698 c 0
 443 699 445 700 447 700 c 0
 457 703 467 704 477 704 c 0
 510 706 542 707 575 707 c 0
 604 707 634 706 663 704 c 0
 671 704 678 703 686 701 c 0
 688 700 691 699 694 698 c 0
 695 697 697 696 699 695 c 0
 701 694 703 692 705 690 c 0
 709 684 711 677 712 669 c 0
 713 666 714 659 714 656 c 2
 714 50 l 1
 713 49 l 2
 713 45 713 41 712 37 c 0
 711 30 709 22 705 17 c 0
 703 14 701 13 699 11 c 0
 697 10 695 9 694 9 c 0
 691 7 688 6 686 6 c 0
 678 4 671 3 663 2 c 0
 630 -1 598 -2 565 -2 c 0x4e
 536 -2 506 -1 477 1 c 0x1e
 467 1 457 3 447 5 c 0
 445 6 443 6 441 7 c 0
 438 8 436 9 434 10 c 0
 430 13 427 16 425 19 c 0x4e
 422 25 421 31 420 36 c 0
 420 40 419 44 419 48 c 2
 419 50 l 2
 418 58 418 65 419 73 c 0
 418 80 419 88 419 96 c 2
 419 117 l 2
 419 119 419 120 418 122 c 0
 418 123 419 124 419 124 c 1
 419 176 l 1
 334 176 l 1
 334 48 l 2
 334 44 333 40 333 36 c 0
 332 29 330 21 326 16 c 0
 324 13 322 12 319 10 c 0
 318 9 316 9 314 8 c 0
 312 6 309 5 306 5 c 0
 299 3 291 2 284 1 c 0x1e
EndSplineSet
Validated: 8388609
EndChar

StartChar: I
Encoding: 73 73 45
Width: 358
GlyphClass: 2
Flags: MW
HStem: -1 21G<168.5 198> 689 20G<168.5 198>
VStem: 39 280<50 659>
LayerCount: 2
Fore
SplineSet
271 3 m 0
 242 1 213 -1 183 -1 c 0
 154 -1 124 1 95 2 c 0
 85 3 75 4 66 7 c 0
 64 7 62 8 60 9 c 0
 58 10 56 11 53 12 c 0
 50 14 47 17 45 21 c 0
 43 26 41 32 41 38 c 0
 40 42 40 46 39 50 c 2
 39 659 l 2
 40 663 40 666 41 670 c 0
 41 676 43 682 45 687 c 0
 47 692 54 699 60 699 c 2
 66 702 l 2
 75 704 85 705 95 706 c 0
 124 708 154 709 183 709 c 0
 213 709 242 708 271 705 c 0
 279 705 286 704 293 702 c 0
 295 701 298 700 300 699 c 0
 304 697 308 694 311 691 c 0
 315 685 317 677 318 670 c 0
 318 666 319 662 319 659 c 2
 319 50 l 2
 319 46 318 42 318 38 c 0
 317 31 315 23 311 18 c 0
 309 15 304 10 300 10 c 0
 298 8 295 7 293 7 c 0
 286 5 279 4 271 3 c 0
EndSplineSet
Validated: 1
EndChar

StartChar: J
Encoding: 74 74 46
Width: 583
GlyphClass: 2
Flags: MW
HStem: -13 21G<239 246 239 239> 489 216<80 157 83 84 84 106 106 130 130 155 155 157 157 158>
VStem: 294 259<331 487 487 487>
LayerCount: 2
Fore
SplineSet
352 3 m 0
 318 -8 282 -14 246 -13 c 2
 239 -13 l 2
 199 -14 157 -7 119 6 c 0
 94 15 69 28 47 43 c 1
 46 43 l 1
 41 47 36 50 31 54 c 0
 28 57 25 61 23 66 c 0
 21 74 21 84 21 93 c 0
 22 111 25 130 28 149 c 0
 30 168 33 188 36 207 c 2
 36 208 l 2
 38 224 40 240 43 256 c 0
 45 271 51 297 67 304 c 0
 75 306 84 306 92 305 c 0
 132 299 173 294 213 290 c 0
 224 289 236 287 248 287 c 0
 263 287 276 293 285 305 c 0
 291 312 293 322 294 331 c 2
 294 487 l 1
 246 488 198 489 158 489 c 0
 157 489 156 488 155 489 c 2
 130 489 l 2
 122 489 114 488 106 489 c 0
 99 488 91 488 84 489 c 2
 82 489 l 2
 78 489 74 489 70 490 c 0
 64 491 58 492 53 494 c 0
 49 496 46 499 44 503 c 2
 41 509 l 2
 40 511 39 513 39 515 c 0
 36 524 35 534 35 544 c 0
 31 595 29 610 34 657 c 0
 35 667 38 676 41 686 c 0
 42 687 43 689 43 690 c 0
 45 693 47 695 49 697 c 0
 55 701 62 702 69 703 c 0
 73 704 80 705 83 705 c 2
 157 705 l 2
 259 705 360 705 462 705 c 2
 504 705 l 1
 505 704 l 2
 509 704 513 704 517 703 c 0
 524 702 532 701 537 697 c 0
 540 695 541 693 543 691 c 2
 543 690 l 1
 545 688 l 2
 549 682 551 675 552 667 c 0
 552 664 553 660 553 656 c 2
 553 580 l 2
 553 475 552 372 553 264 c 0
 553 140 471 38 352 3 c 0
EndSplineSet
Validated: 33
EndChar

StartChar: K
Encoding: 75 75 47
Width: 746
GlyphClass: 2
Flags: MW
HStem: -3 21G<180.5 215.5> -1 21G<459 463 549.5 565.5 695.5 713> 0 21G<90 95 292 295.5> 1 21G
VStem: 39 300<47 50 50 67 67 95 95 116 123 174 562 579 585.5 586 586 607 607 635 635 652 652 655>
LayerCount: 2
Fore
SplineSet
292 0 m 0x28
 264 -2 232 -3 199 -3 c 0x88
 162 -3 126 -2 95 0 c 0x28
 85 0 75 2 66 4 c 0
 62 6 57 8 53 9 c 0
 50 12 47 15 45 18 c 0x88
 43 24 41 30 41 35 c 0
 40 39 40 43 39 47 c 2
 39 656 l 2
 40 660 40 664 41 668 c 0
 41 674 43 679 45 685 c 0
 47 688 50 692 53 694 c 0
 56 695 58 696 60 697 c 0
 62 698 64 699 66 699 c 0
 75 702 85 703 95 703 c 0
 122 705 155 706 187 706 c 0
 224 706 261 705 292 702 c 0
 299 701 306 700 313 698 c 0
 316 698 318 697 320 695 c 0
 322 695 324 694 325 693 c 0
 328 692 330 690 331 688 c 0
 336 682 337 674 338 667 c 0
 339 663 339 659 339 655 c 2
 339 652 l 2
 340 646 340 641 339 635 c 0
 340 626 339 616 339 607 c 2
 339 586 l 2
 339 585 339 583 340 582 c 0
 340 581 340 580 339 579 c 2
 339 562 l 1
 360 596 381 631 401 666 c 0
 406 674 410 683 416 690 c 0
 419 693 422 696 425 698 c 0
 432 702 441 704 450 704 c 0
 533 706 614 705 694 705 c 0
 702 705 710 705 717 702 c 0
 718 702 720 699 721 698 c 0
 724 693 717 685 713 680 c 0
 638 584 566 491 497 393 c 1
 559 293 708 52 723 27 c 0
 727 22 731 16 732 9 c 0
 733 8 733 6 732 5 c 0
 732 4 729 2 729 1 c 0x18
 726 -1 715 -1 711 -1 c 0
 680 -1 649 -2 618 -2 c 2
 592 -2 l 2
 581 -3 571 -1 560 -1 c 0
 539 -1 519 -2 498 -2 c 0
 486 -3 474 -3 463 -1 c 0x48
 455 -1 447 2 441 7 c 0
 432 15 427 26 421 36 c 0
 394 82 367 128 339 174 c 1
 339 123 l 2
 340 122 340 121 340 120 c 0
 339 119 339 117 339 116 c 2
 339 95 l 2
 339 85 340 76 339 67 c 0
 340 61 340 56 339 50 c 2
 339 47 l 2
 339 43 339 39 338 35 c 0
 337 28 336 20 331 14 c 0
 330 12 328 10 325 9 c 0
 323 7 316 4 313 3 c 0
 306 2 299 0 292 0 c 0x28
EndSplineSet
Validated: 8388641
EndChar

StartChar: L
Encoding: 76 76 48
Width: 573
GlyphClass: 2
Flags: MW
HStem: -1 21G<178.5 210> 3 318<74 514 389.5 438 438 514> 689 20G<174.5 198>
VStem: 40 264<650 655>
LayerCount: 2
Fore
SplineSet
280 2 m 0x70
 254 0 225 -1 195 -1 c 0xb0
 162 -1 128 0 99 2 c 2
 86 2 l 2
 82 2 78 3 74 3 c 0
 67 4 59 6 54 10 c 0
 51 11 49 14 48 16 c 0
 47 17 46 19 46 21 c 0
 44 23 43 25 43 28 c 0
 41 35 39 40 39 49 c 2
 40 650 l 2
 40 660 41 670 44 679 c 0
 44 680 44 681 45 682 c 0
 45 683 46 685 47 687 c 2
 47 687 47 688 48 689 c 0
 48 690 49 690 49 691 c 0
 51 695 54 698 58 700 c 0
 63 702 69 703 75 704 c 0
 79 705 83 705 87 705 c 2
 89 705 l 2
 95 706 101 706 107 706 c 0
 138 708 162 709 187 709 c 0
 209 709 231 708 257 706 c 0
 264 705 271 704 278 702 c 0
 280 702 283 701 285 699 c 0
 288 699 295 694 296 692 c 0
 300 686 302 678 303 671 c 0
 303 667 304 663 304 659 c 2
 304 586 l 2
 305 585 304 584 304 583 c 0
 304 467 305 438 305 321 c 1
 514 321 l 2
 518 321 522 320 526 320 c 0
 532 319 538 318 543 315 c 0
 550 313 553 306 555 300 c 0
 556 299 557 297 557 295 c 0
 560 285 561 276 562 266 c 0
 565 207 565 110 560 51 c 0
 560 44 559 36 557 29 c 0
 556 27 555 24 554 22 c 0
 552 18 549 14 546 11 c 0
 540 7 533 5 525 4 c 0
 522 4 518 4 514 3 c 2
 438 3 l 2
 341 3 329 2 280 2 c 0x70
EndSplineSet
Validated: 8388641
EndChar

StartChar: M
Encoding: 77 77 49
Width: 870
GlyphClass: 2
Flags: MW
HStem: -5 21G<156 180.5 689.5 714> -5 126<156 298> -2 21G<243 248 622 627> -1 21G<83.5 87 430 453>
VStem: 39 259<93 114 121 225 43 653> 572 259<46 47 47 47 93 114 114 114 121 231 231 231>
LayerCount: 2
Fore
SplineSet
243 -2 m 0x2c
 215 -4 192 -5 169 -5 c 0x8c
 143 -5 118 -4 87 -1 c 0
 80 -1 73 1 66 2 c 0
 63 3 60 4 58 5 c 0
 57 6 55 7 53 8 c 0
 51 9 49 11 47 13 c 0
 43 19 41 27 41 34 c 0
 40 38 40 42 40 45 c 0
 39 46 39 46 39 47 c 2
 39 653 l 2
 40 658 40 662 41 666 c 0
 41 673 43 681 47 687 c 0
 49 689 55 694 58 694 c 0
 60 696 63 697 66 697 c 0
 73 699 80 700 87 701 c 0
 164 707 241 705 315 705 c 0
 347 706 364 693 371 662 c 0
 387 608 411 524 435 444 c 1
 459 523 483 609 500 663 c 0
 506 694 524 706 555 706 c 0
 632 706 707 707 783 701 c 0
 790 701 798 699 804 698 c 0
 812 695 817 693 823 687 c 0
 827 681 829 673 830 666 c 0
 830 662 830 658 831 655 c 2
 831 46 l 2
 830 42 830 38 830 34 c 0
 829 27 827 19 823 13 c 0
 821 11 816 6 812 6 c 0
 810 4 807 3 804 3 c 0
 798 1 790 0 783 -1 c 0x1c
 752 -4 727 -5 701 -5 c 0x8c
 678 -5 655 -4 627 -2 c 0x2c
 617 -2 607 0 598 2 c 0
 596 3 594 3 592 4 c 2
 586 7 l 2
 582 10 579 13 577 16 c 0x8c
 575 22 573 28 573 33 c 0
 572 37 572 41 572 45 c 2
 572 47 l 2
 571 55 571 62 571 70 c 0
 571 77 571 85 572 93 c 2
 572 114 l 2
 571 116 571 117 571 119 c 0
 571 120 571 121 572 121 c 1x4c
 572 231 l 1
 558 173 542 102 531 53 c 0
 530 46 529 40 528 33 c 0
 526 26 524 19 521 13 c 0
 519 10 516 7 512 5 c 0
 509 4 507 4 504 3 c 0
 483 0 463 -1 443 -1 c 0x1c
 417 -1 392 1 366 4 c 0
 363 5 361 5 358 6 c 0
 354 8 351 11 350 14 c 0
 346 20 344 27 342 34 c 0
 341 41 340 47 339 54 c 0
 329 100 312 168 298 225 c 1
 298 121 l 2x4c
 299 120 299 119 299 118 c 0
 299 117 299 115 298 114 c 2
 298 93 l 2
 299 85 299 77 299 69 c 0
 299 62 299 54 298 47 c 2
 298 45 l 2
 298 41 298 37 297 33 c 0
 297 27 295 21 293 16 c 0x8c
 291 12 288 9 284 7 c 2
 278 4 l 2
 276 3 274 2 272 2 c 0
 263 -1 253 -2 243 -2 c 0x2c
EndSplineSet
Validated: 8388641
EndChar

StartChar: N
Encoding: 78 78 50
Width: 707
GlyphClass: 2
Flags: MW
HStem: -5 21G<149.5 174> -2 21G<83.5 87 243 248> 0 21G<620 623.5>
VStem: 39 259<46 47 93 115 122 245 43 655> 408 259<459 579 586 587 587 608 608 635 635 652 652 655 655 656>
LayerCount: 2
Fore
SplineSet
243 -2 m 0x58
 212 -4 187 -5 161 -5 c 0x98
 138 -5 115 -4 87 -2 c 0x58
 80 -2 73 0 66 1 c 0
 63 2 60 3 58 4 c 0
 57 5 55 6 53 7 c 0
 51 8 49 10 47 12 c 0
 43 18 41 26 41 33 c 0
 40 37 40 41 39 46 c 2
 39 655 l 2
 39 656 39 656 40 657 c 0
 40 660 40 664 41 668 c 0
 41 676 43 683 47 689 c 0
 49 691 51 693 53 694 c 0
 55 695 57 696 58 697 c 0
 66 701 78 703 87 703 c 0
 115 705 135 706 158 706 c 0
 186 706 214 705 241 700 c 0
 243 699 244 699 246 698 c 0
 248 697 251 696 253 694 c 0
 256 693 259 690 260 687 c 2
 408 459 l 1
 408 655 l 2
 408 659 409 663 409 667 c 0
 410 673 411 678 414 684 c 0
 416 687 419 691 422 693 c 0
 424 694 426 695 429 696 c 0
 431 697 432 698 434 698 c 0
 444 701 454 702 463 702 c 0
 494 704 520 705 546 705 c 0
 569 705 592 704 620 702 c 0
 627 702 634 700 641 699 c 0
 644 698 651 695 653 693 c 0
 655 692 658 690 659 688 c 0
 663 682 665 674 666 667 c 0
 667 663 667 659 667 656 c 2
 667 652 l 2
 667 647 668 641 667 635 c 0
 668 626 667 617 667 608 c 2
 667 587 l 2
 667 585 667 584 668 582 c 0
 668 581 668 580 667 579 c 2
 667 123 l 2
 668 122 668 121 668 120 c 0
 667 119 667 117 667 116 c 2
 667 95 l 2
 667 86 668 77 667 67 c 0
 668 62 667 56 667 50 c 2
 667 47 l 2
 667 43 667 39 666 35 c 0
 665 28 663 20 659 14 c 0
 658 12 655 10 653 9 c 0
 652 8 650 7 648 7 c 0
 646 5 644 4 641 4 c 0
 634 2 627 0 620 0 c 0x38
 574 -3 547 -4 495 -1 c 0
 485 0 475 1 466 4 c 0
 464 4 462 5 460 6 c 2
 454 9 l 2
 452 10 451 11 449 12 c 0
 449 13 448 13 447 14 c 0
 398 91 348 168 298 245 c 1
 298 122 l 2
 299 121 299 120 299 119 c 0
 299 118 299 116 298 115 c 2
 298 93 l 2
 299 85 299 78 299 70 c 0
 299 62 299 55 298 47 c 2
 298 45 l 2
 298 41 298 37 297 34 c 0
 297 28 295 22 293 16 c 0x98
 291 13 288 10 284 7 c 2
 278 4 l 2
 276 3 274 3 272 2 c 0
 263 0 253 -2 243 -2 c 0x58
EndSplineSet
Validated: 8388641
EndChar

StartChar: O
Encoding: 79 79 51
Width: 744
GlyphClass: 2
Flags: MW
HStem: -10 21G<319 402.5> 521 202 703 20G<360 444>
VStem: 14 717 472 257
LayerCount: 2
Fore
SplineSet
574 44 m 1xa0
 511 8 439 -10 366 -10 c 0
 272 -10 178 21 110 89 c 0
 45 152 20 249 15 337 c 0
 13 373 15 410 23 445 c 0
 58 582 152 694 298 717 c 0
 302 717 305 717 308 718 c 0
 329 721 349 723 371 723 c 0
 517 723 635 656 695 519 c 0
 696 515 698 511 699 507 c 0
 717 471 727 426 730 386 c 0
 732 361 731 336 728 311 c 0
 713 194 674 115 574 44 c 1xa0
268 380 m 0
 280 335 321 300 368 300 c 0
 402 300 434 319 453 347 c 0
 478 385 478 436 453 474 c 0
 439 496 416 514 390 520 c 0
 378 522 366 523 354 521 c 0xc0
 341 520 329 515 318 508 c 0
 284 489 266 451 264 413 c 0
 264 402 266 391 268 380 c 0
EndSplineSet
Validated: 8388641
Substitution2: "Sustituci+APMA-n +APoA-nica b+APoA-squeda 7 subtabla" ordmasculine
EndChar

StartChar: P
Encoding: 80 80 52
Width: 693
GlyphClass: 2
Flags: MW
HStem: -2 21G<187.5 222> 530 180
VStem: 39 258<382 530 382 671 382 671>
LayerCount: 2
Fore
SplineSet
293 1 m 0
 267 -1 237 -2 207 -2 c 0
 168 -2 128 -1 96 1 c 0
 86 2 76 3 67 5 c 0
 65 6 63 6 61 7 c 0
 55 10 49 14 46 20 c 0
 44 25 42 31 42 37 c 0
 41 40 41 44 41 48 c 0
 40 49 40 49 40 50 c 2
 40 208 l 2
 40 211 40 214 39 216 c 2
 39 671 l 2
 40 674 40 677 41 680 c 0
 41 684 43 689 45 693 c 0
 47 695 50 698 53 699 c 0
 56 700 58 701 60 702 c 0
 62 702 64 703 66 703 c 0
 75 705 85 706 95 706 c 0
 153 710 212 711 270 711 c 0
 377 711 491 706 581 641 c 0
 603 627 621 609 635 589 c 0
 664 554 686 497 688 452 c 2
 688 442 l 2
 689 403 676 363 656 327 c 0
 586 212 467 189 340 182 c 1
 340 124 l 2
 341 123 341 122 341 121 c 0
 341 120 340 118 340 117 c 2
 340 96 l 2
 341 87 341 77 341 68 c 0
 341 63 341 57 340 51 c 2
 340 48 l 2
 340 44 340 40 339 36 c 0
 338 29 337 21 332 15 c 0
 331 13 329 11 326 10 c 0
 325 9 323 8 322 8 c 0
 319 6 317 5 314 5 c 0
 307 3 300 2 293 1 c 0
297 530 m 1
 297 382 l 1
 303 382 309 382 316 383 c 0
 329 383 342 384 355 387 c 0
 386 391 418 408 432 437 c 0
 438 448 438 461 434 472 c 0
 432 481 428 490 421 497 c 0
 413 507 401 515 387 521 c 0
 373 526 357 530 340 531 c 0
 326 532 311 531 297 530 c 1
EndSplineSet
Validated: 33
EndChar

StartChar: Q
Encoding: 81 81 53
Width: 747
GlyphClass: 2
Flags: MW
HStem: -9 21G<400 409> -9 295<327 409> -4 21G<298 300> 413 310<344 385.5> 703 20G<299 420.5>
VStem: 14 717 472 258
LayerCount: 2
Fore
SplineSet
718 -46 m 0x32
 706 -48 646 -50 589 -50 c 0
 543 -50 500 -49 490 -46 c 0
 481 -44 470 -29 465 -22 c 0
 461 -16 457 -10 453 -4 c 1x32
 436 -7 418 -9 400 -9 c 0x82
 369 -11 338 -10 308 -5 c 0
 305 -4 302 -4 298 -4 c 0
 154 19 58 129 23 268 c 0
 15 303 13 340 15 376 c 0
 18 429 29 482 48 531 c 0
 101 659 232 723 366 723 c 0
 475 723 585 685 653 596 c 0
 699 541 720 472 728 401 c 0
 731 377 732 352 730 327 c 0
 727 295 716 235 699 206 c 0
 698 202 696 197 695 193 c 0
 680 160 661 130 638 103 c 1
 656 77 675 51 694 25 c 0
 703 12 712 0 721 -13 c 0
 725 -19 728 -24 730 -30 c 0
 731 -34 730 -38 727 -41 c 0
 725 -43 721 -45 718 -46 c 0x32
318 205 m 0
 325 200 334 196 343 194 c 1
 341 197 339 200 336 204 c 0
 326 218 317 233 309 249 c 0
 306 254 304 260 303 265 c 0
 302 269 303 273 305 277 c 0
 306 279 309 281 312 282 c 0
 317 285 324 286 330 286 c 0x50
 376 287 399 289 438 291 c 0
 440 291 443 291 445 290 c 0
 448 290 450 290 453 289 c 0
 457 288 460 285 463 282 c 0
 465 279 466 276 468 274 c 1
 476 305 471 339 453 366 c 0
 434 394 403 413 368 413 c 0
 320 413 280 378 268 332 c 0
 266 322 264 311 264 300 c 0
 266 262 284 224 318 205 c 0
EndSplineSet
Validated: 8388641
EndChar

StartChar: R
Encoding: 82 82 54
Width: 702
GlyphClass: 2
Flags: MW
HStem: -4 21G<633 637.5> -2 21G<171.5 197.5> 1 21G<258 261.5> 183 198<297 322> 525 185
VStem: 39 258<381 525 381 671 381 671>
LayerCount: 2
Fore
SplineSet
570 -6 m 0x9c
 548 -6 491 -7 469 -5 c 0
 438 -5 413 -4 400 28 c 0
 393 43 386 57 379 71 c 0
 368 92 357 113 347 134 c 0
 339 151 331 167 322 183 c 1
 317 183 311 183 305 182 c 1
 305 124 l 2
 305 123 306 122 305 121 c 2
 305 96 l 2
 305 86 306 77 305 68 c 2
 305 48 l 2
 305 44 304 40 304 36 c 0
 303 29 301 21 297 15 c 0
 296 13 293 11 291 10 c 0
 290 9 288 8 286 7 c 0
 284 6 281 5 279 4 c 0
 272 3 265 1 258 1 c 0x3c
 232 -1 209 -2 186 -2 c 0x5c
 157 -2 128 -1 96 1 c 0x3c
 86 2 76 3 67 5 c 0
 65 6 63 6 61 7 c 0
 55 10 49 14 46 20 c 0
 44 25 42 31 42 37 c 0
 41 40 41 44 41 48 c 0
 40 49 40 49 40 50 c 2
 40 208 l 2
 40 211 40 214 39 216 c 2
 39 671 l 2
 40 674 40 677 41 680 c 0
 41 684 43 689 45 693 c 0
 47 695 50 698 53 699 c 0
 56 700 58 701 60 702 c 0
 62 702 64 703 66 703 c 0
 75 705 85 706 95 706 c 0
 153 710 212 711 270 711 c 0
 377 711 491 706 581 641 c 0
 603 627 621 609 635 589 c 0
 664 554 686 497 688 452 c 2
 688 442 l 2
 689 403 676 363 656 327 c 0
 634 290 603 259 566 237 c 1
 585 198 602 159 622 121 c 0
 628 109 634 97 640 86 c 0
 647 72 654 59 660 45 c 0
 663 39 667 33 669 27 c 0
 671 23 672 18 672 14 c 0
 672 11 672 9 671 7 c 0
 668 3 664 0 660 -1 c 0
 651 -4 642 -4 633 -4 c 0
 612 -5 591 -5 570 -6 c 0x9c
297 525 m 1
 297 381 l 1
 316 381 l 2
 359 384 410 390 432 434 c 0
 438 446 438 458 434 469 c 0
 429 492 409 508 387 516 c 0
 373 522 357 525 340 526 c 0
 326 528 311 527 297 525 c 1
EndSplineSet
Validated: 8388641
EndChar

StartChar: S
Encoding: 83 83 55
Width: 654
GlyphClass: 2
Flags: MW
HStem: -7 21G -7 295 510 211<333 458> 701 20G<333 384.5>
VStem: 24 611<130.5 226.5>
LayerCount: 2
Fore
SplineSet
358 -7 m 0x68
 312 -11 264 -7 218 1 c 0
 185 7 144 16 112 25 c 0
 94 31 76 36 58 45 c 0
 50 49 43 55 37 62 c 0
 32 70 29 79 27 88 c 0
 24 104 24 122 24 139 c 0
 25 158 26 177 27 196 c 0
 29 230 28 246 31 287 c 0
 32 297 33 307 36 316 c 0
 38 321 42 326 47 328 c 0
 56 332 67 332 77 331 c 0
 78 331 78 331 79 331 c 0
 83 330 87 329 92 327 c 0
 94 327 97 326 99 325 c 0
 118 321 145 313 164 307 c 0
 180 303 195 299 211 296 c 0
 225 292 240 290 254 288 c 0
 267 287 281 286 293 290 c 0
 303 293 312 302 310 312 c 0
 305 337 257 354 237 360 c 0
 215 368 193 375 171 382 c 0
 150 388 130 395 111 405 c 0
 70 422 47 455 35 497 c 0
 32 512 31 528 33 543 c 0
 34 558 38 573 45 586 c 0
 55 613 71 634 94 652 c 0
 173 715 285 721 381 721 c 0
 388 721 394 721 400 720 c 0
 440 719 568 699 600 670 c 0
 605 665 609 659 610 652 c 0
 613 644 614 636 614 628 c 0
 616 599 616 579 617 553 c 0
 617 541 617 529 616 517 c 0
 616 502 612 486 594 486 c 0
 583 485 571 487 560 489 c 0
 522 497 475 510 441 510 c 0
 427 510 408 507 398 497 c 0
 388 488 391 473 401 464 c 0
 411 456 422 452 434 447 c 0
 511 420 571 387 613 313 c 0
 618 304 621 294 625 285 c 0
 632 262 635 238 635 215 c 0
 635 195 631 175 625 156 c 0
 591 49 487 -2 380 -8 c 0
 373 -8 365 -8 358 -7 c 0x68
EndSplineSet
Validated: 8388641
EndChar

StartChar: T
Encoding: 84 84 56
Width: 603
GlyphClass: 2
Flags: MW
HStem: -1 21G<292.5 327.5> 474 231<42.5 283 44 47 47 62 62 85 85 107 107 109 109 150 44 450 44 500>
VStem: 150 300<50 51 96 116 123 474>
LayerCount: 2
Fore
SplineSet
403 2 m 0
 376 0 344 -1 311 -1 c 0
 274 -1 237 0 206 2 c 0
 196 3 186 4 177 6 c 2
 171 9 l 2
 167 9 158 17 156 21 c 0
 154 26 152 32 152 37 c 0
 151 41 151 45 151 49 c 2
 150 50 l 1
 150 474 l 1
 109 474 l 2
 108 474 107 473 107 474 c 1
 85 474 l 2
 77 474 70 473 62 474 c 0
 57 473 52 473 47 474 c 2
 44 474 l 2
 41 474 38 474 35 475 c 0
 29 475 22 477 17 480 c 0
 16 481 11 487 11 489 c 0
 9 491 9 493 8 495 c 0
 7 501 5 507 5 513 c 0
 1 562 1 610 4 659 c 0
 5 667 6 675 8 683 c 0
 8 685 9 686 10 688 c 0
 10 690 11 691 12 693 c 0
 14 696 17 699 20 700 c 0
 24 702 29 703 34 704 c 0
 37 704 41 705 44 705 c 2
 283 705 l 2
 354 705 424 706 494 706 c 2
 558 706 l 2
 562 705 565 705 568 705 c 0
 573 704 578 703 583 701 c 0
 586 700 588 697 590 694 c 0
 592 691 593 687 595 684 c 0
 597 676 598 668 598 660 c 0
 601 612 602 563 598 514 c 0
 598 508 597 502 595 496 c 0
 594 494 594 492 593 490 c 0
 592 489 591 488 590 486 c 0
 589 484 588 483 586 481 c 0
 581 478 575 476 569 476 c 0
 565 475 562 475 559 475 c 2
 556 475 l 2
 551 474 546 474 541 474 c 0
 534 474 526 474 518 475 c 2
 500 474 l 1
 450 474 l 1
 450 123 l 1
 451 123 451 122 451 121 c 0
 451 119 451 118 450 116 c 2
 450 96 l 2
 451 87 451 78 451 69 c 0
 451 63 451 57 450 51 c 2
 450 48 l 2
 450 44 450 41 449 37 c 0
 448 30 447 22 442 17 c 0
 441 14 439 13 436 11 c 0
 435 10 433 10 432 9 c 0
 427 5 409 3 403 2 c 0
EndSplineSet
Validated: 33
EndChar

StartChar: U
Encoding: 85 85 57
Width: 684
GlyphClass: 2
Flags: MW
HStem: -13 21G<340 347 340 340>
VStem: 29 264 395 259<331 580 587 608 608 612 653 655 655 656>
LayerCount: 2
Fore
SplineSet
453 3 m 0
 419 -8 383 -14 347 -13 c 2
 340 -13 l 2
 299 -14 258 -7 220 6 c 0
 120 43 40 125 34 236 c 1
 23 350 33 464 33 579 c 2
 33 653 l 2
 34 658 34 662 35 666 c 0
 35 671 37 677 39 682 c 0
 41 687 48 694 54 694 c 2
 60 697 l 2
 69 699 79 700 89 701 c 0
 121 703 148 704 175 704 c 0
 197 704 219 703 245 701 c 0
 252 700 259 699 266 697 c 0
 269 697 271 696 274 694 c 0
 277 694 283 689 285 687 c 0
 289 681 290 673 291 666 c 0
 292 662 292 658 292 655 c 0
 293 654 293 654 293 653 c 2
 293 326 l 2
 293 324 294 322 294 320 c 0
 295 314 298 309 302 305 c 0
 308 298 316 292 325 289 c 0
 332 287 339 286 346 286 c 0
 362 286 376 292 386 305 c 0
 392 312 394 322 395 331 c 2
 395 580 l 2
 394 581 394 581 394 582 c 0
 395 584 395 585 395 587 c 2
 395 608 l 2
 395 616 394 623 394 631 c 0
 394 639 394 646 395 653 c 2
 395 655 l 2
 395 659 395 663 396 667 c 0
 397 673 398 678 400 684 c 0
 402 687 405 691 409 693 c 2
 415 696 l 2
 417 697 419 697 421 698 c 0
 430 700 440 701 450 702 c 0
 483 704 510 705 537 705 c 0
 559 705 580 704 606 702 c 0
 613 701 621 700 628 698 c 0
 634 698 642 692 646 688 c 0
 650 682 652 675 653 667 c 0
 653 664 653 660 654 656 c 2
 654 580 l 2
 654 475 653 372 654 264 c 0
 654 139 572 39 453 3 c 0
EndSplineSet
Validated: 33
EndChar

StartChar: V
Encoding: 86 86 58
Width: 730
GlyphClass: 2
Flags: MW
HStem: -2 21G<261.5 301 269 461> 688 20G<27.5 30 700 702> 690 20G<145.5 187.5 542.5 584.5>
VStem: 11 708<691.5 695.5>
LayerCount: 2
Fore
SplineSet
496 3 m 0xd0
 488 0 476 -2 461 -2 c 0
 397 -2 333 -2 269 -2 c 0
 254 -2 242 0 234 3 c 0
 233 4 232 4 231 4 c 0
 216 11 207 23 203 44 c 0
 159 193 71 490 27 641 c 0
 24 649 22 657 19 665 c 2
 13 683 l 2
 12 686 11 690 11 693 c 0
 11 698 13 703 16 705 c 0
 20 708 25 708 30 708 c 0xd0
 73 709 123 710 168 710 c 0
 207 710 246 709 285 706 c 0
 290 706 295 704 298 701 c 0
 303 697 306 691 308 685 c 0
 310 677 311 669 313 661 c 0
 327 586 350 471 365 398 c 1
 380 471 402 586 417 661 c 0
 418 669 420 677 422 685 c 0
 424 691 427 697 431 701 c 0
 435 704 440 706 445 706 c 0
 484 709 523 710 562 710 c 0xb0
 607 710 656 709 700 708 c 0
 704 708 710 708 714 705 c 0
 717 703 719 698 719 693 c 0
 719 686 713 671 710 665 c 0
 708 657 705 649 703 641 c 0
 658 490 571 193 527 44 c 0
 522 23 514 11 499 4 c 0
 498 4 497 4 496 3 c 0xd0
EndSplineSet
Validated: 8388609
EndChar

StartChar: W
Encoding: 87 87 59
Width: 977
GlyphClass: 2
Flags: MW
HStem: 0 21G<228 245 228 228 245 341 341 370> 1 21G<607 636 607 607 636 732 732 749>
VStem: 10 957
LayerCount: 2
Fore
SplineSet
341 0 m 2xa0
 320 -1 274 0 245 0 c 2
 228 0 l 2xa0
 202 3 190 13 183 38 c 0
 123 258 80 433 18 659 c 1
 12 677 l 2
 10 682 9 688 11 693 c 0
 13 696 16 698 19 699 c 0
 24 700 29 700 34 700 c 0
 83 702 128 704 172 704 c 0
 209 704 245 703 284 700 c 0
 289 699 294 698 297 695 c 0
 302 691 305 685 307 679 c 0
 309 671 310 663 312 655 c 0
 322 601 337 526 350 461 c 1
 392 650 l 2
 393 657 394 664 396 671 c 0
 398 684 404 700 420 700 c 0
 445 703 469 705 495 705 c 0
 515 705 535 704 557 701 c 0
 560 701 563 700 565 699 c 0
 575 696 580 681 581 672 c 0
 583 665 584 658 585 651 c 0
 597 597 613 525 626 462 c 1
 639 527 654 602 665 656 c 0
 667 664 668 672 670 680 c 0
 672 686 675 692 679 696 c 0
 683 699 688 700 693 701 c 0
 732 704 768 705 805 705 c 0
 849 705 894 703 943 701 c 0
 948 701 953 701 958 700 c 0
 961 699 964 697 965 694 c 0
 968 689 967 683 965 678 c 0
 963 672 961 666 958 660 c 0
 897 434 854 259 794 39 c 0
 787 14 775 4 749 1 c 2
 732 1 l 2
 702 1 657 0 636 1 c 2
 607 1 l 2x60
 576 0 558 13 552 44 c 0
 535 99 513 175 489 255 c 1
 464 174 442 99 425 43 c 0
 419 12 401 -1 370 0 c 2
 341 0 l 2xa0
600 329 m 1
 599 328 599 328 599 326 c 1
 599 326 599 327 600 329 c 1
EndSplineSet
Validated: 8388641
EndChar

StartChar: X
Encoding: 88 88 60
Width: 673
GlyphClass: 2
Flags: MW
HStem: 0 21G<104 138> 689 20G<102 136>
VStem: 7 660
LayerCount: 2
Fore
SplineSet
233 5 m 0
 194 2 157 0 119 0 c 0
 89 0 59 1 30 3 c 0
 27 3 23 3 19 4 c 0
 13 6 8 11 7 18 c 0
 6 27 9 37 12 45 c 0
 14 50 16 54 18 59 c 0
 18 60 18 60 18 61 c 0
 63 154 112 259 157 353 c 1
 112 448 64 553 18 648 c 0
 18 649 18 650 18 650 c 2
 16 655 14 659 12 664 c 0
 9 672 6 682 7 691 c 0
 8 698 13 703 19 705 c 0
 23 706 27 706 30 707 c 0
 58 708 87 709 117 709 c 0
 155 709 194 708 233 705 c 0
 240 704 246 703 253 701 c 0
 255 700 258 699 260 698 c 0
 262 697 263 697 264 696 c 0
 267 694 269 693 270 690 c 0
 272 688 273 685 274 683 c 2
 334 540 l 1
 354 588 374 637 395 685 c 0
 397 690 399 693 402 695 c 0
 404 696 406 697 408 698 c 0
 410 699 411 699 413 700 c 0
 421 702 430 703 438 704 c 0
 501 708 564 705 626 706 c 0
 635 706 645 706 654 704 c 0
 659 703 664 699 666 694 c 0
 668 687 666 680 664 673 c 0
 663 668 661 662 659 657 c 0
 658 655 657 653 656 651 c 0
 656 650 656 649 655 647 c 0
 612 556 559 449 515 356 c 1
 560 262 611 156 655 62 c 0
 656 61 656 60 656 59 c 0
 657 56 658 54 659 52 c 0
 661 47 663 41 664 36 c 0
 666 29 668 22 666 15 c 0
 664 10 659 6 654 5 c 0
 645 3 635 3 626 3 c 0
 564 5 501 1 438 5 c 0
 430 6 421 7 413 9 c 0
 411 10 410 11 408 11 c 0
 406 12 404 13 402 15 c 0
 399 16 397 19 395 23 c 0
 374 72 354 121 334 169 c 1
 274 27 l 2
 273 24 272 21 270 19 c 0
 269 17 267 15 264 13 c 0
 263 13 262 12 260 11 c 0
 258 10 255 9 253 8 c 0
 246 6 240 5 233 5 c 0
EndSplineSet
Validated: 33
EndChar

StartChar: Y
Encoding: 89 89 61
Width: 648
GlyphClass: 2
Flags: MW
HStem: 0 21G<323.5 358> 689 20G<89 123>
VStem: 178 297<50 52 47 52 97 117 47 118 47 118.5 125 286 286 286>
LayerCount: 2
Fore
SplineSet
428 3 m 0
 402 1 373 0 343 0 c 0
 304 0 265 1 232 3 c 0
 223 4 213 5 204 7 c 0
 202 8 200 8 198 9 c 0
 196 10 194 11 192 13 c 0
 188 15 185 18 183 21 c 0
 181 27 180 32 179 38 c 0
 178 42 178 46 178 50 c 2
 178 52 l 2
 177 59 177 66 177 74 c 0
 177 81 177 89 178 97 c 2
 178 118 l 2
 178 119 177 121 177 122 c 0
 177 123 177 124 178 125 c 2
 178 286 l 1
 120 407 63 528 5 648 c 1
 5 650 l 2
 3 655 1 659 -1 664 c 0
 -4 672 -7 682 -6 691 c 0
 -5 698 0 703 6 705 c 0
 10 706 14 706 17 707 c 0
 45 708 74 709 104 709 c 0
 142 709 181 708 220 705 c 0
 227 704 233 703 240 701 c 0
 242 700 245 699 247 698 c 0
 249 697 250 697 251 696 c 0
 254 694 256 693 257 690 c 0
 259 688 260 685 261 683 c 2
 321 540 l 1
 341 588 361 637 382 685 c 1
 382 686 l 2
 384 690 386 693 389 695 c 2
 395 698 l 2
 397 699 398 699 400 700 c 0
 408 702 417 703 425 704 c 0
 488 708 551 705 613 706 c 0
 622 706 632 706 641 704 c 0
 646 703 651 699 653 694 c 0
 655 687 653 680 651 673 c 0
 650 668 648 662 646 657 c 2
 643 651 l 2
 643 650 643 649 642 647 c 0
 587 530 531 413 475 296 c 1
 475 124 l 2
 476 123 476 122 476 122 c 2
 476 120 475 118 475 117 c 2
 475 96 l 2
 475 87 476 78 475 69 c 0
 476 64 476 58 475 52 c 2
 475 49 l 2
 475 45 475 41 474 38 c 0
 473 30 472 23 467 17 c 0
 466 15 464 13 461 12 c 0
 460 11 458 10 457 10 c 0
 454 8 452 7 449 7 c 0
 442 5 435 4 428 3 c 0
EndSplineSet
Validated: 33
Substitution2: "'ss01' Estilo 1 en Latino b+APoA-squeda 5 subtabla" Y.ss01
AlternateSubs2: "'salt' Alternativas estil+AO0A-sticas en Latino b+APoA-squeda 4 subtabla" Y.ss01
Substitution2: "'aalt' Acceder a todas las alternativas en Latino b+APoA-squeda 0 subtabla" Y.ss01
EndChar

StartChar: Z
Encoding: 90 90 62
Width: 608
GlyphClass: 2
Flags: MW
HStem: 1 308<297.5 451 372 451 451 529> 490 216<75 76 76 78 78 102 102 157>
VStem: 21 562<128 134.5>
LayerCount: 2
Fore
SplineSet
335 1 m 2
 260 1 228 2 154 2 c 2
 72 2 l 2
 68 3 64 3 60 3 c 0
 54 4 47 6 42 8 c 0
 38 10 34 13 32 16 c 0
 31 18 30 21 29 23 c 0
 28 25 27 27 26 28 c 0
 24 38 22 48 22 57 c 2
 22 121 l 2
 22 123 22 126 21 128 c 0
 21 141 21 154 24 166 c 0
 25 172 29 178 33 183 c 0
 37 187 41 192 45 196 c 0
 118 294 191 391 264 489 c 1
 226 489 190 490 157 490 c 2
 102 490 l 2
 94 489 86 490 78 490 c 2
 76 490 l 2
 72 490 67 491 63 491 c 0
 57 492 51 493 45 496 c 0
 41 497 38 500 35 504 c 0
 34 506 33 508 32 511 c 0
 31 512 30 514 30 516 c 0
 27 525 26 535 25 545 c 0
 21 597 19 611 25 658 c 0
 26 665 27 672 29 679 c 0
 29 682 30 684 32 687 c 0
 33 688 34 690 35 692 c 0
 36 694 38 696 40 698 c 0
 46 702 55 704 62 705 c 0
 67 705 71 705 75 706 c 2
 157 706 l 2
 320 706 285 705 448 706 c 2
 530 706 l 2
 534 705 538 705 542 705 c 0
 550 704 566 700 570 692 c 0
 572 688 574 684 576 680 c 0
 577 677 578 674 578 672 c 2
 578 671 l 2
 579 670 579 669 579 668 c 0
 580 664 580 659 581 655 c 0
 582 644 582 632 582 620 c 0
 583 610 584 600 582 590 c 0
 579 571 555 543 542 529 c 0
 479 446 372 309 372 309 c 1
 372 310 450 309 451 309 c 2
 530 309 l 2
 534 309 538 308 542 308 c 0
 550 307 566 303 570 295 c 0
 572 291 574 287 576 283 c 0
 578 276 579 268 580 261 c 0
 582 231 583 172 583 141 c 0
 583 115 582 90 580 56 c 0
 579 47 578 37 575 27 c 0
 575 25 574 24 573 22 c 0
 572 19 571 17 570 15 c 0
 561 6 555 4 542 2 c 0
 538 2 533 2 529 1 c 2
 335 1 l 2
EndSplineSet
Validated: 37
EndChar

StartChar: bracketleft
Encoding: 91 91 63
Width: 393
GlyphClass: 2
Flags: MW
HStem: -170 154<134.5 298 145 298> 557 159
VStem: 38 205<54 225>
LayerCount: 2
Fore
SplineSet
284 -170 m 0
 238 -171 192 -171 145 -170 c 0
 124 -170 88 -170 70 -158 c 0
 62 -154 56 -148 53 -140 c 0
 44 -122 43 -101 43 -81 c 0
 42 -52 43 -22 43 7 c 0
 42 39 41 70 40 101 c 0
 39 138 38 174 38 211 c 0
 38 239 38 266 39 294 c 0
 40 333 41 372 42 412 c 0
 43 441 44 470 44 499 c 0
 45 531 44 563 43 595 c 0
 43 620 42 646 44 672 c 0
 45 681 46 689 50 697 c 0
 53 704 60 709 67 712 c 0
 76 714 86 715 96 715 c 0
 117 716 138 716 158 716 c 0
 210 716 262 716 313 711 c 0
 326 709 340 707 353 703 c 0
 370 694 375 685 375 665 c 0
 376 651 376 637 375 624 c 0
 375 612 373 599 369 587 c 0
 366 580 360 574 354 570 c 0
 344 565 333 563 322 562 c 0
 305 561 288 561 272 557 c 0
 250 549 246 533 244 512 c 0
 243 497 243 482 242 467 c 0
 241 446 241 425 240 403 c 0
 237 303 241 203 243 103 c 0
 243 87 243 70 243 54 c 0
 244 40 245 26 248 13 c 0
 249 7 251 1 255 -4 c 0
 259 -8 263 -11 268 -12 c 0
 278 -15 288 -16 298 -16 c 0
 313 -17 328 -16 343 -19 c 0
 358 -21 367 -24 375 -38 c 0
 379 -46 380 -55 381 -63 c 0
 383 -86 384 -109 381 -131 c 0
 381 -137 379 -144 376 -150 c 0
 374 -155 369 -160 364 -162 c 0
 357 -166 347 -167 339 -168 c 0
 321 -169 302 -170 284 -170 c 0
EndSplineSet
Validated: 33
EndChar

StartChar: backslash
Encoding: 92 92 64
Width: 336
GlyphClass: 2
Flags: MW
HStem: -166 21G<337 339.5>
VStem: 15 335
LayerCount: 2
Fore
SplineSet
199 -167 m 0
 192 -168 175 -168 171 -162 c 0
 168 -156 166 -150 164 -144 c 0
 164 -141 163 -137 163 -134 c 0
 121 113 69 391 26 638 c 0
 26 641 25 643 24 646 c 0
 22 656 20 665 18 674 c 0
 17 680 13 695 16 700 c 0
 18 703 22 704 26 704 c 0
 53 705 79 703 106 703 c 0
 124 703 143 705 162 705 c 0
 168 706 186 707 191 703 c 0
 192 702 193 701 194 699 c 2
 194 699 195 696 195 695 c 0
 197 688 198 681 199 674 c 0
 199 672 200 669 200 666 c 0
 246 410 301 121 347 -136 c 0
 348 -140 349 -144 350 -148 c 0
 351 -152 350 -156 349 -159 c 0
 347 -163 342 -166 337 -166 c 0
 310 -167 283 -165 257 -165 c 0
 238 -165 218 -167 199 -167 c 0
EndSplineSet
Validated: 33
EndChar

StartChar: bracketright
Encoding: 93 93 65
Width: 393
GlyphClass: 2
Flags: MW
HStem: -170 154<95 109 95 248> 562 154 696 20G<209 245.5>
VStem: 150 205<54 225 95 225>
LayerCount: 2
Fore
SplineSet
248 -170 m 0xb0
 202 -171 155 -171 109 -170 c 0
 91 -170 73 -169 55 -168 c 0
 46 -167 36 -166 29 -162 c 0
 24 -160 20 -155 17 -150 c 0
 14 -144 12 -137 12 -131 c 0
 9 -109 10 -86 12 -63 c 0
 13 -55 14 -46 19 -38 c 0
 25 -24 37 -21 51 -19 c 0
 65 -16 80 -17 95 -16 c 0
 105 -16 116 -15 125 -12 c 0
 138 -9 142 2 146 13 c 0
 149 26 149 40 150 54 c 0
 150 70 150 87 150 103 c 0
 152 203 156 303 153 403 c 0
 153 439 151 476 149 512 c 0
 147 533 143 549 121 557 c 0
 105 561 88 561 71 562 c 0xd0
 53 564 32 569 24 587 c 0
 20 599 18 612 18 624 c 0
 17 637 17 651 18 665 c 0
 19 674 19 684 25 692 c 0
 29 697 35 700 41 703 c 0
 53 707 67 709 80 711 c 0
 132 716 183 716 235 716 c 0
 256 716 276 716 297 715 c 0
 307 715 317 714 326 712 c 0
 333 709 340 704 343 697 c 0
 347 689 348 681 349 672 c 0
 351 646 350 620 350 595 c 0
 349 563 349 531 349 499 c 0
 349 470 350 441 351 412 c 0
 352 372 353 333 354 294 c 0
 355 266 355 239 355 211 c 0
 355 143 354 74 350 7 c 0
 350 -22 351 -52 350 -81 c 0
 350 -97 349 -126 340 -140 c 0
 337 -148 331 -154 324 -158 c 0
 303 -170 272 -170 248 -170 c 0xb0
EndSplineSet
Validated: 8388641
EndChar

StartChar: asciicircum
Encoding: 94 94 66
Width: 634
GlyphClass: 2
Flags: MW
HStem: 352 354 532 174
VStem: 11 613
LayerCount: 2
Fore
SplineSet
475 352 m 0xa0
 466 351 457 352 449 355 c 0
 441 358 434 363 429 370 c 0
 421 378 415 388 409 398 c 0
 388 433 373 470 352 504 c 0
 346 514 339 524 329 530 c 0
 326 532 321 533 317 532 c 0
 314 531 311 529 308 527 c 0
 299 519 291 508 284 498 c 0
 269 474 254 450 238 427 c 0
 226 409 214 391 198 377 c 0
 188 368 175 362 162 360 c 0
 153 358 144 357 134 357 c 0
 116 356 98 356 80 356 c 0
 62 355 45 354 27 356 c 0
 24 356 20 357 16 358 c 0
 14 360 12 363 11 366 c 0
 8 372 16 386 20 392 c 0
 33 414 48 434 61 454 c 0
 82 486 102 519 120 552 c 0
 141 589 164 624 188 659 c 0
 210 686 225 702 262 704 c 0
 283 706 305 706 327 706 c 0x60
 347 706 367 707 387 704 c 0
 394 703 400 700 406 696 c 0
 413 690 419 682 425 674 c 0
 437 657 448 640 460 623 c 0
 474 603 487 585 501 565 c 0
 542 508 581 449 615 388 c 0
 618 384 624 372 624 368 c 0
 624 366 622 363 620 362 c 0
 617 359 603 359 599 359 c 0
 578 359 558 359 537 358 c 0
 516 356 496 353 475 352 c 0xa0
EndSplineSet
Validated: 8388641
EndChar

StartChar: underscore
Encoding: 95 95 67
Width: 627
GlyphClass: 2
Flags: MW
HStem: -190 153
VStem: 0 627
LayerCount: 2
Fore
SplineSet
515 -192 m 0
 391 -193 266 -189 141 -190 c 0
 114 -190 87 -191 60 -190 c 0
 51 -190 43 -189 35 -187 c 0
 28 -186 22 -183 19 -180 c 0
 14 -176 12 -170 10 -165 c 0
 8 -159 6 -152 6 -145 c 0
 3 -126 0 -106 0 -86 c 0
 0 -52 22 -47 51 -41 c 0
 78 -38 107 -37 134 -36 c 0
 187 -35 239 -36 291 -36 c 0
 344 -37 397 -37 450 -37 c 0
 473 -37 496 -37 519 -37 c 0
 536 -37 553 -37 569 -39 c 0
 588 -41 600 -46 611 -62 c 0
 619 -76 622 -91 624 -106 c 0
 627 -121 628 -136 626 -150 c 0
 625 -157 623 -165 617 -172 c 0
 613 -175 609 -178 604 -181 c 0
 598 -183 590 -185 583 -187 c 0
 562 -191 538 -191 515 -192 c 0
EndSplineSet
Validated: 33
EndChar

StartChar: grave
Encoding: 96 96 68
Width: 266
GlyphClass: 2
Flags: MW
HStem: 594 197<126 164> 596 195<126 215>
VStem: 12 240
LayerCount: 2
Fore
SplineSet
164 594 m 0xa0
 153 594 142 594 132 598 c 0
 122 603 114 612 108 620 c 0
 96 637 86 654 75 671 c 0
 58 699 40 726 21 753 c 0
 17 759 12 766 12 774 c 0
 12 786 32 789 41 789 c 0
 69 792 97 792 126 791 c 0xa0
 134 791 143 791 151 789 c 0
 157 787 163 785 167 781 c 0
 173 775 177 767 181 759 c 0
 186 750 190 740 194 731 c 0
 208 701 223 671 238 642 c 0
 243 633 248 624 251 614 c 0
 253 609 250 602 244 600 c 0
 235 597 225 597 215 596 c 0x60
 198 596 181 595 164 594 c 0xa0
EndSplineSet
Validated: 8388641
EndChar

StartChar: a
Encoding: 97 97 69
Width: 647
GlyphClass: 2
Flags: MW
HStem: 0 21G<230 253.5> 1 21G<575 579.5> 282 107<170.5 336.5> 429 177<244.5 334.5> 586 20G<278 334.5>
VStem: 12 261 369 255<30 183>
LayerCount: 2
Fore
SplineSet
575 1 m 0x76
 548 -1 521 -1 494 -1 c 0
 467 -1 440 -1 413 1 c 0x76
 407 2 400 3 394 4 c 0
 392 5 389 6 387 7 c 0
 386 7 384 8 383 9 c 0
 381 10 379 11 377 13 c 0
 373 18 372 24 371 30 c 0
 371 32 371 34 370 35 c 0
 362 30 353 26 344 23 c 0
 311 5 272 0 235 0 c 0xa6
 225 0 215 0 204 1 c 0
 67 14 12 118 12 192 c 0
 12 321 110 389 231 389 c 0
 276 389 314 381 355 359 c 1
 355 367 354 375 352 382 c 0
 352 384 351 386 351 388 c 0
 345 404 330 414 314 420 c 0
 297 425 279 429 261 429 c 0
 228 429 175 420 148 415 c 0
 134 412 119 409 105 406 c 0
 96 404 87 402 77 403 c 0
 72 403 67 405 64 409 c 0
 60 415 59 422 59 429 c 0
 58 439 58 449 58 460 c 0
 59 481 59 499 61 523 c 0
 61 530 62 537 64 543 c 0
 65 549 68 554 72 558 c 0
 88 574 144 586 166 590 c 0
 168 590 170 591 172 591 c 0
 214 598 257 606 299 606 c 0
 370 606 454 590 512 550 c 0
 577 505 621 429 621 363 c 0
 621 308 625 197 625 142 c 2
 625 40 l 2
 625 36 624 33 624 30 c 0
 623 25 622 20 620 16 c 0
 618 13 615 10 612 9 c 2
 606 6 l 2
 605 5 603 5 601 4 c 0
 593 2 584 1 575 1 c 0x76
289 173 m 0
 298 163 312 157 327 157 c 0
 344 157 363 165 369 183 c 1
 370 256 l 1
 364 274 345 282 328 282 c 0
 313 282 299 276 290 266 c 0
 282 258 278 248 276 238 c 0
 271 216 271 193 289 173 c 0
EndSplineSet
Validated: 8388641
Substitution2: "Sustituci+APMA-n +APoA-nica b+APoA-squeda 7 subtabla" ordfeminine
EndChar

StartChar: b
Encoding: 98 98 70
Width: 663
GlyphClass: 2
Flags: MW
HStem: -2 21G<154.5 181.5> 0 21G<399.5 504> 437 166<322.5 511.5> 583 20G<401.5 511.5> 690 20G<152.5 179.5>
VStem: 37 256<44 397 303 397> 389 261
LayerCount: 2
Fore
SplineSet
249 2 m 0x6e
 222 -1 195 -2 168 -2 c 0x8e
 141 -2 115 -1 88 1 c 0
 79 2 70 3 61 5 c 0
 59 5 58 6 56 7 c 2
 50 10 l 2
 47 12 44 15 42 18 c 0
 40 23 39 28 38 34 c 0
 38 37 38 41 37 44 c 2
 37 303 l 2
 37 360 36 488 35 581 c 2
 35 664 l 2
 36 668 36 671 36 675 c 0
 37 680 38 686 41 690 c 0
 42 694 45 697 48 699 c 2
 54 702 l 2
 56 702 57 703 59 704 c 0
 68 706 77 707 86 707 c 0
 113 709 139 710 166 710 c 0
 193 710 220 709 246 707 c 0
 253 706 259 705 266 704 c 0
 268 703 270 702 273 701 c 0
 274 700 275 699 277 699 c 0
 279 697 281 696 282 694 c 0
 286 688 288 681 289 675 c 0
 289 671 289 668 290 664 c 2
 290 541 l 1
 331 579 373 603 430 603 c 0
 593 603 650 436 650 298 c 0
 650 163 582 0 426 0 c 0
 373 0 327 19 292 59 c 1
 292 44 l 2
 292 41 292 37 291 34 c 0
 290 27 289 20 285 15 c 0
 284 13 282 11 279 10 c 0
 278 9 277 8 275 8 c 0
 271 4 254 2 249 2 c 0x6e
294 283 m 2
 298 262 312 243 335 243 c 0
 350 243 364 253 373 268 c 0
 391 299 391 334 386 369 c 0
 382 397 369 437 334 437 c 0x2e
 311 437 297 418 293 397 c 1
 294 283 l 2
EndSplineSet
Validated: 8388641
EndChar

StartChar: c
Encoding: 99 99 71
Width: 605
GlyphClass: 2
Flags: MW
HStem: -9 21G<274.5 354.5> -9 272 429 177<319 405> 586 20G<319 362>
VStem: 14 11
LayerCount: 2
Fore
SplineSet
556 35 m 0x68
 496 9 386 -9 323 -9 c 0x88
 226 -9 136 21 74 101 c 0
 73 103 71 105 70 108 c 0
 42 144 27 187 19 231 c 0
 8 288 12 350 29 405 c 0
 43 454 78 511 120 542 c 2
 132 551 l 1
 205 598 276 606 362 606 c 0
 390 605 418 601 446 596 c 0
 448 595 450 595 452 595 c 0
 476 590 531 580 549 563 c 0
 550 561 552 559 553 557 c 0
 558 549 560 536 560 527 c 0
 562 504 562 486 563 464 c 0
 563 454 563 444 562 434 c 0
 562 421 559 408 543 408 c 0
 534 407 524 409 515 411 c 0
 500 414 486 417 471 420 c 0
 445 425 418 429 392 429 c 0
 371 429 352 425 332 420 c 0
 305 410 289 388 285 360 c 0
 285 351 285 343 287 335 c 0
 291 306 313 284 340 274 c 0
 368 264 398 262 428 263 c 0
 459 264 489 270 519 274 c 0
 526 275 532 276 538 276 c 0
 547 277 557 278 566 274 c 0
 570 272 574 268 576 264 c 0
 579 256 580 248 581 239 c 0
 583 205 582 191 584 163 c 0
 586 147 587 131 587 114 c 0
 587 100 587 85 584 71 c 0
 582 54 571 43 556 35 c 0x68
23 261 m 1
 24 255 24 250 25 245 c 1
 25 246 25 247 25 247 c 2
 24 252 24 256 23 261 c 1
EndSplineSet
Validated: 8388641
EndChar

StartChar: d
Encoding: 100 100 72
Width: 663
GlyphClass: 2
Flags: MW
HStem: -2 21G<481.5 508.5> 0 21G<159.5 263.5> 437 166<151.5 340> 583 20G<151.5 261.5> 690 20G<483.5 510.5>
VStem: 13 261 370 255<34 283> 373 255<581 600 600 600 641 648>
LayerCount: 2
Fore
SplineSet
576 1 m 0x6e
 549 -1 522 -2 495 -2 c 0xae
 468 -2 441 -1 414 2 c 0
 408 2 401 3 395 5 c 0
 393 6 390 6 388 8 c 0
 387 8 385 9 384 10 c 0
 382 11 380 13 378 15 c 0
 374 20 373 27 372 34 c 0
 372 37 371 41 371 44 c 2
 371 59 l 1
 336 19 290 0 237 0 c 0
 82 0 13 163 13 298 c 0
 13 436 70 603 233 603 c 0
 290 603 332 579 373 541 c 1
 373 600 l 1
 374 600 l 1
 374 620 l 2
 373 629 373 637 373 645 c 0
 373 651 373 656 374 661 c 2
 374 664 l 2
 374 668 374 671 375 675 c 0
 375 681 377 688 381 694 c 0
 382 696 384 697 386 699 c 0
 388 699 389 700 391 701 c 2
 397 704 l 2
 404 705 410 706 417 707 c 0
 444 709 470 710 497 710 c 0
 524 710 551 709 578 707 c 0
 587 707 595 706 604 704 c 0
 606 703 607 702 609 702 c 2
 615 699 l 2
 618 697 621 694 623 690 c 0
 625 686 626 680 627 675 c 0
 627 671 628 668 628 664 c 2
 628 581 l 2x6d
 627 488 626 360 626 303 c 2
 626 44 l 2
 626 41 625 37 625 34 c 0
 624 28 623 23 621 18 c 0
 619 15 616 12 613 10 c 2
 607 7 l 2
 606 6 604 5 602 5 c 0
 594 3 585 2 576 1 c 0x6e
290 268 m 0
 299 253 313 243 328 243 c 0
 350 243 366 262 370 283 c 2
 371 397 l 1
 367 418 351 437 329 437 c 0
 294 437 281 397 277 369 c 0
 272 334 272 299 290 268 c 0
EndSplineSet
Validated: 8388641
EndChar

StartChar: e
Encoding: 101 101 73
Width: 615
GlyphClass: 2
Flags: MW
HStem: -9 21G<274.5 347.5> 302 81<408 419.5 408 576> 442 163<342.5 362>
VStem: 14 11
LayerCount: 2
Fore
SplineSet
575 50 m 0
 543 11 372 -9 323 -9 c 0
 226 -9 135 21 74 101 c 0
 73 103 71 105 70 108 c 0
 42 144 27 187 19 231 c 0
 13 263 12 295 14 326 c 0
 19 394 43 459 88 510 c 0
 143 577 223 605 320 605 c 0
 438 605 549 565 582 455 c 0
 589 430 593 404 595 378 c 0
 596 362 597 345 595 329 c 0
 594 323 593 313 589 308 c 0
 588 307 586 306 585 305 c 2
 576 302 l 1
 307 302 l 1
 308 297 309 291 309 286 c 0
 311 278 313 270 318 264 c 0
 323 259 329 255 335 252 c 0
 346 248 357 244 369 242 c 0
 383 241 397 240 412 240 c 0
 448 240 483 243 519 248 c 0
 525 248 532 249 538 249 c 0
 547 250 557 250 566 248 c 0
 570 246 574 243 576 240 c 0
 579 234 580 228 581 222 c 0
 584 186 586 150 587 114 c 0
 587 100 587 85 584 71 c 0
 583 64 580 56 575 50 c 0
358 384 m 0
 378 384 398 383 418 383 c 0
 421 383 424 383 427 384 c 0
 429 384 428 388 428 390 c 0
 427 397 425 404 421 409 c 0
 414 419 405 428 394 434 c 0
 382 439 369 442 355 442 c 0
 330 442 303 430 293 405 c 0
 291 399 290 391 291 384 c 1
 313 385 336 385 358 384 c 0
23 261 m 1
 24 255 24 250 25 245 c 1
 25 246 25 247 25 247 c 2
 24 252 24 256 23 261 c 1
EndSplineSet
Validated: 33
EndChar

StartChar: f
Encoding: 102 102 74
Width: 445
GlyphClass: 2
Flags: MW
HStem: 1 21G<185.5 212.5> 357 154 547 159<251 401>
VStem: 72 257<43 44 44 45 45 60 60 63 63 83 83 100 41 104 41 106 106 155>
LayerCount: 2
Fore
SplineSet
286 4 m 0
 257 2 227 1 198 1 c 0
 173 1 148 2 123 3 c 0
 114 4 105 5 96 7 c 0
 94 7 93 8 91 9 c 0
 89 9 87 10 85 11 c 0
 82 13 79 16 77 19 c 0
 75 23 74 28 73 33 c 0
 72 36 72 39 72 43 c 2
 72 44 l 2
 71 51 71 57 72 63 c 2
 72 104 l 2
 71 105 72 106 72 106 c 2
 72 204 72 266 73 356 c 1
 60 356 62 355 49 355 c 0
 40 356 32 356 24 358 c 0
 19 360 15 364 14 368 c 0
 11 377 12 387 11 396 c 0
 11 421 9 430 10 455 c 0
 11 469 10 483 15 497 c 0
 15 503 25 508 30 508 c 0
 39 510 48 510 56 511 c 2
 60 511 l 2
 64 510 69 510 73 510 c 1
 73 534 l 2
 74 557 73 581 78 604 c 0
 93 687 217 706 285 706 c 0
 310 706 422 693 429 664 c 0
 431 658 432 650 432 644 c 0
 432 614 431 603 431 564 c 0
 431 561 431 558 430 555 c 0
 429 553 428 552 427 551 c 0
 423 547 405 547 397 547 c 0
 383 547 302 546 289 542 c 0
 284 541 278 539 275 536 c 0
 270 532 266 526 265 521 c 2
 262 512 l 1
 384 512 l 2
 394 512 405 512 415 509 c 0
 417 509 422 506 423 505 c 0
 426 501 428 498 428 494 c 0
 430 484 431 473 431 462 c 0
 432 439 432 416 431 392 c 0
 431 385 431 377 428 369 c 0
 428 368 426 364 424 363 c 0
 421 361 416 359 411 359 c 0
 398 357 385 358 373 357 c 0
 359 357 344 358 330 358 c 1
 330 258 329 221 329 106 c 1
 330 106 330 105 330 104 c 0
 329 103 329 102 329 100 c 2
 329 83 l 2
 329 75 330 68 329 60 c 0
 330 55 330 50 329 45 c 2
 329 43 l 2
 329 39 329 36 328 33 c 0
 327 27 326 21 322 16 c 0
 321 14 319 12 316 11 c 0
 315 11 313 10 312 9 c 0
 310 8 308 7 305 7 c 0
 299 5 292 4 286 4 c 0
EndSplineSet
Validated: 33
EndChar

StartChar: g
Encoding: 103 103 75
Width: 660
GlyphClass: 2
Flags: MW
HStem: -192 192<263.5 269.5 220 317> 584 20G<227 261.5>
VStem: 17 261 374 255
LayerCount: 2
Fore
SplineSet
435 -172 m 0
 388 -188 342 -192 292 -192 c 0
 235 -192 79 -180 37 -138 c 0
 33 -133 30 -127 30 -121 c 0
 29 -115 29 -110 29 -104 c 0
 30 -78 33 -10 36 17 c 0
 38 28 39 40 46 49 c 0
 48 52 53 54 57 55 c 0
 62 55 67 55 71 53 c 0
 138 23 187 0 253 0 c 0
 286 0 344 10 364 39 c 0
 369 47 371 57 373 67 c 0
 374 70 374 73 375 76 c 2
 375 85 l 1
 344 51 304 31 253 28 c 0
 238 28 224 29 209 31 c 0
 72 49 17 202 17 312 c 0
 17 426 62 578 204 601 c 0
 216 603 223 604 231 604 c 0
 292 604 333 583 377 542 c 1
 377 555 l 2
 378 559 378 562 378 566 c 0
 379 574 382 585 390 589 c 0
 391 590 393 591 394 592 c 0
 396 593 399 594 401 594 c 0
 407 596 414 597 420 598 c 0
 445 600 470 601 495 601 c 0
 523 601 552 600 581 598 c 0
 590 598 598 597 607 594 c 0
 609 594 610 593 612 592 c 0
 614 592 616 591 618 589 c 0
 621 588 624 585 626 581 c 0
 628 576 629 571 630 566 c 0
 630 562 630 559 631 555 c 2
 631 512 l 1
 631 512 630 322 630 155 c 0
 630 135 628 115 625 95 c 0
 621 49 608 -4 586 -44 c 0
 553 -112 506 -146 435 -172 c 0
294 268 m 0
 303 253 317 243 332 243 c 0
 354 243 370 262 374 283 c 2
 375 397 l 1
 371 418 355 437 333 437 c 0
 298 437 285 397 281 369 c 0
 276 334 276 299 294 268 c 0
EndSplineSet
Validated: 33
EndChar

StartChar: h
Encoding: 104 104 76
Width: 672
GlyphClass: 2
Flags: MW
HStem: -2 21G<154.5 181.5 504.5 531.5> 1 21G<603 606.5> 585 20G<445 467.5> 690 20G<152.5 179.5>
VStem: 37 255<44 47 47 63 63 88 88 107 114 148 42.5 303> 391 256<111 111.5 43 252 43 252>
LayerCount: 2
Fore
SplineSet
603 1 m 0x7c
 575 -1 546 -2 517 -2 c 0
 492 -2 467 -1 442 0 c 0
 433 1 424 2 416 4 c 0
 414 5 412 5 411 6 c 2
 405 9 l 2
 401 11 399 14 397 17 c 0
 395 22 393 28 393 33 c 0
 392 36 392 40 392 43 c 2
 392 45 l 2
 391 52 391 59 392 66 c 0
 391 73 392 80 392 87 c 2
 392 106 l 2
 392 108 392 109 391 111 c 0
 391 112 391 112 392 113 c 0
 392 176 391 177 391 240 c 2
 391 252 l 2
 390 265 389 278 387 291 c 0
 383 319 370 359 336 359 c 0
 313 359 298 340 294 319 c 2
 294 319 292 182 292 114 c 0
 293 113 293 112 293 111 c 0
 292 110 292 109 292 107 c 2
 292 88 l 2
 292 80 293 71 292 63 c 0
 293 58 292 52 292 47 c 2
 292 44 l 2
 292 41 292 37 291 34 c 0
 290 27 289 20 285 15 c 0
 284 13 282 11 279 10 c 0
 278 9 277 8 275 8 c 0
 271 4 254 2 249 2 c 0
 222 -1 195 -2 168 -2 c 0xbc
 141 -2 115 -1 88 1 c 0
 79 2 70 3 61 5 c 0
 59 5 58 6 56 7 c 2
 50 10 l 2
 47 12 44 15 42 18 c 0
 40 23 39 28 38 34 c 0
 38 37 38 41 37 44 c 2
 37 303 l 2
 37 360 36 488 35 581 c 2
 35 664 l 2
 36 668 36 671 36 675 c 0
 37 680 38 686 41 690 c 0
 42 694 45 697 48 699 c 2
 54 702 l 2
 56 702 57 703 59 704 c 0
 68 706 77 707 86 707 c 0
 113 709 139 710 166 710 c 0
 193 710 220 709 246 707 c 0
 253 706 259 705 266 704 c 0
 268 703 270 702 273 701 c 0
 274 700 275 699 277 699 c 0
 279 697 281 696 282 694 c 0
 286 688 288 681 289 675 c 0
 289 671 289 668 290 664 c 2
 290 541 l 1
 335 579 386 601 445 605 c 0
 490 605 535 598 570 566 c 0
 585 554 598 539 608 522 c 0
 627 493 645 448 645 413 c 0
 649 318 647 213 647 113 c 2
 647 43 l 2
 646 40 646 36 646 33 c 0
 645 26 643 19 640 14 c 0
 638 12 636 10 634 9 c 0
 633 8 631 8 630 7 c 0
 628 6 625 5 623 4 c 0
 616 3 610 1 603 1 c 0x7c
EndSplineSet
Validated: 8388641
EndChar

StartChar: i
Encoding: 105 105 77
Width: 343
GlyphClass: 2
Flags: MW
HStem: 1 21G<155.5 182.5> 508 277<142.5 197>
VStem: 44 254<43 64 44 64 57.5 100 57.5 100 328.5 392.5 392.5 394 394 416 416 439 439 456>
LayerCount: 2
Fore
SplineSet
254 4 m 0
 226 2 197 1 168 1 c 0
 143 1 119 2 94 3 c 0
 85 4 76 5 67 7 c 0
 66 7 64 8 62 9 c 0
 60 9 58 10 56 11 c 0
 53 13 50 16 49 19 c 0
 47 23 45 28 45 33 c 0
 44 36 44 39 44 43 c 2
 44 44 l 2
 43 51 43 57 43 63 c 0
 43 70 43 76 44 83 c 2
 44 100 l 2
 43 102 43 103 43 104 c 0
 43 105 43 106 44 106 c 1
 44 456 l 2
 45 459 45 462 45 466 c 0
 46 470 47 475 50 480 c 0
 51 483 54 486 57 487 c 2
 63 490 l 2
 65 491 66 491 68 492 c 0
 77 494 86 495 94 495 c 0
 123 497 152 498 181 498 c 0
 206 498 230 497 255 495 c 0
 262 494 268 493 274 492 c 0
 277 491 279 490 281 489 c 0
 283 489 284 488 285 487 c 0
 288 486 289 485 291 483 c 0
 295 478 296 472 297 466 c 0
 298 462 298 459 298 456 c 2
 298 439 l 2
 299 431 298 423 298 416 c 2
 298 394 l 1
 299 394 298 393 298 392 c 0
 298 265 297 233 297 106 c 1
 298 106 298 105 298 104 c 0
 298 103 297 102 297 100 c 2
 297 83 l 2
 298 75 298 68 298 60 c 0
 298 55 298 50 297 45 c 2
 297 43 l 2
 297 39 297 36 296 33 c 0
 295 27 294 21 290 16 c 0
 289 14 287 12 285 11 c 0
 283 11 282 10 280 9 c 0
 278 8 276 7 274 7 c 0
 267 5 261 4 254 4 c 0
298 573 m 0
 272 532 221 508 173 508 c 0
 110 508 53 541 29 602 c 0
 22 619 20 637 21 655 c 0
 22 678 31 701 44 721 c 0
 74 761 117 785 168 785 c 0
 230 785 286 754 312 697 c 0
 322 674 324 647 319 623 c 0
 316 606 309 588 298 573 c 0
EndSplineSet
Validated: 33
EndChar

StartChar: j
Encoding: 106 106 78
Width: 398
GlyphClass: 2
Flags: MW
HStem: -172 21G<139 139.5> 508 277<197 254 188 262.5>
VStem: 99 255<81 392 106 392>
LayerCount: 2
Fore
SplineSet
132 -173 m 0
 102 -175 71 -170 42 -163 c 0
 25 -158 18 -156 14 -138 c 0
 11 -116 12 -94 11 -72 c 2
 11 -44 l 2
 12 -37 13 -31 16 -25 c 0
 17 -22 19 -19 22 -17 c 0
 27 -14 33 -13 38 -11 c 0
 47 -8 57 -6 66 -3 c 0
 69 -2 71 -1 74 0 c 0
 78 4 82 9 85 14 c 0
 95 30 98 62 99 81 c 2
 99 106 l 2
 99 217 100 281 100 392 c 0
 100 393 99 393 100 394 c 2
 100 435 l 2
 99 442 99 448 100 454 c 2
 100 456 l 2
 100 464 102 473 105 480 c 0
 107 483 109 486 113 487 c 2
 119 490 l 2
 120 491 122 491 124 492 c 0
 132 494 141 495 150 495 c 0
 178 497 207 498 236 498 c 0
 261 498 286 497 311 495 c 0
 317 494 324 493 330 492 c 0
 332 491 335 490 337 489 c 0
 338 489 340 488 341 487 c 0
 343 486 345 485 346 483 c 0
 350 478 352 472 353 466 c 0
 353 462 353 459 354 456 c 2
 354 392 l 2
 354 286 353 246 353 161 c 2
 353 101 l 2
 354 69 355 36 352 4 c 0
 347 -61 317 -124 254 -150 c 0
 231 -162 205 -168 178 -171 c 0
 166 -173 153 -173 141 -173 c 0
 140 -173 140 -172 139 -172 c 0
 137 -173 134 -173 132 -173 c 0
375 623 m 0
 363 555 296 508 229 508 c 0
 165 508 109 541 85 602 c 0
 78 619 76 637 77 655 c 0
 80 729 152 785 224 785 c 0
 284 785 343 754 367 697 c 0
 377 674 379 647 375 623 c 0
EndSplineSet
Validated: 33
EndChar

StartChar: k
Encoding: 107 107 79
Width: 627
GlyphClass: 2
Flags: MW
HStem: -4 21G<157.5 186.5> -2 21G<464.5 477.5 473 499 499 521 521 599> -1 21G<249 249> 0 21G 690 20G<152.5 179.5>
VStem: 37 254
LayerCount: 2
Fore
SplineSet
249 -1 m 2x2c
 226 -3 200 -4 173 -4 c 0x8c
 142 -4 111 -3 85 -1 c 0x2c
 77 0 68 1 61 3 c 0
 59 3 57 4 56 5 c 0
 54 5 52 6 50 7 c 0
 48 9 45 12 44 15 c 2
 41 21 l 2
 40 25 39 29 38 34 c 0
 38 37 38 41 37 44 c 2
 37 114 l 2
 37 269 36 425 35 581 c 2
 35 664 l 2
 36 668 36 671 36 675 c 0
 37 680 38 686 41 690 c 0
 42 694 45 697 48 699 c 2
 54 702 l 2
 56 702 57 703 59 704 c 0
 68 706 77 707 86 707 c 0
 113 709 139 710 166 710 c 0
 193 710 220 709 246 707 c 0
 253 706 259 705 266 704 c 0
 268 703 270 702 273 701 c 0
 274 700 275 699 277 699 c 0
 279 697 281 696 282 694 c 0
 286 688 288 681 289 675 c 0
 289 671 289 668 290 664 c 2
 290 645 l 2
 291 587 291 529 291 472 c 1
 308 500 324 527 341 555 c 0
 344 562 348 569 353 575 c 0
 355 577 358 580 360 581 c 0
 366 585 374 586 381 587 c 0
 451 588 518 587 585 587 c 0
 591 587 598 588 603 585 c 0
 604 585 607 582 607 581 c 0
 610 577 604 571 601 567 c 0
 538 487 478 409 420 327 c 1
 472 244 596 43 609 22 c 0
 612 17 615 13 617 7 c 0
 617 6 617 5 616 4 c 0
 616 3 614 1 614 0 c 0x1c
 611 -2 602 -2 599 -2 c 0
 573 -1 547 -2 521 -2 c 2
 499 -2 l 2
 490 -3 482 -2 473 -2 c 0
 456 -2 439 -2 421 -3 c 0
 411 -3 402 -3 392 -2 c 0x4c
 385 -1 378 1 374 5 c 0
 366 12 362 21 357 30 c 0
 336 66 314 102 292 139 c 1
 292 114 l 2
 293 113 293 112 293 111 c 0
 292 110 292 109 292 107 c 2
 292 88 l 2
 292 80 293 71 292 63 c 0
 293 58 292 52 292 47 c 2
 292 44 l 2
 292 41 292 37 291 34 c 0
 290 27 289 20 285 15 c 0
 284 14 284 13 283 13 c 1
 283 12 282 12 282 11 c 0
 281 10 279 8 277 7 c 0
 276 6 274 5 273 5 c 2
 267 2 l 1
 249 -1 l 2x2c
EndSplineSet
Validated: 8388641
EndChar

StartChar: l
Encoding: 108 108 80
Width: 328
GlyphClass: 2
Flags: MW
HStem: -2 21G<154.5 181.5> 690 20G<152.5 179.5>
VStem: 37 255<44 47 47 63 63 88 88 107 42.5 114 114 191.5>
LayerCount: 2
Fore
SplineSet
249 2 m 0
 222 -1 195 -2 168 -2 c 0
 141 -2 115 -1 88 1 c 0
 79 2 70 3 61 5 c 0
 59 5 58 6 56 7 c 2
 50 10 l 2
 47 12 44 15 42 18 c 0
 40 23 39 28 38 34 c 0
 38 37 38 41 37 44 c 2
 37 114 l 2
 37 269 36 425 35 581 c 2
 35 664 l 2
 36 668 36 671 36 675 c 0
 37 680 38 686 41 690 c 0
 42 694 45 697 48 699 c 2
 54 702 l 2
 56 702 57 703 59 704 c 0
 68 706 77 707 86 707 c 0
 113 709 139 710 166 710 c 0
 193 710 220 709 246 707 c 0
 253 706 259 705 266 704 c 0
 268 703 270 702 273 701 c 0
 274 700 275 699 277 699 c 0
 279 697 281 696 282 694 c 0
 286 688 288 681 289 675 c 0
 289 671 289 668 290 664 c 2
 290 645 l 2
 292 465 292 291 292 114 c 0
 293 113 293 112 293 111 c 0
 292 110 292 109 292 107 c 2
 292 88 l 2
 292 80 293 71 292 63 c 0
 293 58 292 52 292 47 c 2
 292 44 l 2
 292 41 292 37 291 34 c 0
 290 27 289 20 285 15 c 0
 284 13 282 11 279 10 c 0
 278 9 277 8 275 8 c 0
 271 4 254 2 249 2 c 0
EndSplineSet
Validated: 1
EndChar

StartChar: m
Encoding: 109 109 81
Width: 1020
GlyphClass: 2
Flags: MW
HStem: -2 21G<507.5 534.5 851.5 878.5> -1 21G<148.5 175.5> 1 21G<431.5 436 951 954> 585 20G
VStem: 31 255<45 47 47 67 67 88 88 108 108 108.5 45 303 45 337> 384 256<44 47 88 107 113 147.5 42 259 42 259> 738 256<41.5 252 41.5 252>
LayerCount: 2
Fore
SplineSet
951 1 m 0x3e
 922 -1 893 -2 864 -2 c 0x9e
 839 -2 814 -1 789 0 c 0
 780 1 771 2 763 4 c 0
 761 5 759 5 758 6 c 2
 752 9 l 2
 749 11 746 14 744 17 c 0
 742 22 741 28 740 33 c 0
 739 36 739 40 739 43 c 2
 739 45 l 2
 738 52 738 59 739 66 c 2
 739 111 l 2
 738 112 739 112 739 113 c 0
 739 176 738 177 738 240 c 2
 738 252 l 2
 737 265 736 278 734 291 c 0
 730 319 717 359 683 359 c 0
 660 359 645 341 641 320 c 1
 641 252 640 182 640 113 c 1
 641 113 641 112 641 111 c 0
 641 110 640 108 640 107 c 2
 640 88 l 2
 641 79 641 71 641 63 c 0
 641 57 641 52 640 47 c 2
 640 44 l 2
 640 40 640 37 639 33 c 0
 638 27 637 20 633 15 c 0
 632 12 626 9 623 7 c 0
 621 6 619 5 616 5 c 0
 610 3 604 2 597 1 c 0x3e
 572 -1 547 -2 522 -2 c 0x9e
 493 -2 464 -1 436 1 c 0x3e
 427 1 418 2 409 5 c 0
 408 5 407 5 406 6 c 0
 405 6 404 6 403 7 c 2
 397 10 l 2
 394 12 391 15 390 18 c 0
 387 23 386 28 385 34 c 0
 385 37 385 41 384 44 c 2
 384 259 l 2
 383 270 382 281 381 291 c 0
 379 307 374 322 367 336 c 0
 358 350 344 360 329 360 c 0
 307 360 291 341 287 320 c 2
 287 320 286 182 286 114 c 2
 286 45 l 2
 285 41 285 38 285 34 c 0
 284 28 282 21 279 15 c 0
 277 13 275 12 273 10 c 0
 272 10 270 9 269 8 c 0
 267 7 264 6 262 5 c 0
 256 4 249 3 242 2 c 0
 216 0 189 -1 162 -1 c 0x5e
 135 -1 108 0 81 2 c 0
 72 2 63 3 55 5 c 0
 53 6 51 7 50 7 c 2
 44 10 l 2
 33 15 31 35 31 45 c 2
 31 47 l 2
 30 53 30 60 31 67 c 0
 30 74 31 81 31 88 c 2
 31 108 l 2
 31 109 31 110 30 112 c 0
 30 113 31 114 31 114 c 1
 31 303 l 2
 31 371 30 423 30 508 c 2
 30 542 l 2
 31 546 31 549 31 553 c 0
 32 558 33 563 36 568 c 0
 37 572 40 575 43 576 c 0
 45 578 47 579 49 579 c 0
 51 580 52 581 54 581 c 0
 63 584 72 585 80 585 c 0
 109 587 138 588 167 588 c 0
 192 588 216 587 241 585 c 0
 248 584 254 583 261 581 c 0
 266 581 275 575 277 571 c 0
 281 566 283 559 283 553 c 0
 284 549 284 546 284 542 c 1
 331 579 378 601 439 605 c 1
 454 605 l 2
 464 605 473 604 483 604 c 0
 512 601 542 593 564 580 c 0
 575 574 601 557 607 546 c 1
 624 556 637 564 638 564 c 0
 656 574 677 583 698 589 c 0
 727 599 760 604 792 605 c 2
 800 605 l 2
 842 605 885 595 917 566 c 0
 932 554 945 539 955 522 c 0
 976 490 990 452 993 413 c 0
 996 318 994 213 994 113 c 2
 994 43 l 2
 994 40 993 36 993 33 c 0
 992 26 990 19 987 14 c 0
 985 12 983 10 981 9 c 0
 980 8 978 8 977 7 c 0
 975 6 972 5 970 4 c 0
 964 3 957 1 951 1 c 0x3e
EndSplineSet
Validated: 8388641
EndChar

StartChar: n
Encoding: 110 110 82
Width: 666
GlyphClass: 2
Flags: MW
HStem: -2 21G<148.5 175.5 497.5 524.5> 1 21G<597 600.5> 585 20G<439 446.5>
VStem: 31 255<44 46 46 67 67 88 88 107 107 108 44 303 44 337> 385 255<43 46 87 106 113 163 41.5 252 41.5 252>
LayerCount: 2
Fore
SplineSet
597 1 m 0x78
 568 -1 539 -2 510 -2 c 0
 485 -2 461 -1 436 0 c 0
 427 1 418 2 409 4 c 0
 408 5 406 5 404 6 c 2
 398 9 l 2
 395 11 392 14 391 17 c 0
 388 22 387 28 386 33 c 0
 386 36 386 40 385 43 c 2
 385 252 l 2
 382 288 377 359 330 359 c 0
 307 359 291 340 287 319 c 2
 287 319 286 182 286 114 c 2
 286 44 l 2
 285 41 285 37 285 34 c 0
 284 27 282 20 279 15 c 0
 277 13 275 11 273 10 c 0
 272 9 270 8 269 8 c 0
 267 6 264 6 262 5 c 0
 256 3 249 2 242 2 c 0
 216 -1 189 -2 162 -2 c 0xb8
 135 -2 108 -1 81 1 c 0
 72 2 63 3 55 5 c 0
 53 5 51 6 50 7 c 2
 44 10 l 2
 40 12 38 15 36 18 c 0
 34 23 33 28 32 34 c 0
 31 37 31 41 31 44 c 2
 31 46 l 2
 30 53 30 60 31 67 c 0
 30 74 31 81 31 88 c 2
 31 107 l 2
 31 109 31 110 30 111 c 0
 30 112 31 113 31 114 c 2
 31 303 l 2
 31 371 30 423 30 508 c 2
 30 542 l 2
 31 545 31 549 31 552 c 0
 32 558 33 563 36 568 c 0
 37 571 40 574 43 576 c 2
 49 579 l 2
 51 580 52 580 54 581 c 0
 63 583 72 584 80 585 c 0
 107 587 134 588 161 588 c 0
 188 588 215 587 241 584 c 0
 248 584 254 583 261 581 c 2
 267 578 l 2
 270 578 276 574 277 571 c 0
 281 566 283 559 283 552 c 0
 284 549 284 545 284 542 c 1
 331 579 379 601 439 605 c 0
 454 605 468 604 483 602 c 0
 560 591 614 526 632 453 c 0
 636 440 639 426 639 413 c 0
 643 318 640 213 640 113 c 0
 641 112 641 112 641 111 c 0
 641 109 640 108 640 106 c 2
 640 87 l 2
 641 79 641 71 641 62 c 0
 641 57 641 52 640 46 c 2
 640 43 l 2
 640 40 640 36 639 33 c 0
 638 26 637 19 633 14 c 0
 632 12 630 10 628 9 c 0
 624 7 620 5 616 4 c 0
 610 3 604 1 597 1 c 0x78
EndSplineSet
Validated: 8388641
EndChar

StartChar: o
Encoding: 111 111 83
Width: 652
GlyphClass: 2
Flags: MW
HStem: -9 21G<230 360.5> -9 272<302.5 337 302.5 360.5> 441 165 586 20G<320.5 355>
VStem: 16 214 413 225
LayerCount: 2
Fore
SplineSet
523 50 m 0x9c
 454 10 401 -9 320 -9 c 0
 140 -9 21 101 13 282 c 0
 11 312 13 343 20 373 c 0
 47 489 141 583 261 601 c 0
 264 601 266 602 269 602 c 0
 290 605 310 606 331 606 c 0
 379 606 428 598 472 576 c 0
 517 557 561 514 588 474 c 0
 595 462 602 449 608 435 c 0
 609 432 611 429 612 425 c 0
 626 401 636 351 639 324 c 0
 641 303 640 282 637 261 c 0
 630 215 621 186 603 143 c 0
 587 111 552 70 523 50 c 0x9c
235 328 m 0
 245 289 283 263 322 263 c 0
 352 263 378 277 396 301 c 0
 418 331 418 373 397 403 c 0
 391 412 383 419 374 425 c 0
 365 432 353 437 341 439 c 0
 331 442 320 442 310 441 c 0x6c
 265 433 234 401 231 354 c 0
 231 345 232 336 235 328 c 0
EndSplineSet
Validated: 8388641
Substitution2: "Sustituci+APMA-n +APoA-nica b+APoA-squeda 7 subtabla" ordmasculine
EndChar

StartChar: p
Encoding: 112 112 84
Width: 659
GlyphClass: 2
Flags: MW
HStem: -166 21G<146.5 173.5> 0 21G<393.5 497.5> 437 166<316.5 505.5> 583 20G<395.5 505.5>
VStem: 31 256<-123 -61 -123 -61 -123 2.5> 383 261
LayerCount: 2
Fore
SplineSet
236 -164 m 0xec
 211 -165 186 -166 161 -166 c 0
 132 -166 103 -165 75 -163 c 0
 68 -163 61 -162 55 -160 c 0
 53 -160 50 -159 48 -158 c 0
 47 -157 45 -157 44 -156 c 0
 42 -155 40 -153 38 -151 c 0
 35 -146 33 -140 32 -134 c 0
 32 -131 31 -128 31 -124 c 2
 31 -61 l 2
 31 66 30 512 30 512 c 1
 30 555 l 2
 31 559 31 562 31 566 c 0
 32 571 33 576 36 581 c 0
 37 585 40 588 43 589 c 0
 45 591 47 592 49 592 c 0
 51 593 52 594 54 594 c 0
 63 597 72 598 80 598 c 0
 109 600 138 601 166 601 c 0
 191 601 216 600 241 598 c 0
 247 597 254 596 260 594 c 0
 262 594 265 593 267 592 c 0
 268 591 270 590 271 589 c 0
 279 585 282 574 283 566 c 0
 283 562 284 559 284 555 c 2
 284 542 l 1
 326 579 367 603 424 603 c 0
 587 603 644 436 644 298 c 0
 644 163 575 0 420 0 c 0
 367 0 321 19 286 59 c 1
 286 52 l 2
 286 18 287 -18 287 -61 c 2
 287 -123 l 2
 286 -128 286 -131 285 -134 c 0
 285 -139 284 -144 281 -148 c 0
 280 -151 277 -154 274 -156 c 0
 272 -157 270 -158 268 -158 c 0
 266 -159 264 -160 263 -160 c 0
 254 -162 245 -163 236 -164 c 0xec
287 283 m 1
 291 262 307 243 329 243 c 0
 344 243 358 253 367 268 c 0
 385 299 385 334 380 369 c 0
 376 397 363 437 328 437 c 0
 305 437 291 418 287 397 c 1
 287 283 l 1
EndSplineSet
Validated: 8388641
EndChar

StartChar: q
Encoding: 113 113 85
Width: 659
GlyphClass: 2
Flags: MW
HStem: -166 21G<485.5 512.5> 0 21G<161.5 265.5> 437 166<153.5 342> 583 20G<153.5 263.5>
VStem: 15 261 373 255<-124 -123 -123 -123 -84 -67 -67 -66 -126 59 -126 59>
LayerCount: 2
Fore
SplineSet
585 -163 m 0xec
 556 -165 527 -166 498 -166 c 0
 473 -166 448 -165 423 -164 c 0
 414 -163 405 -162 397 -160 c 0
 395 -160 393 -159 392 -158 c 0
 389 -158 387 -157 385 -156 c 0
 382 -154 379 -151 378 -148 c 0
 376 -144 374 -139 374 -134 c 0
 373 -131 373 -128 373 -124 c 2
 373 -123 l 2
 372 -116 372 -110 372 -104 c 0
 372 -97 372 -91 373 -84 c 2
 373 -67 l 2
 373 -65 372 -64 372 -63 c 0
 372 -62 372 -61 373 -61 c 1
 373 59 l 1
 338 19 292 0 239 0 c 0
 84 0 15 163 15 298 c 0
 15 436 72 603 235 603 c 0
 292 603 334 580 375 542 c 1
 375 555 l 2
 376 559 376 562 376 566 c 0
 377 574 380 585 388 589 c 0
 389 590 391 591 392 592 c 0
 394 593 397 594 399 594 c 0
 405 596 412 597 418 598 c 0
 443 600 468 601 493 601 c 0
 521 601 550 600 579 598 c 0
 588 598 596 597 605 594 c 0
 607 594 608 593 610 592 c 0
 612 592 614 591 616 589 c 0
 619 588 622 585 624 581 c 0
 626 576 627 571 628 566 c 0
 628 562 628 559 629 555 c 2
 629 512 l 1
 629 512 628 66 628 -61 c 2
 628 -124 l 2
 628 -128 627 -131 627 -134 c 0
 626 -140 625 -146 621 -151 c 0
 619 -153 617 -155 615 -156 c 0
 614 -157 612 -157 611 -158 c 0
 609 -159 606 -160 604 -160 c 0
 598 -162 591 -163 585 -163 c 0xec
292 268 m 0
 301 253 315 243 330 243 c 0
 352 243 368 262 372 283 c 2
 373 397 l 1
 369 418 353 437 331 437 c 0
 296 437 283 397 279 369 c 0
 274 334 274 299 292 268 c 0
EndSplineSet
Validated: 8388641
EndChar

StartChar: r
Encoding: 114 114 86
Width: 454
GlyphClass: 2
Flags: MW
HStem: -2 21G<148.5 175.5>
VStem: 31 255<44 46 46 67 67 88 88 107 107 108 44 303 44 337>
LayerCount: 2
Fore
SplineSet
242 2 m 0
 216 -1 189 -2 162 -2 c 0
 135 -2 108 -1 81 1 c 0
 72 2 63 3 55 5 c 0
 53 5 51 6 50 7 c 2
 44 10 l 2
 40 12 38 15 36 18 c 0
 34 23 33 28 32 34 c 0
 31 37 31 41 31 44 c 2
 31 46 l 2
 30 53 30 60 31 67 c 0
 30 74 31 81 31 88 c 2
 31 107 l 2
 31 109 31 110 30 111 c 0
 30 112 31 113 31 114 c 2
 31 303 l 2
 31 371 30 423 30 508 c 2
 30 542 l 2
 31 545 31 549 31 552 c 0
 32 558 33 563 36 568 c 0
 37 571 40 574 43 576 c 2
 49 579 l 2
 51 580 52 580 54 581 c 0
 63 583 72 584 80 585 c 0
 107 587 134 588 161 588 c 0
 188 588 215 587 241 584 c 0
 248 584 254 583 261 581 c 2
 267 578 l 2
 270 578 276 574 277 571 c 0
 281 566 283 559 283 552 c 0
 284 549 283 524 283 521 c 1
 310 567 349 589 400 600 c 0
 409 602 419 603 429 600 c 0
 433 600 437 590 437 587 c 0
 439 577 440 566 441 555 c 0
 442 500 442 451 443 399 c 0
 443 385 442 373 441 361 c 0
 438 350 427 349 417 349 c 0
 400 348 382 348 364 347 c 0
 335 347 296 345 287 311 c 1
 287 309 l 2
 287 276 286 171 286 114 c 2
 286 44 l 2
 285 41 285 37 285 34 c 0
 284 27 282 20 279 15 c 0
 277 13 275 11 273 10 c 0
 272 9 270 8 269 8 c 0
 267 6 264 6 262 5 c 0
 256 3 249 2 242 2 c 0
EndSplineSet
Validated: 1
EndChar

StartChar: s
Encoding: 115 115 87
Width: 552
GlyphClass: 2
Flags: MW
HStem: -8 21G<302 302 302 320> -8 250 586 20G<296 337 337 337>
VStem: 20 515<108.5 193>
LayerCount: 2
Fore
SplineSet
302 -8 m 2xb0
 262 -11 222 -7 183 0 c 0
 156 5 121 12 94 20 c 0
 79 24 63 29 49 36 c 0
 42 40 36 45 31 51 c 0
 27 57 24 65 23 72 c 0
 20 87 20 101 20 116 c 0
 20 132 22 148 23 164 c 0
 24 192 24 206 26 240 c 0
 27 249 27 257 30 265 c 0
 32 269 35 273 40 275 c 0
 47 279 56 278 65 278 c 0
 70 276 73 275 77 274 c 0
 79 274 81 273 83 273 c 0
 99 269 122 262 138 257 c 0
 151 254 164 250 178 248 c 0
 190 245 202 243 214 241 c 0
 225 240 236 240 247 243 c 0
 255 245 263 253 261 262 c 0
 256 281 216 297 200 302 c 0
 181 308 162 314 143 321 c 0
 114 329 88 340 64 358 c 0
 56 365 50 374 44 382 c 0
 37 393 33 405 30 418 c 0
 27 430 26 443 27 456 c 0
 28 469 32 481 38 493 c 0
 40 499 43 506 47 512 c 0
 68 549 112 572 151 586 c 0
 197 601 247 607 296 606 c 2
 337 606 l 2
 369 605 481 587 505 563 c 0
 510 559 513 554 514 548 c 0
 516 542 517 535 517 527 c 0
 519 504 519 486 520 464 c 0
 520 454 520 444 519 434 c 0
 519 421 516 408 500 408 c 0
 491 407 481 409 472 411 c 0
 434 418 384 432 355 427 c 0
 348 425 340 422 335 417 c 0
 326 410 330 397 338 390 c 0
 346 383 356 379 365 376 c 0
 382 369 399 363 416 355 c 0
 456 332 478 319 506 281 c 0
 510 275 513 269 516 262 c 0
 529 239 535 206 535 180 c 0
 535 69 424 -8 320 -8 c 2
 302 -8 l 2xb0
EndSplineSet
Validated: 8388641
EndChar

StartChar: t
Encoding: 116 116 88
Width: 471
GlyphClass: 2
Flags: MW
HStem: -12 21G<256 316.5> 433 168<345 352.5> 692 20G<243.5 261.5>
VStem: 90 255<291 314 314 323 323 430 430 430>
LayerCount: 2
Fore
SplineSet
448 46 m 0
 440 6 333 -12 300 -12 c 0
 212 -12 108 31 94 128 c 0
 89 160 90 192 90 225 c 0
 89 257 89 290 90 323 c 2
 90 430 l 1
 76 430 62 431 49 431 c 0
 40 431 32 431 24 434 c 0
 19 435 15 440 14 444 c 0
 11 454 12 464 11 475 c 0
 11 502 9 512 10 539 c 0
 11 554 10 570 15 584 c 0
 15 585 17 590 18 591 c 0
 20 593 28 596 30 597 c 0
 39 599 47 599 56 599 c 0
 63 600 69 601 76 601 c 0
 90 602 105 603 118 608 c 0
 125 610 131 614 137 619 c 0
 152 633 164 650 174 668 c 0
 181 678 185 689 192 699 c 0
 195 704 201 708 206 709 c 0
 210 710 214 710 218 711 c 0
 225 711 237 712 250 712 c 0
 273 712 301 710 317 704 c 2
 317 704 318 703 319 703 c 0
 321 703 324 702 326 700 c 0
 327 700 329 699 330 698 c 0
 332 697 334 695 335 693 c 0
 339 688 341 681 342 675 c 0
 342 671 342 667 343 664 c 2
 343 601 l 1
 400 601 l 2
 411 601 422 601 432 597 c 0
 434 597 439 594 440 593 c 0
 442 589 444 585 445 581 c 0
 447 570 447 558 447 547 c 0
 448 521 448 496 448 470 c 0
 448 462 448 453 445 445 c 0
 444 444 442 440 441 439 c 0
 437 436 432 434 428 434 c 0
 415 432 402 433 389 432 c 0
 375 432 360 433 345 433 c 1
 346 392 345 334 345 294 c 0
 345 288 346 283 346 277 c 0
 347 265 348 253 350 241 c 0
 352 234 355 227 361 221 c 0
 372 207 407 206 423 206 c 0
 431 206 443 205 446 200 c 0
 447 199 449 198 449 196 c 0
 450 191 450 187 450 182 c 0
 450 129 451 115 451 74 c 0
 451 64 451 55 448 46 c 0
EndSplineSet
Validated: 33
EndChar

StartChar: u
Encoding: 117 117 89
Width: 666
GlyphClass: 2
Flags: MW
HStem: -8 21G<195 247>
VStem: 26 255<432 482 488 507 507 532 532 548 548 551 344 552.5> 380 255<486.5 487 487 507 548 550>
LayerCount: 2
Fore
SplineSet
382 54 m 1
 333 16 278 -8 216 -8 c 0
 174 -8 135 3 102 30 c 0
 69 61 45 98 34 143 c 0
 30 156 28 169 27 183 c 0
 23 277 26 382 26 482 c 1
 25 482 25 483 25 484 c 0
 26 485 26 487 26 488 c 2
 26 507 l 2
 26 516 25 524 26 532 c 0
 25 537 25 543 26 548 c 2
 26 551 l 2
 26 554 26 558 27 561 c 0
 28 568 29 575 33 580 c 0
 34 582 36 584 39 585 c 0
 40 586 41 587 43 587 c 0
 47 591 64 593 69 593 c 0
 96 596 123 597 150 597 c 0
 177 597 204 596 230 594 c 0
 239 593 248 592 257 590 c 0
 259 590 260 589 262 588 c 2
 268 585 l 2
 271 583 274 580 275 577 c 0
 278 572 279 567 280 562 c 0
 280 558 280 554 281 551 c 2
 281 344 l 2
 283 313 285 288 299 260 c 0
 308 246 322 236 338 236 c 0
 360 236 375 255 379 276 c 2
 379 276 380 413 380 481 c 2
 380 550 l 2
 381 554 381 557 381 561 c 0
 382 567 384 574 388 579 c 0
 389 581 391 583 393 584 c 0
 394 585 396 586 397 587 c 0
 400 588 402 589 404 589 c 0
 411 591 417 592 424 593 c 0
 449 595 473 596 498 596 c 0
 527 596 556 595 585 593 c 0
 594 593 603 591 611 589 c 0
 613 589 615 588 616 587 c 0
 619 586 621 585 622 584 c 0
 626 582 628 580 630 576 c 0
 632 571 634 566 634 561 c 0
 635 557 635 554 635 550 c 2
 635 548 l 2
 636 541 636 535 636 528 c 0
 636 521 635 514 635 507 c 2
 635 487 l 2
 635 486 635 485 636 483 c 0
 636 482 636 481 635 481 c 1
 635 293 l 2
 635 225 636 173 636 88 c 2
 636 55 l 2
 635 51 635 48 635 44 c 0
 634 39 633 33 631 29 c 0
 629 25 626 22 623 20 c 2
 617 17 l 2
 615 17 614 16 612 15 c 0
 603 13 594 12 586 12 c 0
 559 10 532 9 505 9 c 0
 478 9 452 10 425 12 c 0
 418 13 412 14 405 15 c 2
 399 18 l 2
 397 19 396 20 394 20 c 0
 392 22 390 23 389 25 c 0
 385 31 384 37 383 44 c 0
 382 47 382 51 382 54 c 1
EndSplineSet
Validated: 33
EndChar

StartChar: v
Encoding: 118 118 90
Width: 614
GlyphClass: 2
Flags: MW
HStem: -2 21G<220 253 226 387>
VStem: 10 594<579.5 583>
LayerCount: 2
Fore
SplineSet
417 2 m 0
 410 0 400 -2 387 -2 c 0
 333 -2 280 -2 226 -2 c 0
 214 -2 204 0 197 2 c 0
 196 3 195 3 194 3 c 0
 182 9 175 19 171 36 c 0
 134 162 61 410 23 537 c 2
 17 558 l 1
 11 573 l 2
 11 575 10 578 10 581 c 0
 10 585 11 589 14 591 c 0
 18 593 22 593 26 594 c 0
 71 595 124 596 167 595 c 0
 191 595 215 594 240 592 c 0
 251 592 255 583 259 574 c 0
 261 567 262 561 263 554 c 0
 275 491 295 395 307 333 c 1
 319 395 338 491 351 554 c 0
 352 561 353 567 355 574 c 0
 357 583 364 592 374 592 c 0
 399 594 423 595 447 595 c 0
 490 596 543 595 588 594 c 0
 592 593 596 593 599 591 c 0
 602 589 604 585 604 581 c 0
 604 578 603 575 602 573 c 0
 601 568 599 563 597 558 c 0
 595 551 592 544 590 537 c 0
 553 410 480 162 443 36 c 0
 439 19 431 9 419 3 c 2
 419 3 418 3 417 2 c 0
EndSplineSet
Validated: 33
EndChar

StartChar: w
Encoding: 119 119 91
Width: 829
GlyphClass: 2
Flags: MW
HStem: 0 21G<194 208 194 194 208 290 290 314 501.5 515 539 539 539 621> 1 21G<535 539 628 629 629 635>
VStem: 10 809
LayerCount: 2
Fore
SplineSet
290 0 m 2xa0
 272 -1 234 0 208 0 c 2
 194 0 l 2xa0
 172 2 163 11 156 32 c 0
 106 218 69 366 17 557 c 1
 11 572 l 2
 10 577 9 582 11 586 c 0
 13 588 15 590 18 591 c 0
 22 592 26 592 31 592 c 0
 71 594 107 595 143 595 c 0
 175 595 207 594 242 591 c 0
 246 591 250 590 253 587 c 0
 257 584 259 579 261 574 c 0
 263 567 264 560 265 553 c 0
 274 508 287 445 298 390 c 1
 310 443 323 504 333 549 c 2
 336 567 l 2
 338 577 343 592 356 592 c 0
 377 595 398 596 419 596 c 0
 436 596 454 595 473 593 c 0
 486 593 491 578 493 568 c 2
 496 550 l 2
 506 505 519 444 531 391 c 1
 542 446 555 509 564 554 c 0
 565 561 566 568 568 574 c 0
 570 579 572 585 576 588 c 0
 579 591 583 592 587 592 c 0
 624 595 658 596 692 596 c 0
 726 596 761 595 798 593 c 0
 803 593 807 593 811 592 c 0
 814 591 816 589 818 587 c 0
 820 583 819 577 818 573 c 2
 812 558 l 1
 760 367 723 219 673 33 c 0
 666 12 657 3 635 1 c 2
 629 1 l 2x60
 627 1 624 0 621 0 c 2
 539 0 l 1xa0
 539 1 l 1x60
 531 1 524 1 515 0 c 0
 488 0 473 11 468 37 c 0
 454 84 435 148 415 216 c 1
 394 147 375 83 361 37 c 0
 356 10 341 -1 314 0 c 2
 290 0 l 2xa0
508 278 m 1
 508 276 508 275 508 275 c 1
 508 275 508 276 508 278 c 1
EndSplineSet
Validated: 8388649
EndChar

StartChar: x
Encoding: 120 120 92
Width: 574
GlyphClass: 2
Flags: MW
HStem: 0 21G<88.5 117> 548 47<556 556>
VStem: 8 558
LayerCount: 2
Fore
SplineSet
199 4 m 0
 166 1 133 0 101 0 c 0
 76 0 52 1 28 2 c 0
 25 2 22 3 19 3 c 0
 13 5 9 10 8 15 c 0
 7 23 10 31 13 38 c 0
 14 42 16 46 17 50 c 0
 55 130 97 219 135 299 c 1
 97 379 56 468 18 548 c 0
 17 549 17 549 17 550 c 0
 16 554 14 558 13 561 c 0
 10 569 7 577 8 584 c 0
 9 590 13 595 19 596 c 0
 22 597 25 597 28 598 c 0
 52 599 76 600 101 600 c 0
 133 600 166 599 199 596 c 0
 205 595 210 594 216 593 c 0
 218 592 220 592 222 590 c 0
 223 590 225 589 226 588 c 0
 228 587 229 586 231 584 c 0
 232 582 233 580 234 577 c 2
 284 457 l 1
 301 498 319 539 336 580 c 0
 338 583 340 586 342 587 c 0
 344 588 345 589 347 590 c 0
 348 591 350 591 351 592 c 0
 358 594 366 595 373 595 c 0
 426 599 479 596 532 597 c 0
 539 597 547 597 555 595 c 0
 559 594 564 591 566 587 c 0
 567 581 566 575 564 569 c 0
 563 565 561 560 559 556 c 0
 558 554 557 552 557 550 c 0
 557 549 557 548 556 548 c 0
 520 470 475 379 437 301 c 1
 475 221 518 132 556 52 c 0
 557 51 557 50 557 50 c 2
 557 48 558 46 559 44 c 0
 561 40 563 35 564 30 c 0
 566 25 567 18 566 13 c 0
 564 9 559 5 555 4 c 0
 547 3 539 3 532 3 c 0
 479 4 426 1 373 4 c 0
 366 5 358 6 351 8 c 0
 350 8 348 9 347 10 c 0
 345 10 344 11 342 12 c 0
 340 14 338 16 336 19 c 0
 319 61 301 102 284 143 c 1
 234 22 l 2
 233 20 232 18 231 16 c 0
 229 14 228 13 226 11 c 0
 225 11 223 10 222 9 c 0
 220 8 218 7 216 7 c 0
 210 5 205 4 199 4 c 0
EndSplineSet
Validated: 33
EndChar

StartChar: y
Encoding: 121 121 93
Width: 664
GlyphClass: 2
Flags: MW
HStem: -192 21G<282 352.5> -192 187 28 216<172 348> 583 20G<484.5 511.5> 584 20G<134.5 161.5>
VStem: 24 256<490.5 491.5 532.5 539.5 351 558 351 558> 379 256<488 555 512 513 513 538 538 555 512 557 512 559>
LayerCount: 2
Fore
SplineSet
543 -112 m 0x36
 491 -166 389 -192 316 -192 c 0xb6
 248 -192 84 -167 42 -125 c 0
 38 -120 36 -114 35 -108 c 0
 35 -102 34 -97 35 -92 c 0
 36 -65 38 -38 41 -11 c 0
 42 0 43 12 50 21 c 0
 52 25 57 27 61 27 c 0
 66 27 70 27 75 26 c 2
 135 8 l 1
 184 0 234 -9 284 -5 c 0
 309 -1 334 3 353 22 c 0
 369 35 373 47 377 67 c 0
 378 70 378 73 379 76 c 2
 379 85 l 1
 348 51 308 31 257 28 c 0
 87 28 28 151 25 305 c 0
 25 366 24 428 24 489 c 2
 24 558 l 2
 25 561 25 565 25 569 c 0
 26 575 28 582 32 587 c 0
 33 590 39 594 42 594 c 0
 44 596 46 596 48 597 c 0
 55 599 61 600 68 600 c 0
 95 603 121 604 148 604 c 0
 175 604 202 603 229 601 c 0
 238 600 247 599 255 597 c 0
 257 597 259 596 260 595 c 0
 263 594 265 593 267 592 c 0
 270 590 272 587 274 584 c 0x6e
 276 579 278 574 278 569 c 0
 279 565 279 561 279 558 c 2
 279 556 l 2
 280 549 280 543 280 536 c 0
 280 529 279 522 279 515 c 2
 279 495 l 2
 279 494 280 492 280 491 c 0
 280 490 280 489 279 489 c 1
 279 426 280 425 280 362 c 2
 280 351 l 2
 282 316 287 244 337 244 c 0
 359 244 374 263 378 283 c 2
 378 283 379 449 379 488 c 0
 379 489 378 489 379 490 c 2
 379 513 l 2
 379 522 378 530 379 538 c 2
 379 557 l 2
 379 561 379 564 380 568 c 0
 381 574 382 581 386 586 c 0
 388 588 390 590 392 591 c 0
 393 592 395 593 396 594 c 0
 398 595 400 596 403 596 c 0
 409 598 416 599 422 600 c 0
 447 602 472 603 497 603 c 0
 526 603 555 602 584 600 c 0
 592 600 601 599 610 596 c 0
 612 596 620 592 621 591 c 0
 624 589 627 587 629 583 c 0
 629 582 629 582 630 581 c 0
 632 576 633 571 634 566 c 0
 634 562 635 559 635 555 c 2
 635 512 l 1
 635 512 635 322 634 155 c 0
 634 135 632 115 629 95 c 0
 622 19 595 -55 543 -112 c 0x36
EndSplineSet
Validated: 8388641
EndChar

StartChar: z
Encoding: 122 122 94
Width: 540
GlyphClass: 2
Flags: MW
HStem: 1 260<80 474 340 473> 413 182<63 64 64 133>
VStem: 18 501<108 113.5>
LayerCount: 2
Fore
SplineSet
83 1 m 2
 77 1 70 1 63 2 c 2
 61 2 l 2
 58 2 54 2 51 3 c 0
 46 3 40 4 35 6 c 0
 32 8 29 11 27 13 c 2
 24 19 l 2
 24 21 23 22 22 24 c 0
 20 32 19 40 19 48 c 2
 19 102 l 2
 19 104 18 106 18 108 c 0
 18 119 18 129 20 140 c 0
 22 145 25 150 28 154 c 0
 32 158 35 161 38 165 c 0
 100 248 161 330 223 412 c 1
 191 412 160 413 133 413 c 2
 64 413 l 2
 61 413 57 413 54 414 c 0
 48 414 43 416 38 418 c 0
 35 419 32 422 30 425 c 0
 29 426 28 428 27 430 c 0
 26 432 26 433 25 435 c 0
 23 443 22 451 21 459 c 0
 18 503 16 515 21 555 c 0
 22 561 23 567 25 573 c 0
 25 575 26 577 27 579 c 0
 28 580 29 582 29 583 c 0
 31 585 32 587 34 588 c 0
 39 592 46 593 53 594 c 0
 56 594 60 595 63 595 c 2
 405 595 l 1
 405 595 406 596 407 595 c 2
 430 595 l 2
 438 595 447 596 455 595 c 2
 474 595 l 2
 477 595 481 595 484 594 c 0
 491 594 498 592 503 589 c 0
 506 586 508 583 510 579 c 0
 511 578 512 575 513 573 c 0
 513 571 514 569 515 567 c 2
 515 564 l 2
 516 560 516 556 517 553 c 0
 518 543 518 533 518 523 c 0
 518 515 519 506 518 498 c 0
 517 493 515 487 512 483 c 0
 504 470 494 458 484 446 c 0
 431 376 340 261 340 261 c 1
 474 261 l 2
 477 260 481 260 484 260 c 0
 491 259 498 257 503 254 c 0
 505 253 506 251 508 249 c 0
 508 247 509 246 510 245 c 0
 511 243 512 241 513 238 c 0
 514 233 515 227 516 220 c 0
 518 195 519 145 519 119 c 0
 519 97 518 76 516 48 c 0
 515 39 514 31 512 23 c 0
 512 22 511 20 510 19 c 2
 507 13 l 2
 505 10 503 7 499 6 c 0
 494 4 489 3 484 2 c 0
 480 2 477 1 473 1 c 2
 83 1 l 2
EndSplineSet
Validated: 33
EndChar

StartChar: braceleft
Encoding: 123 123 95
Width: 445
GlyphClass: 2
Flags: MW
HStem: -174 21G<314 367>
VStem: 12 423
LayerCount: 2
Fore
SplineSet
415 -164 m 0
 398 -173 377 -174 357 -174 c 0
 271 -174 172 -140 152 -45 c 0
 148 -31 146 -16 144 -1 c 0
 140 26 140 52 136 79 c 0
 134 95 130 111 123 126 c 0
 106 154 87 163 57 173 c 0
 47 176 37 177 28 182 c 0
 25 184 22 187 20 190 c 0
 13 201 13 220 13 233 c 0
 12 261 12 289 12 318 c 0
 12 321 13 334 14 337 c 2
 14 337 15 338 15 339 c 0
 15 343 16 347 19 351 c 0
 22 356 28 360 34 362 c 0
 55 370 79 370 99 380 c 0
 131 398 137 427 141 462 c 0
 143 485 143 509 146 532 c 0
 150 576 162 623 193 656 c 0
 238 701 330 705 390 705 c 0
 398 705 406 705 413 701 c 0
 418 699 422 695 425 691 c 0
 428 684 430 676 431 669 c 0
 434 645 434 620 434 595 c 0
 434 590 435 574 432 570 c 0
 432 569 431 568 431 567 c 0
 430 566 427 564 426 564 c 0
 425 563 421 562 420 562 c 0
 408 561 396 561 385 559 c 0
 378 557 371 554 366 549 c 0
 359 543 355 535 351 527 c 0
 343 504 340 478 337 454 c 0
 335 429 333 405 327 381 c 0
 320 348 300 323 272 305 c 0
 253 294 231 288 210 281 c 0
 205 280 193 275 191 271 c 0
 190 269 190 267 191 266 c 0
 195 263 199 261 204 260 c 0
 223 254 244 249 262 238 c 0
 298 218 314 190 325 151 c 0
 334 118 335 83 340 49 c 0
 343 33 346 17 353 2 c 0
 355 -4 359 -9 364 -14 c 0
 369 -18 375 -21 382 -22 c 0
 394 -24 406 -25 418 -26 c 0
 420 -26 422 -27 424 -27 c 0
 428 -28 431 -31 432 -34 c 0
 434 -38 434 -43 434 -47 c 0
 435 -70 435 -92 434 -114 c 0
 434 -132 432 -153 415 -164 c 0
EndSplineSet
Validated: 33
EndChar

StartChar: bar
Encoding: 124 124 96
Width: 237
GlyphClass: 2
Flags: MW
HStem: -166 21G<88.5 94> 696 20G<135 140.5>
VStem: 41 151 43 145
LayerCount: 2
Fore
SplineSet
168 -161 m 0xd0
 144 -166 119 -167 94 -166 c 0
 83 -166 71 -165 60 -162 c 0
 49 -160 39 -151 39 -139 c 0
 37 -124 37 -108 37 -93 c 2
 37 -39 l 2
 38 -35 38 -31 38 -27 c 0
 37 -1 37 26 38 53 c 0
 39 123 42 194 43 264 c 2
 43 266 l 2xd0
 42 299 41 332 41 364 c 0xe0
 41 399 42 434 43 468 c 0xd0
 44 501 44 533 44 565 c 2
 44 612 l 2
 43 628 44 643 44 658 c 0
 45 670 44 682 45 694 c 0
 45 703 51 706 59 708 c 0
 74 711 89 713 103 715 c 0
 114 716 125 715 135 716 c 0
 146 716 178 715 187 708 c 0
 189 706 191 703 191 700 c 0
 194 684 196 669 196 653 c 2
 196 599 l 2
 195 543 193 487 192 431 c 0xe0
 191 360 190 290 189 220 c 0
 188 138 186 57 188 -25 c 0
 189 -54 191 -83 190 -112 c 0
 190 -120 190 -129 188 -137 c 0
 188 -140 187 -143 185 -145 c 0
 184 -148 182 -151 180 -154 c 0
 177 -158 172 -160 168 -161 c 0xd0
EndSplineSet
Validated: 8388641
EndChar

StartChar: braceright
Encoding: 125 125 97
Width: 440
GlyphClass: 2
Flags: MW
HStem: -174 21G<73 126.5>
VStem: 5 423 249 179<266 319.5>
LayerCount: 2
Fore
SplineSet
288 -45 m 0xa0
 268 -139 170 -174 83 -174 c 0
 63 -174 42 -173 25 -164 c 0
 19 -160 14 -155 12 -149 c 0
 7 -138 6 -126 6 -114 c 0
 5 -92 5 -70 6 -47 c 0
 6 -43 6 -38 8 -34 c 0
 9 -31 12 -28 15 -27 c 0
 18 -27 20 -26 22 -26 c 0
 34 -25 46 -24 58 -22 c 0
 65 -21 71 -18 76 -14 c 0
 81 -9 85 -4 87 2 c 0
 94 17 97 33 99 49 c 0
 105 83 106 118 115 151 c 0
 126 190 142 218 178 238 c 0
 196 249 216 254 236 260 c 0
 240 261 245 263 249 266 c 0
 250 267 250 269 249 271 c 0
 247 275 235 280 230 281 c 0
 176 299 126 316 113 381 c 0
 107 405 105 429 102 454 c 0
 100 479 95 531 74 549 c 0
 69 554 62 557 55 559 c 0
 44 561 32 561 20 562 c 0
 19 562 15 563 14 564 c 0
 13 564 10 566 9 567 c 0
 9 568 8 569 7 570 c 0
 5 574 6 590 6 595 c 0
 6 610 7 626 7 641 c 0
 7 654 9 680 15 691 c 0
 17 695 22 699 27 701 c 0
 34 705 42 705 50 705 c 0
 72 705 95 703 117 701 c 0
 229 690 283 657 294 532 c 0
 297 509 297 485 299 462 c 0
 301 446 304 430 310 415 c 0
 314 399 327 388 341 380 c 0
 361 370 385 370 406 362 c 0
 412 360 418 356 421 351 c 0
 423 347 424 343 425 339 c 0
 425 338 426 337 426 337 c 2
 427 334 428 321 428 318 c 0
 428 289 428 261 427 233 c 0
 427 223 427 214 425 205 c 0
 423 195 421 188 412 182 c 0
 403 177 393 176 383 173 c 0
 353 163 334 154 317 126 c 0
 310 111 306 95 304 79 c 0
 300 52 300 26 296 -1 c 0
 294 -16 292 -31 288 -45 c 0xa0
EndSplineSet
Validated: 8388641
EndChar

StartChar: asciitilde
Encoding: 126 126 98
Width: 603
GlyphClass: 2
Flags: MW
HStem: 174 180<432 463 424 465> 221 183<158.5 186>
VStem: 21 561<255 309>
LayerCount: 2
Fore
SplineSet
538 193 m 0xa0
 513 179 479 174 451 174 c 0xa0
 413 174 376 181 339 189 c 0
 309 196 280 204 251 212 c 0
 226 218 199 221 173 221 c 0
 144 221 114 217 86 208 c 0
 77 204 67 200 57 197 c 0
 51 195 45 193 39 194 c 0
 31 194 26 205 25 211 c 0
 22 244 21 276 21 309 c 0
 22 323 22 336 26 350 c 0
 27 356 30 363 35 367 c 0
 42 372 49 375 56 379 c 0
 93 397 132 404 173 404 c 0x60
 199 404 226 400 251 395 c 0
 277 390 302 380 327 373 c 0
 365 362 404 354 444 354 c 0
 482 354 513 362 547 379 c 0
 552 382 566 391 572 389 c 0
 573 389 574 389 575 388 c 0
 581 386 581 376 581 370 c 0
 580 333 582 297 582 261 c 0
 582 249 581 237 576 227 c 0
 574 220 569 214 564 209 c 0
 556 202 547 197 538 193 c 0xa0
EndSplineSet
Validated: 8388641
EndChar

StartChar: exclamdown
Encoding: 161 161 100
Width: 345
GlyphClass: 2
Flags: MW
HStem: -161 719<153 170> 324 234<167 174>
VStem: 10 325<-138 -131> 57 233<436 460>
LayerCount: 2
Fore
SplineSet
208 330 m 0x50
 195 325 181 324 167 324 c 0
 112 328 66 366 57 422 c 0
 55 434 55 447 57 460 c 0
 59 477 67 495 77 510 c 0
 100 541 134 558 172 558 c 0
 241 558 290 504 290 436 c 0
 287 387 256 345 208 330 c 0x50
284 -158 m 0
 238 -160 193 -161 147 -161 c 0
 116 -161 85 -160 55 -158 c 0
 45 -158 11 -155 11 -142 c 0
 10 -139 10 -135 10 -131 c 0
 27 3 41 136 56 271 c 0
 57 279 58 287 61 293 c 0
 66 300 73 302 81 302 c 0
 93 304 105 304 117 304 c 0
 132 305 147 304 162 304 c 0
 163 304 164 304 165 304 c 0
 184 305 203 305 222 305 c 0
 236 305 250 305 264 303 c 0
 268 303 273 302 278 300 c 0
 280 299 282 297 283 295 c 0
 287 289 287 282 288 275 c 0
 305 135 317 12 335 -136 c 0xa0
 335 -140 334 -145 331 -148 c 0
 326 -152 319 -154 312 -155 c 0
 303 -157 294 -157 284 -158 c 0
EndSplineSet
Validated: 8388641
EndChar

StartChar: cent
Encoding: 162 162 101
Width: 559
GlyphClass: 2
Flags: MW
HStem: -1 21G 74 245 469 159 691 20G
VStem: 260 53
LayerCount: 2
Fore
SplineSet
638 326 m 0
 651 370 650 422 635 456 c 0
 626 479 612 491 597 490 c 0
 593 490 589 488 586 486 c 0
 582 483 579 478 580 474 c 0
 580 473 581 473 583 474 c 0
 586 477 591 477 596 476 c 0
 599 475 602 473 606 468 c 0
 609 464 611 459 614 452 c 0
 616 445 620 425 620 416 c 0
 622 371 610 328 591 314 c 0
 583 307 574 311 569 322 c 0
 567 326 565 339 565 344 c 0
 565 346 565 349 565 350 c 2
 565 353 l 1
 567 350 l 2
 569 347 572 345 575 345 c 0
 582 345 589 353 595 365 c 0
 606 391 606 425 594 432 c 0
 592 433 588 434 583 433 c 0
 575 431 564 419 556 403 c 0
 543 375 532 332 542 300 c 0
 547 281 568 263 585 262 c 1
 585 262 l 1
 596 261 607 268 617 282 c 0
 626 294 633 308 638 326 c 0
543 190 m 0
 550 196 553 201 552 210 c 0
 550 221 543 230 530 233 c 0
 512 238 480 237 437 229 c 0
 380 217 314 197 249 169 c 0
 207 151 161 127 141 113 c 0
 132 106 126 100 121 90 c 0
 110 68 111 42 124 32 c 0
 126 31 128 30 129 30 c 0
 132 29 133 29 134 32 c 0
 138 43 142 48 151 57 c 0
 203 106 329 168 430 195 c 0
 474 206 506 209 524 204 c 0
 530 202 532 200 531 196 c 0
 530 192 525 188 519 184 c 0
 515 182 514 181 517 181 c 0
 524 180 534 184 543 190 c 0
508 178 m 0
 510 181 509 182 502 181 c 0
 491 179 480 181 475 184 c 0
 473 186 472 187 473 188 c 0
 473 189 473 190 472 190 c 0
 469 190 464 187 463 184 c 0
 462 181 464 176 466 174 c 0
 469 172 479 170 486 171 c 0
 492 171 493 171 498 173 c 0
 503 174 506 176 508 178 c 0
96 130 m 0
 111 159 125 200 136 245 c 0
 139 259 142 276 142 276 c 2
 142 277 141 277 140 276 c 0
 139 276 136 275 134 275 c 2
 131 274 l 1
 134 276 l 2
 136 277 141 281 145 284 c 0
 154 291 155 292 156 291 c 0
 156 290 157 289 157 289 c 2
 157 288 155 282 152 275 c 0
 144 249 140 231 140 216 c 0
 139 211 141 204 142 200 c 0
 148 184 160 174 171 176 c 0
 174 176 174 176 177 178 c 0
 182 182 187 191 191 203 c 0
 192 206 193 209 193 209 c 1
 193 209 194 208 195 206 c 0
 201 198 209 192 218 189 c 0
 221 188 223 188 226 189 c 0
 233 190 237 193 244 202 c 0
 248 209 253 217 256 225 c 0
 257 227 258 230 258 230 c 1
 258 230 259 229 259 227 c 0
 261 225 265 219 267 216 c 0
 269 215 271 213 273 212 c 0
 281 206 287 205 292 208 c 0
 298 211 305 224 311 240 c 0
 312 243 313 246 314 247 c 2
 314 250 l 1
 316 246 l 2
 321 231 332 222 342 224 c 0
 345 225 346 225 348 227 c 0
 353 231 358 240 361 251 c 0
 363 255 363 255 363 254 c 0
 364 252 367 244 370 241 c 0
 376 233 382 228 389 227 c 0
 399 227 408 239 415 261 c 0
 416 265 417 268 417 268 c 2
 417 269 418 267 419 265 c 0
 425 254 434 249 442 250 c 0
 445 251 446 251 448 253 c 0
 453 257 458 267 461 276 c 0
 462 279 462 279 463 279 c 0
 468 269 471 265 478 261 c 0
 486 255 496 252 506 261 c 0
 524 279 534 327 531 376 c 0
 530 385 526 406 524 413 c 0
 518 432 510 442 501 442 c 0
 498 442 496 441 495 438 c 0
 494 436 494 435 495 435 c 0
 498 435 499 435 500 433 c 0
 503 429 506 419 508 405 c 0
 511 386 510 363 507 341 c 0
 504 319 497 303 491 301 c 0
 489 301 488 301 487 303 c 0
 484 305 483 308 481 316 c 0
 479 327 481 341 485 363 c 0
 486 368 487 374 487 376 c 0
 488 380 487 387 486 389 c 0
 483 394 478 392 474 386 c 0
 469 376 463 353 459 332 c 0
 457 320 451 303 446 296 c 0
 442 290 439 291 437 299 c 0
 435 309 436 328 441 349 c 0
 443 353 444 359 444 361 c 0
 448 376 444 386 437 382 c 0
 435 381 432 377 430 373 c 0
 425 361 419 340 415 317 c 0
 412 297 402 276 396 275 c 0
 394 275 392 276 391 279 c 0
 390 282 389 291 389 297 c 0
 389 319 395 358 404 387 c 0
 406 395 406 395 401 396 c 2
 398 397 l 1
 399 398 l 2
 400 398 407 400 414 402 c 0
 429 407 435 408 435 409 c 0
 436 411 436 413 434 414 c 0
 432 416 428 416 423 415 c 0
 419 414 416 415 415 416 c 2
 413 417 l 1
 417 425 l 2
 419 429 422 435 423 438 c 0
 425 440 426 443 426 443 c 2
 425 445 421 447 418 447 c 0
 415 446 409 442 405 439 c 0
 403 436 398 427 395 420 c 2
 392 416 l 1
 389 415 l 2
 387 415 343 405 291 394 c 0
 238 382 194 373 193 372 c 0
 189 371 188 368 191 365 c 0
 192 363 196 361 199 360 c 0
 200 360 204 359 207 359 c 0
 214 359 216 358 220 355 c 0
 222 353 224 352 227 351 c 2
 230 350 l 1
 245 351 286 366 315 373 c 0
 352 384 383 393 383 393 c 1
 383 393 382 387 379 379 c 0
 373 358 369 342 365 320 c 0
 363 309 362 304 357 292 c 0
 352 281 346 270 343 269 c 0
 340 267 338 269 337 275 c 0
 335 285 337 303 341 323 c 0
 342 327 344 333 344 335 c 0
 348 350 344 360 337 356 c 0
 334 354 329 345 326 337 c 2
 325 335 l 1
 324 340 l 2
 322 351 318 356 311 358 c 0
 303 360 297 356 291 349 c 0
 280 338 270 316 264 293 c 0
 259 275 257 269 252 258 c 0
 238 229 225 219 217 233 c 0
 215 237 213 249 214 258 c 2
 214 261 l 1
 216 259 l 2
 219 257 221 256 224 256 c 0
 233 258 242 271 247 289 c 0
 251 305 251 321 247 330 c 0
 244 336 238 338 232 337 c 0
 214 334 193 292 188 248 c 0
 187 241 186 239 183 231 c 0
 180 225 176 219 174 218 c 0
 172 217 171 217 170 219 c 0
 168 221 167 231 167 237 c 0
 168 251 170 263 176 284 c 0
 180 297 180 300 179 306 c 0
 178 314 172 319 165 317 c 0
 163 316 161 315 158 313 c 0
 153 310 148 307 148 307 c 1
 148 307 149 311 149 315 c 0
 153 343 150 362 143 369 c 0
 140 373 134 373 130 371 c 0
 124 368 117 359 112 350 c 0
 106 339 100 322 98 310 c 0
 97 302 97 296 101 287 c 0
 103 282 107 278 110 275 c 0
 113 273 117 271 119 272 c 2
 120 271 l 1
 120 271 118 263 116 254 c 0
 94 180 68 137 42 135 c 0
 34 134 28 137 22 146 c 0
 16 154 13 163 10 177 c 0
 8 189 7 199 9 214 c 0
 11 243 21 278 36 305 c 0
 45 322 52 331 56 331 c 0
 61 332 63 328 61 316 c 0
 60 301 54 280 48 269 c 0
 43 258 37 254 36 260 c 0
 35 261 35 262 34 262 c 0
 32 262 29 254 29 247 c 0
 28 242 30 232 32 228 c 0
 35 221 40 215 46 213 c 0
 52 211 55 213 59 216 c 0
 65 220 71 229 75 240 c 0
 84 262 90 292 89 318 c 0
 89 327 86 343 84 347 c 0
 77 362 65 368 52 363 c 0
 34 354 11 323 -7 281 c 0
 -32 223 -43 164 -33 133 c 0
 -26 111 -15 94 1 83 c 0
 12 76 21 72 32 72 c 0
 44 71 53 74 63 83 c 0
 74 92 86 110 96 130 c 0
-44 389 m 0
 -41 372 -38 365 -32 358 c 0
 -24 347 -12 340 -2 340 c 0
 5 340 9 342 15 351 c 0
 30 370 42 412 48 460 c 0
 53 506 52 549 43 573 c 0
 39 586 29 598 15 595 c 0
 10 594 7 593 5 589 c 0
 2 586 2 582 5 583 c 0
 7 584 10 585 12 584 c 0
 14 583 16 582 17 576 c 0
 27 549 21 467 7 427 c 0
 2 414 -3 407 -6 408 c 0
 -12 410 -17 429 -18 455 c 0
 -19 471 -18 487 -16 508 c 0
 -15 522 -15 526 -16 533 c 0
 -19 548 -26 556 -35 554 c 0
 -41 553 -47 547 -55 533 c 0
 -75 495 -96 418 -103 358 c 0
 -106 325 -104 311 -92 295 c 0
 -84 283 -73 275 -63 273 c 0
 -58 272 -53 273 -50 276 c 0
 -46 278 -44 283 -46 286 c 0
 -47 287 -48 287 -48 286 c 0
 -49 285 -52 284 -53 285 c 0
 -55 286 -57 290 -59 294 c 0
 -61 299 -64 320 -65 327 c 0
 -66 355 -65 385 -60 418 c 0
 -57 433 -54 449 -51 462 c 0
 -49 470 -44 488 -44 488 c 1
 -44 488 -44 484 -45 480 c 0
 -48 457 -48 435 -46 407 c 0
 -46 404 -45 396 -44 389 c 0
-8 566 m 0
 -9 559 -7 553 -2 553 c 0
 -1 553 0 553 1 554 c 0
 3 555 4 556 2 557 c 0
 0 560 0 569 2 574 c 0
 3 576 3 577 2 578 c 0
 -1 578 -6 571 -8 566 c 0
462 397 m 0
 460 401 460 405 461 410 c 0
 463 416 465 420 467 424 c 0
 471 429 475 432 478 431 c 0
 479 430 480 431 480 434 c 0
 480 439 476 444 472 446 c 0
 469 448 466 448 462 446 c 0
 451 442 442 427 442 412 c 0
 442 407 443 403 446 399 c 0
 448 397 450 395 454 394 c 0
 456 394 459 394 461 395 c 0
 461 396 462 396 462 397 c 0
552 427 m 0
 551 429 549 432 551 439 c 0
 553 449 562 459 570 462 c 0
 572 462 573 463 573 464 c 0
 572 465 569 468 566 469 c 0
 563 470 557 469 553 467 c 0
 544 462 536 452 534 443 c 0
 533 439 533 432 535 430 c 0
 536 427 540 425 542 425 c 1
 542 425 l 1
 545 424 549 425 552 427 c 0
70 495 m 0
 59 470 52 439 51 412 c 0
 50 400 51 393 58 384 c 0
 61 379 65 376 70 372 c 0
 75 369 79 367 83 366 c 1
 83 366 l 1
 89 365 94 368 100 377 c 0
 105 384 109 394 114 409 c 0
 115 413 117 416 117 416 c 1
 117 416 117 415 117 414 c 0
 118 413 121 406 123 403 c 0
 126 398 129 395 133 392 c 0
 140 387 145 387 151 392 c 0
 154 395 157 399 160 406 c 2
 162 411 l 1
 165 407 l 2
 171 399 179 394 186 395 c 0
 190 395 190 395 191 402 c 0
 192 421 206 468 218 499 c 0
 221 506 225 516 225 516 c 1
 225 516 225 514 224 510 c 0
 219 494 218 482 219 474 c 0
 220 467 221 462 225 457 c 0
 231 449 239 445 246 446 c 2
 250 446 l 1
 251 451 l 2
 253 462 260 482 267 498 c 0
 269 504 275 515 275 515 c 1
 275 515 274 512 273 507 c 0
 269 494 267 480 266 469 c 0
 265 457 266 451 271 443 c 0
 275 433 282 427 290 425 c 0
 293 424 298 424 301 427 c 0
 305 430 311 440 315 450 c 2
 316 453 l 1
 319 450 l 2
 327 440 338 434 346 435 c 0
 355 437 364 452 372 476 c 2
 374 483 l 1
 375 481 l 2
 379 470 385 463 392 458 c 0
 402 452 410 453 416 462 c 0
 426 475 438 508 448 548 c 0
 452 568 455 581 455 582 c 1
 454 582 453 582 452 581 c 0
 451 581 449 580 447 580 c 2
 445 579 l 1
 447 581 l 2
 448 582 451 584 453 586 c 0
 458 590 465 596 469 598 c 0
 470 598 472 599 474 599 c 0
 476 600 476 600 477 599 c 0
 478 596 477 591 473 580 c 0
 460 539 453 503 457 485 c 0
 458 475 465 465 475 458 c 0
 486 451 493 453 502 466 c 0
 507 474 510 483 514 496 c 2
 516 503 l 1
 519 500 l 2
 526 490 535 484 544 483 c 0
 550 482 554 484 560 493 c 0
 565 501 570 511 574 525 c 2
 577 532 l 1
 578 529 l 2
 584 514 595 503 607 502 c 0
 614 501 620 505 627 515 c 0
 642 535 652 571 651 595 c 0
 650 609 642 619 634 617 c 0
 631 617 629 615 629 613 c 0
 629 611 629 611 630 611 c 0
 633 613 634 609 634 607 c 0
 634 598 631 582 626 570 c 0
 625 568 622 563 620 560 c 0
 615 552 611 550 606 552 c 0
 603 553 601 559 600 568 c 0
 600 581 602 597 608 618 c 0
 613 635 613 645 607 648 c 0
 605 649 604 649 601 647 c 0
 599 645 595 639 590 626 c 2
 589 624 l 1
 588 632 l 2
 586 642 583 647 578 651 c 0
 570 657 561 655 550 644 c 0
 547 640 540 630 537 624 c 0
 533 618 527 604 524 596 c 0
 520 583 515 564 513 550 c 0
 512 542 506 525 501 516 c 0
 496 508 492 505 489 507 c 0
 488 508 486 518 487 525 c 0
 487 541 490 556 497 588 c 0
 500 597 500 600 500 606 c 0
 499 616 494 625 486 627 c 0
 481 629 476 628 467 622 c 0
 464 621 462 620 462 620 c 1
 462 620 462 624 463 628 c 0
 465 652 464 670 460 679 c 0
 456 686 450 690 445 689 c 0
 441 689 439 688 435 685 c 0
 431 682 426 677 422 669 c 0
 411 650 404 624 406 608 c 0
 407 601 409 597 413 591 c 0
 416 588 418 586 421 584 c 0
 425 581 430 578 433 578 c 0
 434 577 423 538 418 524 c 0
 411 505 407 499 403 499 c 0
 401 499 400 501 399 507 c 0
 396 520 399 538 405 562 c 0
 408 572 408 575 408 580 c 0
 408 585 407 589 404 590 c 0
 402 591 401 591 398 589 c 0
 396 587 395 585 393 581 c 0
 391 578 389 574 388 571 c 0
 388 569 387 567 387 567 c 1
 386 576 385 581 382 589 c 0
 380 594 378 596 375 598 c 0
 371 601 369 601 365 601 c 0
 344 599 319 549 312 496 c 0
 311 487 309 481 306 474 c 0
 304 470 301 465 299 465 c 0
 296 465 295 467 294 475 c 0
 291 489 293 509 300 533 c 0
 303 542 304 546 303 552 c 0
 302 562 297 568 291 567 c 0
 287 567 283 563 275 552 c 0
 265 539 255 519 248 501 c 0
 246 497 246 497 246 498 c 0
 246 502 247 513 248 519 c 0
 250 529 251 532 254 544 c 0
 258 556 259 561 258 568 c 0
 257 574 256 577 253 580 c 0
 248 583 241 581 235 574 c 0
 221 558 200 514 188 476 c 0
 188 474 187 473 187 474 c 0
 187 475 191 496 194 510 c 0
 195 518 196 522 195 528 c 0
 194 532 193 535 191 536 c 0
 188 538 185 537 183 532 c 0
 176 523 166 486 161 456 c 0
 160 449 158 445 154 439 c 0
 152 434 149 431 147 431 c 0
 141 430 138 446 142 468 c 0
 143 477 145 484 148 495 c 0
 153 513 153 523 148 526 c 0
 146 527 144 527 142 525 c 0
 139 523 135 516 130 504 c 1
 130 502 l 1
 128 512 l 2
 126 521 126 523 125 526 c 0
 119 536 110 541 101 536 c 0
 95 533 89 528 83 519 c 0
 78 511 75 506 70 495 c 0
645 481 m 1
 653 473 660 463 665 451 c 0
 681 411 682 356 668 308 c 0
 662 289 655 272 645 258 c 0
 634 244 621 233 605 231 c 1
 553 110 433 26 293 26 c 0
 255 26 219 33 185 44 c 1
 180 41 177 38 173 34 c 0
 165 27 165 26 161 16 c 0
 160 13 158 7 149 3 c 0
 141 -1 136 2 133 3 c 0
 126 5 126 6 123 9 c 0
 119 12 116 15 113 19 c 0
 112 20 111 21 110 21 c 0
 98 31 93 45 93 59 c 0
 93 60 93 61 93 61 c 1
 91 60 89 58 87 56 c 0
 76 46 62 41 47 41 c 1
 47 41 l 1
 46 40 44 40 43 40 c 0
 29 41 15 46 2 55 c 0
 -5 61 -12 67 -18 74 c 0
 -33 88 -44 106 -51 128 c 0
 -57 148 -56 172 -51 200 c 0
 -49 213 -46 227 -41 242 c 1
 -45 241 -48 242 -51 242 c 0
 -52 242 -53 242 -54 242 c 0
 -70 245 -83 255 -93 268 c 0
 -98 272 -103 278 -108 284 c 0
 -114 294 -119 305 -121 317 c 0
 -123 329 -123 342 -121 360 c 0
 -115 423 -94 499 -71 542 c 0
 -67 549 -63 556 -58 561 c 0
 -53 566 -47 571 -38 573 c 0
 -34 573 -29 573 -25 572 c 1
 -23 578 -21 582 -18 586 c 0
 -17 587 -16 588 -15 588 c 0
 -14 593 -13 596 -10 600 c 0
 -6 606 4 612 12 614 c 0
 25 616 38 611 45 603 c 0
 46 602 47 602 48 601 c 1
 110 665 197 705 293 705 c 0
 334 705 373 698 410 685 c 1
 414 691 418 696 424 700 c 0
 428 704 436 707 441 708 c 0
 442 708 443 708 444 708 c 0
 457 708 468 700 475 690 c 0
 481 686 485 681 488 675 c 0
 493 665 495 655 495 644 c 1
 503 641 508 635 512 629 c 0
 514 628 515 627 517 625 c 1
 518 628 519 631 520 633 c 0
 525 641 530 650 537 657 c 0
 544 664 551 669 561 672 c 0
 570 674 582 671 590 665 c 0
 591 665 591 664 592 663 c 1
 594 665 597 666 602 667 c 0
 608 668 614 666 617 664 c 0
 622 661 625 657 627 652 c 0
 628 652 628 652 629 651 c 0
 635 648 639 641 641 635 c 1
 649 634 656 629 660 623 c 0
 661 622 662 620 663 618 c 0
 667 616 670 613 672 610 c 0
 678 603 681 593 681 584 c 0
 683 553 673 516 654 491 c 0
 652 487 648 484 645 481 c 1
576 379 m 0
 574 376 572 376 572 377 c 0
 569 381 570 386 576 400 c 0
 580 407 582 411 583 411 c 0
 585 411 585 410 585 404 c 0
 583 394 579 383 576 379 c 0
287 248 m 0
 286 246 284 246 283 247 c 0
 279 252 282 271 282 277 c 0
 285 297 293 321 300 332 c 0
 303 336 305 338 306 338 c 0
 311 339 311 319 306 297 c 0
 301 275 292 252 287 248 c 0
132 344 m 0
 134 344 132 327 128 306 c 0
 127 302 127 299 126 299 c 0
 125 298 123 300 122 302 c 0
 119 309 120 323 126 335 c 0
 128 339 131 344 132 344 c 0
224 286 m 0
 222 284 221 284 220 285 c 0
 219 287 219 289 221 296 c 0
 224 304 228 312 229 314 c 0
 230 316 233 318 234 314 c 0
 235 309 228 290 224 286 c 0
344 480 m 0
 341 478 340 479 338 483 c 0
 336 492 338 514 345 537 c 0
 352 562 362 581 367 577 c 1
 367 577 368 575 368 571 c 0
 370 557 365 526 356 502 c 0
 352 491 347 482 344 480 c 0
83 411 m 0
 81 411 80 413 79 419 c 0
 76 437 85 478 97 501 c 0
 100 508 104 513 106 514 c 0
 109 515 110 514 110 507 c 0
 112 493 107 463 98 438 c 0
 94 425 88 414 85 412 c 0
 84 412 84 411 83 411 c 0
437 607 m 0
 434 608 432 611 431 614 c 0
 429 619 430 633 433 643 c 0
 437 657 442 665 445 662 c 0
 446 660 446 655 446 650 c 0
 445 641 443 624 439 608 c 0
 439 607 439 607 437 607 c 0
544 528 m 2
 541 528 540 529 539 536 c 0
 537 553 546 594 557 617 c 0
 561 624 565 629 567 630 c 0
 569 631 570 630 571 624 c 0
 573 609 567 579 559 554 c 0
 554 541 549 531 545 529 c 0
 545 528 544 528 544 528 c 2
EndSplineSet
Validated: 161
EndChar

StartChar: sterling
Encoding: 163 163 102
Width: 622
GlyphClass: 2
Flags: MW
HStem: -7 233<257 429 406.5 422> 310 90<351.5 502 354 502> 312 91<64 66.5 55.5 69 55.5 146> 498 209<438.5 439 383.5 478.5>
VStem: 22 571<33 362.5>
LayerCount: 2
Fore
SplineSet
538 -8 m 0xd8
 499 -9 460 -8 422 -7 c 0
 391 -7 361 -9 330 -8 c 0
 310 -8 290 -7 269 -7 c 0
 245 -7 221 -7 197 -8 c 0
 154 -8 112 -8 70 -4 c 0
 60 -3 50 -2 40 1 c 0
 30 4 26 8 24 18 c 0
 23 32 24 46 25 61 c 0
 25 79 26 96 26 114 c 0
 26 126 27 137 31 148 c 0
 33 155 38 161 45 165 c 0
 62 175 82 183 98 196 c 0
 112 208 124 223 131 240 c 0
 141 260 145 283 146 306 c 2
 146 312 l 1
 69 312 l 2
 59 312 48 312 38 316 c 0
 32 319 27 324 25 331 c 0
 23 340 23 349 22 358 c 0
 22 367 22 377 24 386 c 0
 26 394 33 402 42 402 c 0
 47 403 53 403 58 403 c 0xb8
 75 403 92 402 109 401 c 0
 115 401 121 401 127 400 c 1
 125 410 123 421 121 431 c 0
 119 442 118 453 116 464 c 0
 114 494 116 526 126 555 c 0
 139 598 175 633 211 657 c 0
 274 692 348 707 419 707 c 0
 459 707 521 700 554 680 c 0
 558 677 562 674 564 669 c 0
 567 664 568 659 569 653 c 2
 572 620 l 2
 572 600 575 545 575 525 c 0
 575 517 574 510 571 502 c 0
 568 497 563 492 557 491 c 0
 552 489 546 489 541 490 c 0
 531 491 521 493 511 495 c 0
 498 497 485 498 472 498 c 0
 405 498 331 482 331 398 c 1
 332 398 l 2
 369 400 406 400 443 400 c 0
 463 401 482 402 502 400 c 0xd8
 528 396 539 379 539 353 c 0
 540 343 541 333 540 323 c 0
 539 318 536 313 532 312 c 0xb8
 527 310 523 309 518 309 c 0
 476 307 432 310 389 310 c 2
 354 310 l 2
 349 310 344 310 340 311 c 1
 340 281 334 252 321 225 c 1
 327 225 333 226 340 226 c 0
 369 226 399 225 429 226 c 0
 459 227 489 230 519 231 c 0
 530 232 541 232 552 231 c 0
 558 230 563 229 568 227 c 0
 573 226 578 222 581 217 c 0
 589 198 591 177 592 157 c 0
 593 131 593 105 593 79 c 0
 593 65 594 51 593 37 c 0
 593 29 592 22 589 15 c 0
 588 11 586 7 582 4 c 0
 578 -1 572 -3 566 -4 c 0
 557 -7 547 -7 538 -8 c 0xd8
EndSplineSet
Validated: 8388641
EndChar

StartChar: currency
Encoding: 164 164 103
Width: 548
GlyphClass: 2
Flags: MW
HStem: 150 165<265 282 265 288> 441 117<263 285.5 254.5 289.5> 587 20G<445 453 453 455>
VStem: 68 139 346 128
LayerCount: 2
Fore
SplineSet
473 122 m 0
 465 114 455 107 445 106 c 0
 440 106 434 108 430 110 c 0
 422 114 416 120 409 126 c 0
 402 133 396 140 389 147 c 0
 380 155 372 164 363 173 c 1
 334 159 304 150 272 150 c 0
 243 150 217 156 191 167 c 0
 188 168 185 169 183 170 c 0
 179 166 175 163 172 159 c 0
 157 144 143 128 126 115 c 0
 120 111 114 108 108 107 c 0
 104 106 100 107 96 108 c 0
 91 110 86 114 81 117 c 0
 64 132 46 148 32 165 c 0
 28 170 24 176 23 182 c 0
 22 185 22 189 23 193 c 0
 28 203 36 211 44 219 c 0
 59 234 74 248 89 262 c 1
 86 269 83 275 80 281 c 0
 76 290 74 300 72 309 c 0
 67 332 65 356 68 380 c 0
 71 405 79 429 91 450 c 1
 73 467 55 484 38 501 c 0
 33 507 27 513 23 520 c 0
 18 529 32 546 38 554 c 0
 47 564 57 573 66 583 c 0
 74 590 82 598 90 606 c 0
 92 608 95 609 98 610 c 0
 105 610 118 597 123 592 c 0
 141 573 159 554 178 536 c 1
 182 538 186 540 190 542 c 0
 215 553 241 558 268 558 c 0
 303 558 338 549 369 533 c 1
 390 556 411 579 434 600 c 0
 437 603 441 605 445 607 c 0
 447 608 450 608 453 607 c 0
 457 607 460 604 463 602 c 0
 480 585 498 569 513 550 c 0
 518 543 522 536 524 528 c 0
 525 522 523 515 519 510 c 0
 514 505 509 500 505 496 c 0
 488 479 470 462 453 445 c 1
 466 419 473 389 474 359 c 0
 475 328 468 296 455 267 c 1
 474 249 492 231 511 213 c 0
 517 206 524 199 526 191 c 0
 527 186 526 180 524 176 c 0
 521 169 516 163 510 158 c 0
 498 145 486 133 473 122 c 0
207 366 m 0
 215 331 248 315 282 315 c 0
 293 316 303 319 313 325 c 0
 321 329 327 334 333 341 c 0
 347 357 350 380 342 400 c 0
 332 427 303 441 276 441 c 0
 250 441 226 429 213 407 c 0
 206 395 204 380 207 366 c 0
EndSplineSet
Validated: 33
EndChar

StartChar: yen
Encoding: 165 165 104
Width: 693
GlyphClass: 2
Flags: MW
HStem: 0 21G<352.5 387> 113 60<153 207 194 207 194 207> 116 60<504 515 515 525 504 548 504 515> 202 60<151.5 159 159 195 195 207> 205 60<504 513 513 549 504 513> 689 20G<118 152>
VStem: 23 660
LayerCount: 2
Fore
SplineSet
457 3 m 0xae
 431 1 402 0 372 0 c 0
 333 0 294 1 261 3 c 0
 252 4 242 5 233 7 c 0
 231 8 229 8 227 9 c 0
 225 10 223 11 221 13 c 0
 217 15 214 18 212 21 c 0
 210 27 209 32 208 38 c 0
 207 42 207 46 207 50 c 2
 207 52 l 2
 206 59 206 66 206 74 c 0
 206 81 206 89 207 97 c 2
 207 113 l 1
 161 113 l 2xc6
 145 113 128 112 113 116 c 0xa6
 111 117 108 118 106 120 c 0
 103 122 101 126 100 130 c 0
 97 140 99 153 105 162 c 0
 110 170 123 172 132 172 c 0
 152 174 173 173 194 173 c 2
 207 173 l 1
 207 202 l 1
 159 202 l 2
 144 202 127 201 113 206 c 0
 108 207 103 210 101 214 c 0
 98 221 98 229 99 237 c 0
 100 242 102 247 105 251 c 0
 107 255 110 257 114 259 c 0
 120 261 127 261 133 262 c 0
 154 263 175 263 195 262 c 2
 207 262 l 1xd6
 207 286 l 1
 149 407 92 528 34 648 c 1
 34 650 l 2
 32 655 30 659 28 664 c 0
 25 672 22 682 23 691 c 0
 24 698 29 703 35 705 c 0
 39 706 43 706 46 707 c 0
 74 708 103 709 133 709 c 0
 171 709 210 708 249 705 c 0
 256 704 262 703 269 701 c 0
 271 700 274 699 276 698 c 0
 278 697 279 697 280 696 c 0
 283 694 285 693 286 690 c 0
 288 688 289 685 290 683 c 2
 350 540 l 1
 370 588 390 637 411 685 c 1
 411 686 l 2
 413 690 415 693 418 695 c 2
 424 698 l 2
 426 699 427 699 429 700 c 0
 437 702 446 703 454 704 c 0
 517 708 580 705 642 706 c 0
 651 706 661 706 670 704 c 0
 675 703 680 699 682 694 c 0
 684 687 682 680 680 673 c 0
 679 668 677 662 675 657 c 2
 672 651 l 2
 672 650 672 649 671 647 c 0
 616 530 560 413 504 296 c 1
 504 265 l 1
 513 265 l 2
 534 266 555 266 576 265 c 0x8e
 582 264 589 264 595 262 c 0x96
 598 260 602 258 604 254 c 0
 607 250 609 245 610 240 c 0
 611 232 611 224 608 217 c 0
 605 213 601 210 596 209 c 0
 581 204 565 205 549 205 c 2
 504 205 l 1
 504 176 l 1
 515 176 l 2
 535 176 556 177 577 175 c 0
 583 175 589 174 594 172 c 0
 598 171 601 168 603 165 c 0
 609 156 611 143 609 133 c 0
 607 125 602 121 595 119 c 0
 580 115 564 116 548 116 c 2
 504 116 l 1
 504 96 l 2
 504 87 505 78 504 69 c 0
 505 64 505 58 504 52 c 2
 504 49 l 2
 504 45 504 41 503 38 c 0
 502 30 501 23 496 17 c 0
 495 15 493 13 490 12 c 0
 489 11 487 10 486 10 c 0
 483 8 481 7 478 7 c 0
 471 5 464 4 457 3 c 0xae
EndSplineSet
Validated: 8388641
EndChar

StartChar: brokenbar
Encoding: 166 166 105
Width: 227
GlyphClass: 2
Flags: MW
HStem: -170 21G<90 96> 696 20G<122 132.5>
VStem: 37 149<-78 35.5 -11.5 115 -11.5 159 -11.5 180 -11.5 180>
LayerCount: 2
Fore
SplineSet
96 -170 m 0
 84 -170 73 -170 61 -169 c 0
 55 -168 49 -167 46 -165 c 0
 42 -163 41 -161 40 -159 c 0
 38 -152 38 -145 38 -138 c 0
 38 -130 37 -122 38 -114 c 2
 38 -108 l 2
 37 -96 37 -84 37 -72 c 0
 37 -40 39 -9 39 23 c 2
 39 24 l 2
 38 39 37 54 37 68 c 0
 36 84 37 100 37 115 c 0
 38 130 38 145 37 159 c 2
 37 180 l 2
 36 187 36 194 36 201 c 2
 36 217 l 2
 37 219 37 220 40 221 c 0
 42 223 47 223 51 224 c 0
 76 228 101 229 126 229 c 0
 137 230 170 230 178 227 c 0
 181 227 182 225 183 224 c 0
 186 217 188 210 188 203 c 2
 188 193 l 2
 189 188 189 183 189 178 c 0
 187 121 186 64 186 7 c 0
 186 -30 185 -67 188 -103 c 0
 189 -116 191 -130 191 -143 c 0
 192 -146 191 -150 190 -154 c 0
 189 -155 188 -157 186 -158 c 0
 185 -159 184 -161 181 -162 c 0
 179 -163 174 -165 170 -165 c 0
 146 -168 121 -169 96 -170 c 0
97 317 m 0
 85 317 73 317 62 318 c 0
 56 319 50 320 46 322 c 0
 43 324 41 326 41 328 c 0
 39 335 39 342 39 349 c 0
 38 357 38 365 38 373 c 0
 39 375 39 377 39 378 c 0
 38 390 38 402 38 414 c 0
 38 446 40 478 40 510 c 2
 40 511 l 2
 39 525 38 540 37 555 c 0
 37 571 38 586 38 602 c 0
 39 617 39 631 38 646 c 2
 38 667 l 2
 36 674 37 681 37 688 c 2
 37 704 l 2
 37 705 38 707 40 708 c 0
 43 710 48 710 52 711 c 0
 66 712 81 714 96 715 c 0
 106 715 117 716 127 716 c 0
 138 716 171 717 179 714 c 0
 182 713 183 712 184 710 c 0
 187 703 188 696 189 689 c 2
 189 665 l 2
 189 640 188 614 188 589 c 0
 188 557 187 525 187 494 c 0
 187 457 186 420 189 383 c 0
 190 370 192 357 192 344 c 0
 192 340 192 336 190 333 c 0
 190 331 189 330 187 329 c 0
 186 328 184 326 182 325 c 0
 179 323 175 322 170 322 c 0
 146 318 121 317 97 317 c 0
EndSplineSet
Validated: 33
EndChar

StartChar: section
Encoding: 167 167 106
Width: 679
GlyphClass: 2
Flags: MW
HStem: 533 188 701 20G
VStem: 21 632
LayerCount: 2
Fore
SplineSet
698 326 m 0x20
 711 370 710 422 695 456 c 0
 686 479 672 491 657 490 c 0
 653 490 649 488 646 486 c 0
 642 483 639 478 640 474 c 0
 640 473 641 473 643 474 c 0
 646 477 651 477 656 476 c 0
 659 475 662 473 666 468 c 0
 669 464 671 459 674 452 c 0
 676 445 680 425 680 416 c 0
 682 371 670 328 651 314 c 0
 643 307 634 311 629 322 c 0
 627 326 625 339 625 344 c 0
 625 346 625 349 625 350 c 2
 625 353 l 1
 627 350 l 2
 629 347 632 345 635 345 c 0
 642 345 649 353 655 365 c 0
 666 391 666 425 654 432 c 0
 652 433 648 434 643 433 c 0
 635 431 624 419 616 403 c 0
 603 375 592 332 602 300 c 0
 607 281 628 263 645 262 c 1
 645 262 l 1
 656 261 667 268 677 282 c 0
 686 294 693 308 698 326 c 0x20
603 190 m 0
 610 196 613 201 612 210 c 0
 610 221 603 230 590 233 c 0
 572 238 540 237 497 229 c 0
 440 217 374 197 309 169 c 0
 267 151 221 127 201 113 c 0
 192 106 186 100 181 90 c 0
 170 68 171 42 184 32 c 0
 186 31 188 30 189 30 c 0
 192 29 193 29 194 32 c 0
 198 43 202 48 211 57 c 0
 263 106 389 168 490 195 c 0
 534 206 566 209 584 204 c 0
 590 202 592 200 591 196 c 0
 590 192 585 188 579 184 c 0
 575 182 574 181 577 181 c 0
 584 180 594 184 603 190 c 0
568 178 m 0
 570 181 569 182 562 181 c 0
 551 179 540 181 535 184 c 0
 533 186 532 187 533 188 c 0
 533 189 533 190 532 190 c 0
 529 190 524 187 523 184 c 0
 522 181 524 176 526 174 c 0
 529 172 539 170 546 171 c 0
 552 171 553 171 558 173 c 0
 563 174 566 176 568 178 c 0
156 130 m 0
 171 159 185 200 196 245 c 0
 199 259 202 276 202 276 c 2
 202 277 201 277 200 276 c 0
 199 276 196 275 194 275 c 2
 191 274 l 1
 194 276 l 2
 196 277 201 281 205 284 c 0
 214 291 215 292 216 291 c 0
 216 290 217 289 217 289 c 2
 217 288 215 282 212 275 c 0
 204 249 200 231 200 216 c 0
 199 211 201 204 202 200 c 0
 208 184 220 174 231 176 c 0
 234 176 234 176 237 178 c 0
 242 182 247 191 251 203 c 0
 252 206 253 209 253 209 c 1
 253 209 254 208 255 206 c 0
 261 198 269 192 278 189 c 0
 281 188 283 188 286 189 c 0
 293 190 297 193 304 202 c 0
 308 209 313 217 316 225 c 0
 317 227 318 230 318 230 c 1
 318 230 319 229 319 227 c 0
 321 225 325 219 327 216 c 0
 329 215 331 213 333 212 c 0
 341 206 347 205 352 208 c 0
 358 211 365 224 371 240 c 0
 372 243 373 246 374 247 c 2
 374 250 l 1
 376 246 l 2
 381 231 392 222 402 224 c 0
 405 225 406 225 408 227 c 0
 413 231 418 240 421 251 c 0
 423 255 423 255 423 254 c 0
 424 252 427 244 430 241 c 0
 436 233 442 228 449 227 c 0
 459 227 468 239 475 261 c 0
 476 265 477 268 477 268 c 2
 477 269 478 267 479 265 c 0
 485 254 494 249 502 250 c 0
 505 251 506 251 508 253 c 0
 513 257 518 267 521 276 c 0
 522 279 522 279 523 279 c 0
 528 269 531 265 538 261 c 0
 546 255 556 252 566 261 c 0
 584 279 594 327 591 376 c 0
 590 385 586 406 584 413 c 0
 578 432 570 442 561 442 c 0
 558 442 556 441 555 438 c 0
 554 436 554 435 555 435 c 0
 558 435 559 435 560 433 c 0
 563 429 566 419 568 405 c 0
 571 386 570 363 567 341 c 0
 564 319 557 303 551 301 c 0
 549 301 548 301 547 303 c 0
 544 305 543 308 541 316 c 0
 539 327 541 341 545 363 c 0
 546 368 547 374 547 376 c 0
 548 380 547 387 546 389 c 0
 543 394 538 392 534 386 c 0
 529 376 523 353 519 332 c 0
 517 320 511 303 506 296 c 0
 502 290 499 291 497 299 c 0
 495 309 496 328 501 349 c 0
 503 353 504 359 504 361 c 0
 508 376 504 386 497 382 c 0
 495 381 492 377 490 373 c 0
 485 361 479 340 475 317 c 0
 472 297 462 276 456 275 c 0
 454 275 452 276 451 279 c 0
 450 282 449 291 449 297 c 0
 449 319 455 358 464 387 c 0
 466 395 466 395 461 396 c 2
 458 397 l 1
 459 398 l 2
 460 398 467 400 474 402 c 0
 489 407 495 408 495 409 c 0
 496 411 496 413 494 414 c 0
 492 416 488 416 483 415 c 0
 479 414 476 415 475 416 c 2
 473 417 l 1
 477 425 l 2
 479 429 482 435 483 438 c 0
 485 440 486 443 486 443 c 2
 485 445 481 447 478 447 c 0
 475 446 469 442 465 439 c 0
 463 436 458 427 455 420 c 2
 452 416 l 1
 449 415 l 2
 447 415 403 405 351 394 c 0
 298 382 254 373 253 372 c 0
 249 371 248 368 251 365 c 0
 252 363 256 361 259 360 c 0
 260 360 264 359 267 359 c 0
 274 359 276 358 280 355 c 0
 282 353 284 352 287 351 c 2
 290 350 l 1
 305 351 346 366 375 373 c 0
 412 384 443 393 443 393 c 1
 443 393 442 387 439 379 c 0
 433 358 429 342 425 320 c 0
 423 309 422 304 417 292 c 0
 412 281 406 270 403 269 c 0
 400 267 398 269 397 275 c 0
 395 285 397 303 401 323 c 0
 402 327 404 333 404 335 c 0
 408 350 404 360 397 356 c 0
 394 354 389 345 386 337 c 2
 385 335 l 1
 384 340 l 2
 382 351 378 356 371 358 c 0
 363 360 357 356 351 349 c 0
 340 338 330 316 324 293 c 0
 319 275 317 269 312 258 c 0
 298 229 285 219 277 233 c 0
 275 237 273 249 274 258 c 2
 274 261 l 1
 276 259 l 2
 279 257 281 256 284 256 c 0
 293 258 302 271 307 289 c 0
 311 305 311 321 307 330 c 0
 304 336 298 338 292 337 c 0
 274 334 253 292 248 248 c 0
 247 241 246 239 243 231 c 0
 240 225 236 219 234 218 c 0
 232 217 231 217 230 219 c 0
 228 221 227 231 227 237 c 0
 228 251 230 263 236 284 c 0
 240 297 240 300 239 306 c 0
 238 314 232 319 225 317 c 0
 223 316 221 315 218 313 c 0
 213 310 208 307 208 307 c 1
 208 307 209 311 209 315 c 0
 213 343 210 362 203 369 c 0
 200 373 194 373 190 371 c 0
 184 368 177 359 172 350 c 0
 166 339 160 322 158 310 c 0
 157 302 157 296 161 287 c 0
 163 282 167 278 170 275 c 0
 173 273 177 271 179 272 c 2
 180 271 l 1
 180 271 178 263 176 254 c 0
 154 180 128 137 102 135 c 0
 94 134 88 137 82 146 c 0
 76 154 73 163 70 177 c 0
 68 189 67 199 69 214 c 0
 71 243 81 278 96 305 c 0
 105 322 112 331 116 331 c 0
 121 332 123 328 121 316 c 0
 120 301 114 280 108 269 c 0
 103 258 97 254 96 260 c 0
 95 261 95 262 94 262 c 0
 92 262 89 254 89 247 c 0
 88 242 90 232 92 228 c 0
 95 221 100 215 106 213 c 0
 112 211 115 213 119 216 c 0
 125 220 131 229 135 240 c 0
 144 262 150 292 149 318 c 0
 149 327 146 343 144 347 c 0
 137 362 125 368 112 363 c 0
 94 354 71 323 53 281 c 0
 28 223 17 164 27 133 c 0
 34 111 45 94 61 83 c 0
 72 76 81 72 92 72 c 0
 104 71 113 74 123 83 c 0
 134 92 146 110 156 130 c 0
16 389 m 0
 19 372 22 365 28 358 c 0
 36 347 48 340 58 340 c 0
 65 340 69 342 75 351 c 0
 90 370 102 412 108 460 c 0
 113 506 112 549 103 573 c 0
 99 586 89 598 75 595 c 0
 70 594 67 593 65 589 c 0
 62 586 62 582 65 583 c 0
 67 584 70 585 72 584 c 0
 74 583 76 582 77 576 c 0
 87 549 81 467 67 427 c 0
 62 414 57 407 54 408 c 0
 48 410 43 429 42 455 c 0
 41 471 42 487 44 508 c 0
 45 522 45 526 44 533 c 0
 41 548 34 556 25 554 c 0
 19 553 13 547 5 533 c 0xa0
 -15 495 -36 418 -43 358 c 0
 -46 325 -44 311 -32 295 c 0
 -24 283 -13 275 -3 273 c 0
 2 272 7 273 10 276 c 0
 14 278 16 283 14 286 c 0
 13 287 12 287 12 286 c 0
 11 285 8 284 7 285 c 0
 5 286 3 290 1 294 c 0
 -1 299 -4 320 -5 327 c 0
 -6 355 -5 385 0 418 c 0
 3 433 6 449 9 462 c 0
 11 470 16 488 16 488 c 1
 16 488 16 484 15 480 c 0
 12 457 12 435 14 407 c 0
 14 404 15 396 16 389 c 0
52 566 m 0
 51 559 53 553 58 553 c 0
 59 553 60 553 61 554 c 0
 63 555 64 556 62 557 c 0
 60 560 60 569 62 574 c 0
 63 576 63 577 62 578 c 0
 59 578 54 571 52 566 c 0
522 397 m 0
 520 401 520 405 521 410 c 0
 523 416 525 420 527 424 c 0
 531 429 535 432 538 431 c 0
 539 430 540 431 540 434 c 0
 540 439 536 444 532 446 c 0
 529 448 526 448 522 446 c 0
 511 442 502 427 502 412 c 0
 502 407 503 403 506 399 c 0
 508 397 510 395 514 394 c 0
 516 394 519 394 521 395 c 0
 521 396 522 396 522 397 c 0
612 427 m 0
 611 429 609 432 611 439 c 0
 613 449 622 459 630 462 c 0
 632 462 633 463 633 464 c 0
 632 465 629 468 626 469 c 0
 623 470 617 469 613 467 c 0
 604 462 596 452 594 443 c 0
 593 439 593 432 595 430 c 0
 596 427 600 425 602 425 c 1
 602 425 l 1
 605 424 609 425 612 427 c 0
130 495 m 0
 119 470 112 439 111 412 c 0
 110 400 111 393 118 384 c 0
 121 379 125 376 130 372 c 0
 135 369 139 367 143 366 c 1
 143 366 l 1
 149 365 154 368 160 377 c 0
 165 384 169 394 174 409 c 0
 175 413 177 416 177 416 c 1
 177 416 177 415 177 414 c 0
 178 413 181 406 183 403 c 0
 186 398 189 395 193 392 c 0
 200 387 205 387 211 392 c 0
 214 395 217 399 220 406 c 2
 222 411 l 1
 225 407 l 2
 231 399 239 394 246 395 c 0
 250 395 250 395 251 402 c 0
 252 421 266 468 278 499 c 0
 281 506 285 516 285 516 c 1
 285 516 285 514 284 510 c 0
 279 494 278 482 279 474 c 0
 280 467 281 462 285 457 c 0
 291 449 299 445 306 446 c 2
 310 446 l 1
 311 451 l 2
 313 462 320 482 327 498 c 0
 329 504 335 515 335 515 c 1
 335 515 334 512 333 507 c 0
 329 494 327 480 326 469 c 0
 325 457 326 451 331 443 c 0
 335 433 342 427 350 425 c 0
 353 424 358 424 361 427 c 0
 365 430 371 440 375 450 c 2
 376 453 l 1
 379 450 l 2
 387 440 398 434 406 435 c 0
 415 437 424 452 432 476 c 2
 434 483 l 1
 435 481 l 2
 439 470 445 463 452 458 c 0
 462 452 470 453 476 462 c 0
 486 475 498 508 508 548 c 0
 512 568 515 581 515 582 c 1
 514 582 513 582 512 581 c 0
 511 581 509 580 507 580 c 2
 505 579 l 1
 507 581 l 2
 508 582 511 584 513 586 c 0
 518 590 525 596 529 598 c 0
 530 598 532 599 534 599 c 0
 536 600 536 600 537 599 c 0
 538 596 537 591 533 580 c 0
 520 539 513 503 517 485 c 0
 518 475 525 465 535 458 c 0
 546 451 553 453 562 466 c 0
 567 474 570 483 574 496 c 2
 576 503 l 1
 579 500 l 2
 586 490 595 484 604 483 c 0
 610 482 614 484 620 493 c 0
 625 501 630 511 634 525 c 2
 637 532 l 1
 638 529 l 2
 644 514 655 503 667 502 c 0
 674 501 680 505 687 515 c 0
 702 535 712 571 711 595 c 0
 710 609 702 619 694 617 c 0
 691 617 689 615 689 613 c 0
 689 611 689 611 690 611 c 0
 693 613 694 609 694 607 c 0
 694 598 691 582 686 570 c 0
 685 568 682 563 680 560 c 0
 675 552 671 550 666 552 c 0
 663 553 661 559 660 568 c 0
 660 581 662 597 668 618 c 0
 673 635 673 645 667 648 c 0
 665 649 664 649 661 647 c 0
 659 645 655 639 650 626 c 2
 649 624 l 1
 648 632 l 2
 646 642 643 647 638 651 c 0
 630 657 621 655 610 644 c 0
 607 640 600 630 597 624 c 0
 593 618 587 604 584 596 c 0
 580 583 575 564 573 550 c 0
 572 542 566 525 561 516 c 0
 556 508 552 505 549 507 c 0
 548 508 546 518 547 525 c 0
 547 541 550 556 557 588 c 0
 560 597 560 600 560 606 c 0
 559 616 554 625 546 627 c 0
 541 629 536 628 527 622 c 0
 524 621 522 620 522 620 c 1
 522 620 522 624 523 628 c 0
 525 652 524 670 520 679 c 0
 516 686 510 690 505 689 c 0
 501 689 499 688 495 685 c 0
 491 682 486 677 482 669 c 0
 471 650 464 624 466 608 c 0
 467 601 469 597 473 591 c 0
 476 588 478 586 481 584 c 0
 485 581 490 578 493 578 c 0
 494 577 483 538 478 524 c 0
 471 505 467 499 463 499 c 0
 461 499 460 501 459 507 c 0
 456 520 459 538 465 562 c 0
 468 572 468 575 468 580 c 0
 468 585 467 589 464 590 c 0
 462 591 461 591 458 589 c 0
 456 587 455 585 453 581 c 0
 451 578 449 574 448 571 c 0
 448 569 447 567 447 567 c 1
 446 576 445 581 442 589 c 0
 440 594 438 596 435 598 c 0
 431 601 429 601 425 601 c 0
 404 599 379 549 372 496 c 0
 371 487 369 481 366 474 c 0
 364 470 361 465 359 465 c 0
 356 465 355 467 354 475 c 0
 351 489 353 509 360 533 c 0
 363 542 364 546 363 552 c 0
 362 562 357 568 351 567 c 0
 347 567 343 563 335 552 c 0
 325 539 315 519 308 501 c 0
 306 497 306 497 306 498 c 0
 306 502 307 513 308 519 c 0
 310 529 311 532 314 544 c 0
 318 556 319 561 318 568 c 0
 317 574 316 577 313 580 c 0
 308 583 301 581 295 574 c 0
 281 558 260 514 248 476 c 0
 248 474 247 473 247 474 c 0
 247 475 251 496 254 510 c 0
 255 518 256 522 255 528 c 0
 254 532 253 535 251 536 c 0
 248 538 245 537 243 532 c 0
 236 523 226 486 221 456 c 0
 220 449 218 445 214 439 c 0
 212 434 209 431 207 431 c 0
 201 430 198 446 202 468 c 0
 203 477 205 484 208 495 c 0
 213 513 213 523 208 526 c 0
 206 527 204 527 202 525 c 0
 199 523 195 516 190 504 c 1
 190 502 l 1
 188 512 l 2
 186 521 186 523 185 526 c 0
 179 536 170 541 161 536 c 0
 155 533 149 528 143 519 c 0
 138 511 135 506 130 495 c 0
705 481 m 1
 713 473 720 463 725 451 c 0
 741 411 742 356 728 308 c 0
 722 289 715 272 705 258 c 0
 694 244 681 233 665 231 c 1
 613 110 493 26 353 26 c 0
 315 26 279 33 245 44 c 1
 240 41 237 38 233 34 c 0
 225 27 225 26 221 16 c 0
 220 13 218 7 209 3 c 0
 201 -1 196 2 193 3 c 0
 186 5 186 6 183 9 c 0
 179 12 176 15 173 19 c 0
 172 20 171 21 170 21 c 0
 158 31 153 45 153 59 c 0
 153 60 153 61 153 61 c 1
 151 60 149 58 147 56 c 0
 136 46 122 41 107 41 c 1
 107 41 l 1
 106 40 104 40 103 40 c 0
 89 41 75 46 62 55 c 0
 55 61 48 67 42 74 c 0
 27 88 16 106 9 128 c 0
 3 148 4 172 9 200 c 0
 11 213 14 227 19 242 c 1
 15 241 12 242 9 242 c 0
 8 242 7 242 6 242 c 0
 -10 245 -23 255 -33 268 c 0
 -38 272 -43 278 -48 284 c 0
 -54 294 -59 305 -61 317 c 0
 -63 329 -63 342 -61 360 c 0
 -55 423 -34 499 -11 542 c 0
 -7 549 -3 556 2 561 c 0
 7 566 13 571 22 573 c 0
 26 573 31 573 35 572 c 1
 37 578 39 582 42 586 c 0
 43 587 44 588 45 588 c 0
 46 593 47 596 50 600 c 0
 54 606 64 612 72 614 c 0
 85 616 98 611 105 603 c 0
 106 602 107 602 108 601 c 1
 170 665 257 705 353 705 c 0
 394 705 433 698 470 685 c 1
 474 691 478 696 484 700 c 0
 488 704 496 707 501 708 c 0
 502 708 503 708 504 708 c 0
 517 708 528 700 535 690 c 0
 541 686 545 681 548 675 c 0
 553 665 555 655 555 644 c 1
 563 641 568 635 572 629 c 0
 574 628 575 627 577 625 c 1
 578 628 579 631 580 633 c 0
 585 641 590 650 597 657 c 0
 604 664 611 669 621 672 c 0
 630 674 642 671 650 665 c 0
 651 665 651 664 652 663 c 1
 654 665 657 666 662 667 c 0
 668 668 674 666 677 664 c 0
 682 661 685 657 687 652 c 0
 688 652 688 652 689 651 c 0
 695 648 699 641 701 635 c 1
 709 634 716 629 720 623 c 0
 721 622 722 620 723 618 c 0
 727 616 730 613 732 610 c 0
 738 603 741 593 741 584 c 0
 743 553 733 516 714 491 c 0
 712 487 708 484 705 481 c 1
636 379 m 0
 634 376 632 376 632 377 c 0
 629 381 630 386 636 400 c 0
 640 407 642 411 643 411 c 0
 645 411 645 410 645 404 c 0
 643 394 639 383 636 379 c 0
347 248 m 0
 346 246 344 246 343 247 c 0
 339 252 342 271 342 277 c 0
 345 297 353 321 360 332 c 0
 363 336 365 338 366 338 c 0
 371 339 371 319 366 297 c 0
 361 275 352 252 347 248 c 0
192 344 m 0
 194 344 192 327 188 306 c 0
 187 302 187 299 186 299 c 0
 185 298 183 300 182 302 c 0
 179 309 180 323 186 335 c 0
 188 339 191 344 192 344 c 0
284 286 m 0
 282 284 281 284 280 285 c 0
 279 287 279 289 281 296 c 0
 284 304 288 312 289 314 c 0
 290 316 293 318 294 314 c 0
 295 309 288 290 284 286 c 0
404 480 m 0
 401 478 400 479 398 483 c 0
 396 492 398 514 405 537 c 0
 412 562 422 581 427 577 c 1
 427 577 428 575 428 571 c 0
 430 557 425 526 416 502 c 0
 412 491 407 482 404 480 c 0
143 411 m 0
 141 411 140 413 139 419 c 0
 136 437 145 478 157 501 c 0
 160 508 164 513 166 514 c 0
 169 515 170 514 170 507 c 0
 172 493 167 463 158 438 c 0
 154 425 148 414 145 412 c 0
 144 412 144 411 143 411 c 0
497 607 m 0
 494 608 492 611 491 614 c 0
 489 619 490 633 493 643 c 0
 497 657 502 665 505 662 c 0
 506 660 506 655 506 650 c 0
 505 641 503 624 499 608 c 0
 499 607 499 607 497 607 c 0
604 528 m 2
 601 528 600 529 599 536 c 0
 597 553 606 594 617 617 c 0
 621 624 625 629 627 630 c 0
 629 631 630 630 631 624 c 0
 633 609 627 579 619 554 c 0
 614 541 609 531 605 529 c 0
 605 528 604 528 604 528 c 2
EndSplineSet
Validated: 8388769
EndChar

StartChar: dieresis
Encoding: 168 168 107
Width: 453
GlyphClass: 2
Flags: MW
HStem: 588 182<94 124.5> 588 183
VStem: 17 182 254 181
LayerCount: 2
Fore
SplineSet
429 646 m 0x70
 416 611 381 589 344 589 c 0
 331 589 318 592 306 598 c 0
 284 607 265 630 258 652 c 0
 254 664 253 678 254 691 c 0
 256 707 263 723 273 736 c 0
 288 759 318 771 345 771 c 0
 358 772 371 768 383 763 c 0
 393 758 402 751 410 744 c 0
 420 733 428 719 432 705 c 0
 438 686 436 664 429 646 c 0x70
187 634 m 0
 171 605 141 588 108 588 c 0
 80 588 59 600 40 619 c 0
 32 628 26 639 22 651 c 0
 18 660 17 670 17 679 c 0
 17 695 22 711 29 725 c 0
 48 753 74 770 109 770 c 0xb0
 158 770 196 732 199 683 c 0
 200 666 195 648 187 634 c 0
EndSplineSet
Validated: 8388641
EndChar

StartChar: copyright
Encoding: 169 169 108
Width: 838
GlyphClass: 2
Flags: MW
HStem: -33 81<367 499.5 367 522> 165 165<400.5 472> 431 107<426 451> 675 81<335 492 326.5 508>
VStem: 23 84 225 160<352 389> 729 84
LayerCount: 2
Fore
SplineSet
813 322 m 0
 795 122 622 -33 422 -33 c 0
 266 -33 129 53 60 194 c 0
 21 276 13 379 36 467 c 0
 83 636 238 756 415 756 c 0
 569 756 710 669 777 528 c 0
 808 465 819 392 813 322 c 0
154 195 m 0
 215 98 316 48 418 48 c 0
 581 48 715 174 729 335 c 0
 746 523 596 675 420 675 c 0
 250 675 110 537 107 365 c 0
 106 305 122 246 154 195 c 0
519 182 m 0
 482 171 443 165 404 165 c 0
 397 165 390 165 384 166 c 0
 312 170 242 220 231 294 c 0
 230 297 229 300 229 304 c 0
 228 309 227 315 227 321 c 0
 226 333 225 346 225 358 c 0
 225 363 225 369 226 374 c 0
 228 400 235 432 248 454 c 0
 252 461 256 467 260 473 c 0
 269 485 280 496 292 505 c 0
 302 511 313 518 325 522 c 0
 348 533 382 535 407 537 c 0
 413 538 419 538 426 538 c 0
 428 538 430 538 432 538 c 0
 449 537 466 535 483 532 c 0
 484 532 485 531 487 531 c 0
 499 529 512 526 524 522 c 0
 532 520 539 517 545 512 c 0
 548 510 549 506 550 503 c 0
 551 499 552 495 552 490 c 0
 553 476 553 465 554 452 c 0
 554 446 554 440 553 434 c 0
 553 429 553 425 550 421 c 0
 548 419 545 418 542 418 c 0
 536 418 531 419 525 420 c 0
 516 421 507 424 498 425 c 0
 479 429 461 431 441 431 c 0
 415 428 388 420 385 389 c 0
 385 336 429 330 472 330 c 0
 490 331 509 334 527 337 c 0
 531 337 535 338 539 338 c 0
 541 338 543 339 545 339 c 0
 551 339 560 337 562 330 c 0
 564 326 564 321 565 316 c 0
 566 295 566 286 567 269 c 0
 567 260 568 250 568 240 c 0
 569 231 568 222 567 214 c 0
 566 209 564 204 561 201 c 0
 558 197 554 194 549 192 c 0
 540 187 530 184 519 182 c 0
EndSplineSet
Validated: 33
EndChar

StartChar: ordfeminine
Encoding: 170 170 109
Width: 339
GlyphClass: 2
Flags: MW
HStem: 298 81 442 55<99.5 177.5> 517 90<144 177.5>
VStem: 12 135 315 10
LayerCount: 2
Fore
SplineSet
300 299 m 0
 272 297 244 297 217 299 c 0
 214 299 210 300 207 300 c 0
 206 301 205 301 204 302 c 0
 203 302 202 302 202 303 c 1
 201 303 200 304 198 305 c 0
 196 307 196 310 195 313 c 0
 195 314 195 315 195 316 c 1
 192 314 189 313 186 311 c 0
 185 311 183 310 182 310 c 0
 168 303 152 299 133 298 c 0
 125 297 118 298 110 299 c 0
 40 305 12 358 12 396 c 0
 12 467 68 497 131 497 c 0
 153 496 171 490 187 481 c 1
 187 485 187 489 186 493 c 0
 186 494 185 495 185 496 c 0
 184 499 183 501 181 503 c 0
 178 507 172 510 166 512 c 0
 159 515 152 517 144 517 c 0
 128 518 97 513 82 510 c 0
 74 508 67 507 60 505 c 0
 55 504 50 503 45 504 c 0
 43 504 40 505 39 507 c 0
 37 510 36 513 36 517 c 0
 36 522 36 527 36 533 c 0
 36 544 36 553 37 565 c 0
 37 569 38 572 39 575 c 0
 39 578 41 581 43 583 c 0
 47 588 54 590 60 592 c 0
 70 595 81 597 91 599 c 0
 92 599 93 600 94 600 c 0
 116 603 138 607 160 607 c 0
 195 607 238 599 267 579 c 0
 301 556 323 517 323 483 c 0
 323 455 325 399 325 371 c 2
 325 318 l 2
 325 316 325 315 325 313 c 0
 324 311 324 308 323 306 c 0
 322 305 320 303 318 303 c 2
 315 301 l 1
 315 301 314 301 313 300 c 0
 309 299 304 299 300 299 c 0
154 386 m 0
 160 379 171 376 182 380 c 0
 189 382 193 387 194 391 c 2
 195 429 l 1
 191 438 182 442 173 442 c 0
 165 442 158 439 154 434 c 0
 150 430 148 425 147 420 c 0
 144 408 144 397 154 386 c 0
EndSplineSet
Validated: 33
EndChar

StartChar: guillemotleft
Encoding: 171 171 110
Width: 627
GlyphClass: 2
Flags: MW
HStem: 62 423<204.5 502>
VStem: 13 598
LayerCount: 2
Fore
SplineSet
210 62 m 0
 199 62 186 63 177 69 c 0
 169 75 162 83 155 91 c 0
 144 104 134 117 124 129 c 0
 109 148 93 165 77 183 c 0
 62 198 48 214 34 230 c 0
 25 239 17 249 13 261 c 0
 11 269 13 279 17 286 c 0
 23 296 31 305 38 314 c 0
 48 326 59 339 69 351 c 0
 92 380 116 409 140 438 c 0
 158 460 173 473 200 481 c 0
 219 484 238 484 257 484 c 0
 278 484 299 483 320 482 c 0
 325 481 331 481 336 479 c 0
 341 477 344 470 343 465 c 0
 342 460 339 455 336 450 c 0
 327 437 316 424 305 412 c 0
 285 389 265 366 245 342 c 0
 235 330 205 294 201 279 c 0
 199 273 199 266 201 260 c 0
 205 246 214 234 223 223 c 0
 239 203 256 184 274 165 c 0
 287 150 301 136 315 121 c 0
 322 112 338 95 333 84 c 2
 333 84 331 81 331 80 c 0
 328 77 323 75 319 74 c 0
 305 70 290 69 276 67 c 0
 254 65 232 63 210 62 c 0
478 63 m 0
 467 63 454 64 445 70 c 0
 437 76 430 84 423 92 c 0
 412 105 402 118 392 130 c 0
 377 148 361 166 345 183 c 0
 330 199 316 214 302 230 c 0
 293 240 285 250 281 262 c 0
 279 270 281 280 285 287 c 0
 291 297 299 306 306 315 c 0
 316 327 327 339 337 351 c 0
 360 381 384 410 408 438 c 0
 418 449 428 460 440 469 c 0
 448 475 458 479 468 481 c 0
 479 484 491 485 502 485 c 0
 531 486 560 485 588 483 c 0
 593 482 599 481 604 479 c 0
 609 477 613 471 611 466 c 0
 610 460 607 456 604 451 c 0
 595 437 584 425 573 413 c 0
 553 389 533 366 513 343 c 0
 502 329 491 316 481 302 c 0
 476 295 471 288 469 280 c 0
 467 274 467 267 469 261 c 0
 476 235 523 185 542 165 c 0
 555 151 569 137 583 122 c 0
 590 113 606 96 601 85 c 0
 601 84 599 82 599 81 c 0
 596 78 591 76 587 74 c 0
 573 70 559 69 544 68 c 0
 522 66 500 64 478 63 c 0
EndSplineSet
Validated: 33
EndChar

StartChar: logicalnot
Encoding: 172 172 111
Width: 610
GlyphClass: 2
Flags: MW
HStem: 195 175<174.5 347 213 279>
VStem: 400 182<92.5 101>
LayerCount: 2
Fore
SplineSet
520 21 m 0
 503 20 486 20 469 20 c 0
 461 20 452 20 444 21 c 0
 434 22 423 26 416 34 c 0
 402 46 400 84 400 101 c 0
 399 121 400 142 398 162 c 0
 398 168 397 173 396 179 c 0
 394 182 393 185 390 188 c 0
 379 196 347 196 335 196 c 0
 316 196 297 195 279 195 c 0
 248 194 217 195 186 195 c 0
 163 195 141 195 119 196 c 0
 98 196 77 196 57 198 c 0
 50 199 32 200 27 206 c 0
 27 207 26 208 25 209 c 0
 23 214 23 220 22 225 c 0
 22 238 21 251 20 264 c 0
 19 281 17 299 18 317 c 0
 19 328 20 340 24 351 c 0
 26 357 29 362 34 365 c 0
 41 370 49 370 57 371 c 0
 78 372 99 371 120 371 c 0
 151 371 182 370 213 370 c 0
 258 369 302 369 347 370 c 0
 393 371 439 373 486 374 c 0
 506 374 526 375 546 373 c 0
 557 371 569 367 571 355 c 0
 576 344 577 331 578 319 c 0
 579 303 580 287 581 272 c 0
 583 216 583 161 582 106 c 0
 582 55 582 25 520 21 c 0
EndSplineSet
Validated: 33
EndChar

StartChar: registered
Encoding: 174 174 113
Width: 648
GlyphClass: 2
Flags: MW
HStem: 115 68<283 358 283 361> 350 80<312.5 314> 488 75<303 303 303 312 273 321> 651 67<314 322 314 315.5>
VStem: 22 70 199 104<430 488 430 547 430 547> 557 68
LayerCount: 2
Fore
SplineSet
414 274 m 2
 405 273 382 273 373 274 c 0
 368 274 362 274 357 275 c 0
 354 276 351 278 349 281 c 0
 347 283 346 285 345 287 c 0
 342 293 340 299 337 305 c 0
 332 313 328 321 324 330 c 0
 322 334 320 339 317 343 c 0
 316 346 315 348 314 350 c 0
 311 350 309 350 307 349 c 2
 307 295 l 2
 307 293 307 292 306 290 c 0
 306 287 305 284 304 282 c 0
 303 281 302 280 301 280 c 1
 301 279 300 279 299 279 c 0
 298 278 297 278 296 278 c 0
 293 277 291 276 288 276 c 0
 264 274 246 275 222 276 c 0
 218 276 214 277 210 278 c 2
 210 278 209 278 208 279 c 0
 207 279 206 280 206 280 c 2
 204 281 203 282 202 284 c 0
 201 286 201 288 200 291 c 2
 200 363 l 1
 199 363 199 363 199 364 c 2
 199 547 l 1
 200 547 l 1
 200 550 l 2
 200 552 201 554 202 556 c 0
 203 557 204 558 205 558 c 0
 206 559 207 559 208 559 c 0
 209 560 209 560 210 560 c 0
 214 561 218 561 222 561 c 0
 228 561 234 562 241 562 c 0
 251 562 262 563 273 563 c 2
 312 563 l 2
 358 561 411 553 440 514 c 0
 446 507 450 499 454 491 c 0
 458 481 461 470 462 458 c 0
 462 457 462 456 461 454 c 0
 462 438 457 423 448 408 c 0
 443 398 436 389 426 382 c 0
 422 378 417 374 412 371 c 1
 420 356 427 340 435 325 c 0
 437 320 440 315 442 310 c 0
 445 305 448 299 450 294 c 0
 453 291 455 285 455 281 c 2
 455 279 l 2
 454 277 452 276 450 275 c 0
 447 274 443 274 439 274 c 2
 414 274 l 2
530 197 m 0
 472 142 398 115 324 115 c 0
 189 115 69 205 33 335 c 0
 18 388 19 447 34 500 c 0
 70 630 193 718 326 718 c 0
 338 718 351 718 363 716 c 0
 617 684 715 373 530 197 c 0
303 488 m 1
 303 430 l 1
 311 430 l 2
 317 430 322 431 327 431 c 0
 334 433 341 435 345 438 c 0
 352 442 356 446 358 451 c 0
 360 456 360 461 359 465 c 0
 358 469 357 472 354 475 c 0
 351 479 346 482 340 484 c 0
 334 487 328 488 321 488 c 0
 315 489 309 489 303 488 c 1
116 314 m 0
 158 228 241 183 325 183 c 0
 391 183 458 211 505 268 c 0
 630 422 518 651 322 651 c 0
 319 651 317 651 314 651 c 0
 145 645 41 466 116 314 c 0
EndSplineSet
Validated: 33
EndChar

StartChar: macron
Encoding: 175 175 114
Width: 419
GlyphClass: 2
Flags: MW
HStem: 616 128<220.5 249 233 329>
VStem: 26 369
LayerCount: 2
Fore
SplineSet
233 616 m 0
 208 616 183 615 158 615 c 0
 127 615 97 616 66 618 c 0
 48 618 27 625 27 646 c 0
 24 667 26 688 28 709 c 0
 28 717 30 737 39 740 c 0
 45 741 50 742 56 742 c 0
 82 744 108 745 134 745 c 0
 158 745 182 744 207 744 c 2
 334 744 l 2
 346 744 358 743 370 742 c 0
 375 742 380 740 384 737 c 0
 391 734 393 717 394 711 c 0
 395 691 395 672 394 652 c 0
 393 644 392 635 388 627 c 0
 386 624 383 621 379 620 c 0
 375 618 371 619 367 618 c 0
 355 617 342 616 329 616 c 0
 297 615 265 616 233 616 c 0
EndSplineSet
Validated: 33
EndChar

StartChar: degree
Encoding: 176 176 115
Width: 438
GlyphClass: 2
Flags: MW
HStem: 304 146<209.5 231 209.5 266.5> 561 139<211 230>
VStem: 21 141 272 145
LayerCount: 2
Fore
SplineSet
412 459 m 0
 390 369 314 304 219 304 c 0
 136 304 65 354 34 431 c 0
 15 479 17 537 39 584 c 0
 69 655 143 700 220 700 c 0
 308 700 387 641 410 554 c 0
 419 523 420 490 412 459 c 0
178 466 m 0
 189 455 203 450 216 450 c 0
 246 450 274 474 272 509 c 0
 271 540 244 561 216 561 c 0
 206 561 196 559 187 553 c 0
 157 534 153 491 178 466 c 0
EndSplineSet
Validated: 33
EndChar

StartChar: plusminus
Encoding: 177 177 116
Width: 626
GlyphClass: 2
Flags: MW
HStem: 3 171<40 496 77 496 496 501 77 77 60 584.5> 293 172<52 230 63 227 63 398 402 499 499 552 552 556>
VStem: 226 172<262 293> 232 171<532 541 541 548 548 549>
LayerCount: 2
Fore
SplineSet
583 3 m 0xc0
 574 1 566 2 557 2 c 0
 538 2 519 2 501 3 c 2
 77 3 l 2
 68 2 60 2 51 2 c 0
 47 2 44 3 40 3 c 0
 35 5 32 9 32 15 c 0
 30 23 29 31 29 39 c 0
 29 54 30 69 30 84 c 0
 30 98 29 111 30 125 c 0
 30 138 31 150 30 163 c 0
 30 169 33 173 39 173 c 0
 46 174 53 174 60 174 c 2
 496 174 l 2
 514 175 532 174 549 174 c 0
 557 174 564 175 572 173 c 0
 577 172 582 169 585 165 c 0
 588 159 589 152 590 145 c 0
 592 125 592 106 592 86 c 0
 593 67 595 47 594 28 c 0
 594 25 593 12 591 9 c 0
 590 6 586 3 583 3 c 0xc0
308 202 m 0
 289 202 270 201 250 202 c 0
 247 202 234 202 231 204 c 0
 228 205 225 207 225 209 c 0
 224 215 224 220 224 226 c 0
 225 238 225 250 226 262 c 0xe0
 226 272 226 283 227 293 c 1
 54 293 l 2
 50 293 47 294 43 294 c 0
 41 295 38 297 37 298 c 0
 36 301 35 303 35 305 c 0
 33 314 32 322 32 330 c 0
 32 345 33 360 33 375 c 0
 33 388 32 402 33 416 c 2
 33 454 l 2
 33 456 33 459 35 461 c 0
 37 462 40 464 42 464 c 0
 49 465 56 465 63 465 c 2
 230 465 l 1
 231 487 231 509 232 532 c 0
 231 537 231 543 232 548 c 0
 232 550 232 553 233 555 c 0
 233 556 236 558 237 559 c 0
 239 560 242 560 244 560 c 0
 252 562 261 562 269 562 c 0
 284 562 299 561 313 561 c 2
 355 561 l 2
 367 560 380 560 392 560 c 0
 395 560 398 560 400 559 c 0
 401 557 402 556 403 554 c 2
 403 541 l 2xd0
 403 515 402 490 402 465 c 1
 499 465 l 2
 517 466 535 465 552 465 c 0
 560 465 567 465 575 464 c 0
 580 463 585 460 588 456 c 0
 591 450 592 443 593 436 c 0
 595 416 595 396 595 377 c 0
 596 358 598 338 597 319 c 0
 597 316 596 303 594 300 c 0
 593 297 589 294 586 293 c 0
 577 292 569 292 560 293 c 2
 398 293 l 1xe0
 398 283 398 273 397 263 c 0
 398 252 397 240 397 229 c 0
 397 224 397 219 396 215 c 0
 395 211 391 208 387 206 c 0
 381 204 374 204 367 203 c 0
 348 202 328 202 308 202 c 0
EndSplineSet
Validated: 8388641
EndChar

